<svg xmlns="http://www.w3.org/2000/svg" width="50" height="50" viewBox="0 0 50 50">
  <g id="Group_126" data-name="Group 126" transform="translate(-1199 -4972)">
    <rect id="Rectangle_67" data-name="Rectangle 67" width="50" height="50" transform="translate(1199 4972)" fill="none"/>
    <g id="Group_125" data-name="Group 125" transform="translate(1207.51 4976.255)">
      <g id="mobile_twotone" data-name="mobile/twotone" transform="translate(0 0)">
        <g id="vuesax_twotone_mobile" data-name="vuesax/twotone/mobile">
          <g id="mobile">
            <path id="Vector" d="M33.333,10.417V31.25c0,8.333-2.083,10.417-10.417,10.417h-12.5C2.083,41.667,0,39.583,0,31.25V10.417C0,2.083,2.083,0,10.417,0h12.5C31.25,0,33.333,2.083,33.333,10.417Z" fill="none" stroke="#0064ad" stroke-linecap="round" stroke-linejoin="round" stroke-width="3"/>
            <path id="Vector-2" data-name="Vector" d="M8.333,0H0" transform="translate(12.5 7.292)" fill="none" stroke="#0064ad" stroke-linecap="round" stroke-linejoin="round" stroke-width="3" opacity="0.4"/>
            <path id="Vector-3" data-name="Vector" d="M6.458,3.229A3.229,3.229,0,1,1,3.229,0,3.229,3.229,0,0,1,6.458,3.229Z" transform="translate(13.437 29.167)" fill="none" stroke="#0064ad" stroke-linecap="round" stroke-linejoin="round" stroke-width="3" opacity="0.4"/>
          </g>
        </g>
      </g>
    </g>
  </g>
</svg>
