<svg xmlns="http://www.w3.org/2000/svg" width="80" height="40" viewBox="0 0 80 40">
  <g id="Group_95" data-name="Group 95" transform="translate(-1144 -3771)">
    <rect id="Rectangle_29" data-name="Rectangle 29" width="80" height="40" rx="20" transform="translate(1144 3771)" fill="rgba(120,214,127,0.1)"/>
    <g id="android" transform="translate(1173 3779)">
      <path id="Path_142" data-name="Path 142" d="M291.494.118a1.149,1.149,0,0,0-1.535.525l-1.685,3.433a.383.383,0,0,0,.175.512l1.373.674a.382.382,0,0,0,.512-.175l1.685-3.433a1.149,1.149,0,0,0-.525-1.535Zm0,0" transform="translate(-274.763 -0.001)" fill="#3fc448"/>
      <path id="Path_143" data-name="Path 143" d="M98.8.642a1.147,1.147,0,0,0-2.06,1.011l1.685,3.433a.382.382,0,0,0,.512.175l1.373-.674a.382.382,0,0,0,.175-.512Zm0,0" transform="translate(-92.108 0)" fill="#3fc448"/>
      <path id="Path_144" data-name="Path 144" d="M396.244,214.1a1.723,1.723,0,0,0-1.721,1.721v5.737a1.721,1.721,0,0,0,3.442,0v-5.737A1.723,1.723,0,0,0,396.244,214.1Zm0,0" transform="translate(-376.075 -204.143)" fill="#78d67f"/>
      <path id="Path_145" data-name="Path 145" d="M101.668,214.1H88.941a.378.378,0,0,0-.374.382v9.178a.378.378,0,0,0,.374.382h1.5v2.486a1.685,1.685,0,1,0,3.369,0v-2.486H96.8v2.486a1.685,1.685,0,1,0,3.369,0v-2.486h1.5a.379.379,0,0,0,.374-.382V214.48A.378.378,0,0,0,101.668,214.1Zm0,0" transform="translate(-84.359 -204.247)" fill="#78d67f"/>
      <g id="Group_101" data-name="Group 101" transform="translate(0 9.851)">
        <path id="Path_146" data-name="Path 146" d="M89.714,223.659v-9.178a.382.382,0,0,1,.382-.382H88.949a.382.382,0,0,0-.382.382v9.178a.382.382,0,0,0,.382.382H90.1A.382.382,0,0,1,89.714,223.659Zm0,0" transform="translate(-84.36 -214.098)" fill="#65d06c"/>
        <path id="Path_147" data-name="Path 147" d="M266.846,425.92v-2.486H265.7v2.486a1.72,1.72,0,0,0,2.295,1.622A1.723,1.723,0,0,1,266.846,425.92Zm0,0" transform="translate(-253.078 -413.491)" fill="#65d06c"/>
        <path id="Path_148" data-name="Path 148" d="M129.971,425.92v-2.486h-1.147v2.486a1.72,1.72,0,0,0,2.295,1.622A1.723,1.723,0,0,1,129.971,425.92Zm0,0" transform="translate(-122.705 -413.491)" fill="#65d06c"/>
        <path id="Path_149" data-name="Path 149" d="M1.721,214.1A1.723,1.723,0,0,0,0,215.819v5.737a1.721,1.721,0,0,0,3.442,0v-5.737A1.723,1.723,0,0,0,1.721,214.1Zm0,0" transform="translate(0 -214.098)" fill="#65d06c"/>
      </g>
      <path id="Path_150" data-name="Path 150" d="M95.3,45.016A6.82,6.82,0,0,0,88.566,51.9a.378.378,0,0,0,.374.382h12.728a.379.379,0,0,0,.374-.382A6.82,6.82,0,0,0,95.3,45.016ZM93.058,49.6a.749.749,0,1,1-.749-.765A.758.758,0,0,1,93.058,49.6Zm4.492,0a.749.749,0,1,1,.749.765A.758.758,0,0,1,97.55,49.6Zm0,0" transform="translate(-84.359 -42.877)" fill="#78d67f"/>
      <path id="Path_151" data-name="Path 151" d="M90.1,51.9a6.893,6.893,0,0,1,6.119-6.841A6.883,6.883,0,0,0,88.566,51.9a.382.382,0,0,0,.382.382h1.53A.382.382,0,0,1,90.1,51.9Zm0,0" transform="translate(-84.443 -42.877)" fill="#65d06c"/>
    </g>
  </g>
</svg>
