<svg xmlns="http://www.w3.org/2000/svg" width="80" height="40" viewBox="0 0 80 40">
  <g id="Group_102" data-name="Group 102" transform="translate(-1144 -3771)">
    <rect id="Rectangle_29" data-name="Rectangle 29" width="80" height="40" rx="20" transform="translate(1144 3771)" fill="rgba(205,191,186,0.1)"/>
    <g id="apple" transform="translate(1128 3779)">
      <path id="Path_152" data-name="Path 152" d="M65.687,129.956c0,.3-2.348,6.59-5.738,6.59a4.575,4.575,0,0,1-1.941-.465,4.054,4.054,0,0,0-1.462-.408,1.612,1.612,0,0,0-.267-.014,4.278,4.278,0,0,0-1.364.38,6.772,6.772,0,0,1-2.363.549h-.028C48.953,136.574,46,129.266,46,125.549c0-6.069,4.556-7.406,6.3-7.406a7.023,7.023,0,0,1,2.377.591,5.673,5.673,0,0,0,1.364.38,2,2,0,0,0,.506-.127c.141-.056.309-.113.464-.183a7.982,7.982,0,0,1,2.939-.7h.014A6.02,6.02,0,0,1,65,120.635l.366.563-.534.394a4.5,4.5,0,0,0-2.123,3.675,4.153,4.153,0,0,0,2.306,3.83C65.336,129.294,65.687,129.505,65.687,129.956Z" transform="translate(0 -112.588)" fill="#efe2dd"/>
      <path id="Path_153" data-name="Path 153" d="M259.745,0c.07,2.856-1.736,4.938-3.752,5.2a2.9,2.9,0,0,1-.7.042,4.083,4.083,0,0,1,.7-2.786A5.051,5.051,0,0,1,259.745,0Z" transform="translate(-199.436 0)" fill="#fff5f5"/>
      <path id="Path_154" data-name="Path 154" d="M271,5.2V2.46A5.051,5.051,0,0,1,274.753,0C274.822,2.856,273.016,4.938,271,5.2Z" transform="translate(-214.442 0)" fill="#cdbfba"/>
      <path id="Path_155" data-name="Path 155" d="M280.1,129.889c0,.294-2.338,6.553-5.713,6.553a4.56,4.56,0,0,1-1.932-.462,4.04,4.04,0,0,0-1.456-.406V118.982c.14-.056.308-.112.462-.182a7.956,7.956,0,0,1,2.926-.7h.014a6,6,0,0,1,5.013,2.52l.364.56-.532.392a4.471,4.471,0,0,0-2.114,3.654,4.129,4.129,0,0,0,2.3,3.809C279.751,129.231,280.1,129.441,280.1,129.889Z" transform="translate(-214.414 -112.484)" fill="#cdbfba"/>
    </g>
  </g>
</svg>
