<svg id="developer" xmlns="http://www.w3.org/2000/svg" width="56.889" height="50" viewBox="0 0 56.889 50">
  <path id="Path_68" data-name="Path 68" d="M56.783,72.081l-3.227-8.606V36a5.006,5.006,0,0,0-5-5H8.333a5.006,5.006,0,0,0-5,5V63.476L.106,72.081A1.665,1.665,0,0,0,0,72.667V76a5.006,5.006,0,0,0,5,5H51.889a5.006,5.006,0,0,0,5-5V72.667A1.665,1.665,0,0,0,56.783,72.081ZM6.667,36a1.669,1.669,0,0,1,1.667-1.667H48.556A1.669,1.669,0,0,1,50.222,36V62.111H6.667ZM6.155,65.444H50.734L52.817,71H4.072ZM53.556,76a1.669,1.669,0,0,1-1.667,1.667H5A1.669,1.669,0,0,1,3.333,76V74.333H53.556Z" transform="translate(0 -31)" fill="#fff"/>
  <path id="Path_69" data-name="Path 69" d="M319.041,121.641a1.708,1.708,0,1,0-2.667,2.133l3.7,4.625-3.7,4.625a1.708,1.708,0,1,0,2.667,2.133l4.554-5.692a1.707,1.707,0,0,0,0-2.133Z" transform="translate(-281.025 -111.099)" fill="#fff" opacity="0.4"/>
  <path id="Path_70" data-name="Path 70" d="M133.328,121.374a1.707,1.707,0,0,0-2.4.267l-4.554,5.692a1.707,1.707,0,0,0,0,2.133l4.554,5.692a1.708,1.708,0,1,0,2.667-2.133l-3.7-4.625,3.7-4.625A1.708,1.708,0,0,0,133.328,121.374Z" transform="translate(-112.054 -111.099)" fill="#fff" opacity="0.4"/>
  <path id="Path_71" data-name="Path 71" d="M227.649,86.043a1.708,1.708,0,0,0-2.053,1.271l-4.554,19.353a1.708,1.708,0,0,0,3.324.782L228.92,88.1A1.707,1.707,0,0,0,227.649,86.043Z" transform="translate(-196.536 -79.736)" fill="#fff" opacity="0.4"/>
</svg>
