<svg xmlns="http://www.w3.org/2000/svg" width="50" height="50" viewBox="0 0 50 50">
  <g id="teleworking" transform="translate(0 0.001)">
    <path id="Path_138" data-name="Path 138" d="M71.231,12.949a1.462,1.462,0,0,0,2.023.441l.672-.433V25.92a1.466,1.466,0,0,0,1.464,1.467h27.327a1.466,1.466,0,0,0,1.464-1.467V12.957l.672.433a1.466,1.466,0,0,0,1.583-2.468L89.845.232a1.461,1.461,0,0,0-1.583,0L71.671,10.922A1.469,1.469,0,0,0,71.231,12.949ZM95.4,24.452H82.71V22.985a2.445,2.445,0,0,1,2.44-2.445h7.808a2.445,2.445,0,0,1,2.44,2.445ZM86.614,15.16V13.2a2.44,2.44,0,1,1,4.88,0V15.16a2.44,2.44,0,1,1-4.88,0Zm-9.76-4.09,12.2-7.86,12.2,7.86V24.452H98.325V22.985A5.384,5.384,0,0,0,93.8,17.672a5.354,5.354,0,0,0,.623-2.512V13.2a5.368,5.368,0,1,0-10.736,0V15.16a5.354,5.354,0,0,0,.623,2.512,5.384,5.384,0,0,0-4.527,5.313v1.467H76.854Z" transform="translate(-64.054)" fill="#fff"/>
    <path id="Path_139" data-name="Path 139" d="M336.047,321.848a5.344,5.344,0,0,0,.624-2.512V317.38a5.38,5.38,0,1,0-10.759,0v1.956a5.345,5.345,0,0,0,.624,2.512A5.388,5.388,0,0,0,322,327.161V330.1a1.467,1.467,0,0,0,1.467,1.467h15.65a1.467,1.467,0,0,0,1.467-1.467v-2.934A5.388,5.388,0,0,0,336.047,321.848Zm-7.2-4.468a2.445,2.445,0,1,1,4.891,0v1.956a2.445,2.445,0,0,1-4.891,0Zm8.8,11.248H324.934v-1.467a2.448,2.448,0,0,1,2.445-2.445H335.2a2.448,2.448,0,0,1,2.445,2.445Z" transform="translate(-290.584 -281.563)" fill="#fff"/>
    <path id="Path_140" data-name="Path 140" d="M14.047,321.848a5.344,5.344,0,0,0,.624-2.512V317.38a5.38,5.38,0,1,0-10.759,0v1.956a5.345,5.345,0,0,0,.624,2.512A5.388,5.388,0,0,0,0,327.161V330.1a1.467,1.467,0,0,0,1.467,1.467h15.65a1.467,1.467,0,0,0,1.467-1.467v-2.934A5.388,5.388,0,0,0,14.047,321.848Zm-7.2-4.468a2.445,2.445,0,1,1,4.891,0v1.956a2.445,2.445,0,0,1-4.891,0Zm8.8,11.248H2.934v-1.467a2.448,2.448,0,0,1,2.445-2.445H13.2a2.448,2.448,0,0,1,2.445,2.445Z" transform="translate(0 -281.563)" fill="#fff"/>
    <path id="Path_141" data-name="Path 141" d="M207.846,315.75v-4.283a1.467,1.467,0,0,0-2.934,0v4.283l-3.483,3.483a1.467,1.467,0,0,0,2.075,2.075l2.875-2.875,2.875,2.875a1.467,1.467,0,0,0,2.075-2.075Z" transform="translate(-181.379 -279.742)" fill="#fff" opacity="0.4"/>
  </g>
</svg>
