<svg id="cellphone" xmlns="http://www.w3.org/2000/svg" width="30.273" height="50" viewBox="0 0 30.273 50">
  <path id="Path_72" data-name="Path 72" d="M125.9,0H106.371A5.377,5.377,0,0,0,101,5.371V44.629A5.377,5.377,0,0,0,106.371,50H125.9a5.377,5.377,0,0,0,5.371-5.371V5.371A5.377,5.377,0,0,0,125.9,0ZM106.371,2.93H125.9a2.444,2.444,0,0,1,2.441,2.441V37.3H103.93V5.371A2.444,2.444,0,0,1,106.371,2.93ZM125.9,47.07H106.371a2.444,2.444,0,0,1-2.441-2.441V40.234h24.414v4.395A2.444,2.444,0,0,1,125.9,47.07Z" transform="translate(-101)" fill="#fff"/>
  <path id="Path_73" data-name="Path 73" d="M226.371,432h-3.906a1.465,1.465,0,0,0,0,2.93h3.906a1.465,1.465,0,0,0,0-2.93Z" transform="translate(-209.281 -389.813)" fill="#fff"/>
  <path id="Path_74" data-name="Path 74" d="M162.465,82.742H164.1a6.311,6.311,0,0,0,.774,1.865l-1.159,1.159a1.465,1.465,0,1,0,2.071,2.072l1.159-1.159a6.311,6.311,0,0,0,1.865.774V89.09a1.465,1.465,0,0,0,2.93,0V87.453a6.311,6.311,0,0,0,1.865-.774l1.159,1.159a1.465,1.465,0,0,0,2.071-2.072l-1.159-1.159a6.311,6.311,0,0,0,.774-1.865h1.637a1.465,1.465,0,1,0,0-2.93h-1.637a6.311,6.311,0,0,0-.774-1.865l1.159-1.159a1.465,1.465,0,0,0-2.072-2.072l-1.159,1.159a6.311,6.311,0,0,0-1.865-.774V73.465a1.465,1.465,0,0,0-2.93,0V75.1a6.311,6.311,0,0,0-1.865.774l-1.159-1.159a1.465,1.465,0,0,0-2.072,2.072l1.159,1.159a6.312,6.312,0,0,0-.774,1.865h-1.637a1.465,1.465,0,0,0,0,2.93Zm7.813-4.883a3.418,3.418,0,1,1-3.418,3.418A3.422,3.422,0,0,1,170.277,77.859Z" transform="translate(-155.141 -64.969)" fill="#fff" opacity="0.4"/>
  <path id="Path_75" data-name="Path 75" d="M210.277,292h-7.812a1.465,1.465,0,0,0,0,2.93h7.813a1.465,1.465,0,0,0,0-2.93Z" transform="translate(-191.234 -263.484)" fill="#fff"/>
</svg>
