<svg xmlns="http://www.w3.org/2000/svg" width="40.039" height="50" viewBox="0 0 40.039 50">
  <g id="security" transform="translate(-51)">
    <path id="Path_135" data-name="Path 135" d="M90.61,16.152,86.7,12.246a1.465,1.465,0,0,0-1.036-.429H81.273V4.395A4.4,4.4,0,0,0,76.879,0H55.395A4.4,4.4,0,0,0,51,4.395V45.605A4.4,4.4,0,0,0,55.395,50H76.879a4.4,4.4,0,0,0,4.395-4.395v-7.93a16.992,16.992,0,0,0,9.766-15.381V17.188A1.465,1.465,0,0,0,90.61,16.152ZM69.964,2.93l-.977,2.93h-5.7L62.31,2.93Zm8.38,42.676a1.467,1.467,0,0,1-1.465,1.465H55.395a1.467,1.467,0,0,1-1.465-1.465V4.395A1.467,1.467,0,0,1,55.395,2.93h3.827l1.619,4.858a1.465,1.465,0,0,0,1.39,1h7.812a1.465,1.465,0,0,0,1.39-1L73.052,2.93h3.827a1.467,1.467,0,0,1,1.465,1.465v7.422H73.949a1.465,1.465,0,0,0-1.036.429l-3.906,3.906a1.465,1.465,0,0,0-.429,1.036v5.107a16.992,16.992,0,0,0,9.766,15.381Zm9.766-23.311a14,14,0,0,1-8.3,12.833,14,14,0,0,1-8.3-12.833v-4.5l3.048-3.048H85.061l3.048,3.048Z" fill="#fff"/>
    <path id="Path_136" data-name="Path 136" d="M297.357,207.29l-4.523,4.523-1.74-1.74a1.476,1.476,0,0,0-2.088,2.088l2.784,2.784a1.476,1.476,0,0,0,2.088,0l5.567-5.567a1.476,1.476,0,0,0-2.087-2.088Z" transform="translate(-214.504 -186.688)" fill="#fff" opacity="0.4"/>
    <path id="Path_137" data-name="Path 137" d="M168.381,422h-5.9a1.476,1.476,0,0,0,0,2.952h5.9a1.476,1.476,0,0,0,0-2.952Z" transform="translate(-99.281 -380.857)" fill="#fff" opacity="0.4"/>
  </g>
</svg>
