<svg id="cloud-data" xmlns="http://www.w3.org/2000/svg" width="49.805" height="50" viewBox="0 0 49.805 50">
  <path id="Path_129" data-name="Path 129" d="M122.465,419.93h7.775a1.465,1.465,0,0,0,0-2.93h-7.775a1.465,1.465,0,0,0,0,2.93Z" transform="translate(-109.281 -376.277)" fill="#fff" opacity="0.4"/>
  <path id="Path_130" data-name="Path 130" d="M122.465,283.93h7.775a1.465,1.465,0,0,0,0-2.93h-7.775a1.465,1.465,0,0,0,0,2.93Z" transform="translate(-109.281 -253.559)" fill="#fff" opacity="0.4"/>
  <path id="Path_131" data-name="Path 131" d="M43.09,14.16q-.279,0-.556.02a10.063,10.063,0,0,0-9.972-7.044A14.072,14.072,0,0,0,20.434,0,14.081,14.081,0,0,0,6.971,10.338a10.061,10.061,0,0,0-.5,18.144V48.535A1.465,1.465,0,0,0,7.934,50H43.871a1.465,1.465,0,0,0,1.465-1.465V29.254A7.714,7.714,0,0,0,43.09,14.16Zm-.684,32.91H9.4V36.627H42.406Zm0-13.384H9.4V23.34H42.406Zm2.93-7.586V21.875a1.465,1.465,0,0,0-1.465-1.465H7.934a1.465,1.465,0,0,0-1.465,1.465v3.119A7.137,7.137,0,0,1,8.7,12.8a1.465,1.465,0,0,0,.947-1.074,11.137,11.137,0,0,1,10.788-8.8A11.147,11.147,0,0,1,30.4,9.311a1.465,1.465,0,0,0,1.528.819,7.189,7.189,0,0,1,1.009-.071,7.088,7.088,0,0,1,7.043,6.017,1.465,1.465,0,0,0,1.837,1.186A4.786,4.786,0,0,1,45.336,26.1Z" transform="translate(-1)" fill="#fff"/>
  <circle id="Ellipse_26" data-name="Ellipse 26" cx="2" cy="2" r="2" transform="translate(29 27)" fill="#fff" opacity="0.4"/>
  <circle id="Ellipse_27" data-name="Ellipse 27" cx="2" cy="2" r="2" transform="translate(35 27)" fill="#fff" opacity="0.4"/>
  <ellipse id="Ellipse_28" data-name="Ellipse 28" cx="2" cy="1.5" rx="2" ry="1.5" transform="translate(29 41)" fill="#fff" opacity="0.4"/>
  <ellipse id="Ellipse_29" data-name="Ellipse 29" cx="2" cy="1.5" rx="2" ry="1.5" transform="translate(35 41)" fill="#fff" opacity="0.4"/>
</svg>
