<svg id="slow-motion" xmlns="http://www.w3.org/2000/svg" width="50" height="50" viewBox="0 0 50 50">
  <path id="Path_121" data-name="Path 121" d="M6.411,94a1.465,1.465,0,0,0-1.065.563A25.157,25.157,0,0,0,.012,106.708a1.465,1.465,0,0,0,1.454,1.647H7.59a1.465,1.465,0,0,0,1.444-1.221,16.239,16.239,0,0,1,2.848-6.633,1.465,1.465,0,0,0-.157-1.886L7.538,94.428A1.465,1.465,0,0,0,6.411,94ZM6.4,105.425H3.206a22.405,22.405,0,0,1,3.469-7.716L8.8,99.835A18.879,18.879,0,0,0,6.4,105.425Z" transform="translate(-0.001 -84.82)" fill="#fff"/>
  <path id="Path_122" data-name="Path 122" d="M.013,272.648a25.158,25.158,0,0,0,5.333,12.143,1.465,1.465,0,0,0,2.192.137l4.187-4.187a1.465,1.465,0,0,0,.157-1.886,16.241,16.241,0,0,1-2.847-6.633A1.465,1.465,0,0,0,7.59,271H1.466a1.465,1.465,0,0,0-1.454,1.646ZM6.4,273.932a18.876,18.876,0,0,0,2.4,5.59l-2.126,2.126a22.41,22.41,0,0,1-3.469-7.716Z" transform="translate(-0.001 -244.537)" fill="#fff"/>
  <path id="Path_123" data-name="Path 123" d="M107.859.368a1.466,1.466,0,0,0-1.151-.355A25.157,25.157,0,0,0,94.565,5.346a1.465,1.465,0,0,0-.137,2.192l4.187,4.187a1.465,1.465,0,0,0,1.886.157,16.241,16.241,0,0,1,6.633-2.847,1.465,1.465,0,0,0,1.221-1.444V1.466a1.464,1.464,0,0,0-.5-1.1ZM105.425,6.4a18.876,18.876,0,0,0-5.59,2.4L97.709,6.676a22.407,22.407,0,0,1,7.716-3.469Z" transform="translate(-84.819 -0.002)" fill="#fff"/>
  <path id="Path_124" data-name="Path 124" d="M100.5,387.828a1.465,1.465,0,0,0-1.886.157l-4.187,4.187a1.465,1.465,0,0,0,.137,2.192,25.157,25.157,0,0,0,12.143,5.333,1.465,1.465,0,0,0,1.646-1.454V392.12a1.465,1.465,0,0,0-1.221-1.444A16.24,16.24,0,0,1,100.5,387.828Zm4.924,8.675a22.4,22.4,0,0,1-7.716-3.469l2.126-2.126a18.872,18.872,0,0,0,5.59,2.4Z" transform="translate(-84.819 -349.709)" fill="#fff"/>
  <path id="Path_125" data-name="Path 125" d="M294.536,25A25.238,25.238,0,0,0,288.2,8.325,24.867,24.867,0,0,0,272.648.012,1.465,1.465,0,0,0,271,1.465V7.589a1.465,1.465,0,0,0,1.221,1.444A16.365,16.365,0,0,1,285.747,25a16.365,16.365,0,0,1-13.525,15.967A1.465,1.465,0,0,0,271,42.411v6.124a1.465,1.465,0,0,0,1.646,1.454A25.278,25.278,0,0,0,294.536,25ZM273.931,46.809v-3.2a19.129,19.129,0,0,0,0-37.214v-3.2A22.541,22.541,0,0,1,291.606,25,22.541,22.541,0,0,1,273.931,46.809Z" transform="translate(-244.536 0)" fill="#fff"/>
  <path id="Path_126" data-name="Path 126" d="M198.58,161.255a1.465,1.465,0,0,0-.711-1.256L183.22,151.21A1.465,1.465,0,0,0,181,152.466v17.578a1.465,1.465,0,0,0,2.218,1.256l14.648-8.789A1.465,1.465,0,0,0,198.58,161.255Zm-14.648,6.2v-12.4l10.336,6.2Z" transform="translate(-163.326 -136.255)" fill="#fff" opacity="0.4"/>
</svg>
