<svg xmlns="http://www.w3.org/2000/svg" width="24" height="24" viewBox="0 0 24 24">
  <g id="Group_34" data-name="Group 34" transform="translate(-568 -1137)">
    <g id="tick-circle_bulk" data-name="tick-circle/bulk" transform="translate(568 1137)">
      <g id="vuesax_bulk_tick-circle" data-name="vuesax/bulk/tick-circle">
        <g id="tick-circle">
          <path id="Vector" d="M20,10A10,10,0,1,1,10,0,10,10,0,0,1,20,10Z" transform="translate(2 2)" fill="#1d77b8" opacity="0.4"/>
          <path id="Vector-2" data-name="Vector" d="M3.578,7.168a.749.749,0,0,1-.53-.22L.218,4.117a.75.75,0,0,1,1.06-1.06l2.3,2.3L8.718.218a.75.75,0,0,1,1.06,1.06l-5.67,5.67A.749.749,0,0,1,3.578,7.168Z" transform="translate(7.002 8.413)" fill="#1d77b8"/>
          <path id="Vector-3" data-name="Vector" d="M0,0H24V24H0Z" fill="none" opacity="0"/>
        </g>
      </g>
    </g>
  </g>
</svg>
