<svg width="482" height="376" viewBox="0 0 482 376" fill="none" xmlns="http://www.w3.org/2000/svg"><g id="undraw_responsive_re_e1nn"><g id="translate_3" style=" transform-origin: center; transform-box: fill-box; animation: translateXR 2s linear infinite alternate-reverse;"><path id="Path 175" d="M480.609 12.924H356.717V20.894C356.716 21.3025 356.858 21.6985 357.117 22.014C356.867 28.244 356.717 36.197 356.717 44.839V257.921C356.717 277.894 357.517 294.144 358.501 294.144H478.828C479.81 294.144 480.611 277.894 480.611 257.921V44.839C480.611 36.197 480.465 28.239 480.211 22.014C480.471 21.6985 480.612 21.3025 480.611 20.894L480.609 12.924Z" fill="white"/><path id="Path 176" d="M478.828 295.007H358.501C357.563 295.007 356.944 295.007 356.38 283.566C356.042 276.7 355.855 267.593 355.855 257.922V44.84C355.855 36.487 355.996 28.369 356.255 21.981C356.415 18.145 356.599 15.073 356.801 12.848C357.201 8.49198 357.573 7.75598 358.501 7.75598H478.828C479.758 7.75598 480.134 8.49198 480.528 12.848C480.728 15.082 480.914 18.154 481.073 21.98C481.329 28.362 481.473 36.48 481.473 44.839V257.922C481.473 267.593 481.287 276.7 480.949 283.566C480.385 295.007 479.766 295.007 478.828 295.007ZM358.99 293.284H478.338C478.961 290.929 479.749 278.145 479.749 257.923V44.84C479.749 36.503 479.608 28.41 479.349 22.051C479.19 18.251 479.009 15.208 478.809 13.003C478.732 11.8183 478.57 10.6406 478.325 9.47897H358.998C358.753 10.6406 358.591 11.8183 358.514 13.003C358.314 15.203 358.133 18.245 357.974 22.051C357.719 28.416 357.574 36.509 357.574 44.84V257.922C357.574 278.144 358.362 290.929 358.986 293.283L358.99 293.284Z" fill="#E4E4E4"/><path id="Path 177" d="M478.829 8.61603H358.501C358.028 8.61682 357.575 8.80504 357.24 9.13943C356.906 9.47383 356.718 9.92712 356.717 10.4V20.895C356.716 21.3035 356.858 21.6995 357.117 22.015C357.285 22.2215 357.496 22.3881 357.736 22.5028C357.976 22.6175 358.238 22.6773 358.504 22.678H478.829C479.095 22.6773 479.357 22.6175 479.597 22.5028C479.837 22.3881 480.048 22.2215 480.216 22.015C480.475 21.6995 480.617 21.3035 480.616 20.895V10.4C480.615 9.9266 480.427 9.47285 480.092 9.13837C479.757 8.80389 479.302 8.61603 478.829 8.61603V8.61603Z" fill="#CACACA"/><path id="Ellipse 90" d="M367.074 17.668C368.473 17.668 369.607 16.5339 369.607 15.135C369.607 13.7361 368.473 12.602 367.074 12.602C365.675 12.602 364.541 13.7361 364.541 15.135C364.541 16.5339 365.675 17.668 367.074 17.668Z" fill="white"/><path id="Ellipse 91" d="M376.688 17.668C378.087 17.668 379.221 16.5339 379.221 15.135C379.221 13.7361 378.087 12.602 376.688 12.602C375.289 12.602 374.155 13.7361 374.155 15.135C374.155 16.5339 375.289 17.668 376.688 17.668Z" fill="white"/><path id="Ellipse 92" d="M386.302 17.668C387.701 17.668 388.835 16.5339 388.835 15.135C388.835 13.7361 387.701 12.602 386.302 12.602C384.903 12.602 383.769 13.7361 383.769 15.135C383.769 16.5339 384.903 17.668 386.302 17.668Z" fill="white"/><path id="Path 178" d="M469.41 11.753H458.337C458.12 11.7546 457.913 11.8414 457.76 11.9947C457.607 12.148 457.52 12.3554 457.519 12.572C457.516 12.6952 457.545 12.8171 457.605 12.925C457.671 13.0637 457.774 13.181 457.904 13.2632C458.033 13.3455 458.184 13.3895 458.337 13.39H469.409C469.564 13.3907 469.716 13.3474 469.847 13.265C469.978 13.1827 470.083 13.0648 470.15 12.925C470.203 12.8149 470.229 12.694 470.227 12.572C470.227 12.4644 470.206 12.3578 470.165 12.2584C470.124 12.159 470.064 12.0687 469.987 11.9926C469.911 11.9165 469.821 11.8562 469.722 11.8151C469.622 11.774 469.516 11.7529 469.408 11.753H469.41Z" fill="white"/><path id="Path 179" d="M469.41 14.829H458.337C458.125 14.8364 457.924 14.9259 457.776 15.0786C457.629 15.2313 457.547 15.4352 457.547 15.6475C457.547 15.8597 457.629 16.0637 457.776 16.2164C457.924 16.3691 458.125 16.4586 458.337 16.466H469.409C469.621 16.4586 469.822 16.3691 469.97 16.2164C470.117 16.0637 470.199 15.8597 470.199 15.6475C470.199 15.4352 470.117 15.2313 469.97 15.0786C469.822 14.9259 469.621 14.8364 469.409 14.829H469.41Z" fill="white"/><path id="Path 180" d="M469.41 17.905H458.337C458.125 17.9124 457.924 18.0019 457.776 18.1546C457.629 18.3073 457.547 18.5113 457.547 18.7235C457.547 18.9358 457.629 19.1398 457.776 19.2924C457.924 19.4451 458.125 19.5346 458.337 19.542H469.409C469.621 19.5346 469.822 19.4451 469.97 19.2924C470.117 19.1398 470.199 18.9358 470.199 18.7235C470.199 18.5113 470.117 18.3073 469.97 18.1546C469.822 18.0019 469.621 17.9124 469.409 17.905H469.41Z" fill="white"/><path id="Path 181" d="M430.636 45.684H407.854C406.712 45.6845 405.616 46.1386 404.808 46.9464C404.001 47.7541 403.547 48.8496 403.546 49.992V69.724C403.548 70.866 404.002 71.9607 404.81 72.7682C405.617 73.5757 406.712 74.0301 407.854 74.032H430.635C431.777 74.0286 432.87 73.5736 433.677 72.7664C434.485 71.9592 434.94 70.8655 434.943 69.724V49.992C434.941 48.85 434.487 47.7553 433.679 46.9478C432.872 46.1403 431.777 45.6858 430.635 45.684H430.636Z" fill="#1D77B8"/><path id="Path 182" d="M458.941 86.922H379.541C379.022 86.922 378.525 87.1281 378.158 87.4949C377.791 87.8617 377.585 88.3592 377.585 88.878C377.585 89.3968 377.791 89.8943 378.158 90.2611C378.525 90.6279 379.022 90.834 379.541 90.834H458.941C459.46 90.834 459.957 90.6279 460.324 90.2611C460.691 89.8943 460.897 89.3968 460.897 88.878C460.897 88.3592 460.691 87.8617 460.324 87.4949C459.957 87.1281 459.46 86.922 458.941 86.922V86.922Z" fill="#E4E4E4"/><path id="Path 183" d="M409.699 96.089H379.542C379.023 96.089 378.526 96.2951 378.159 96.6619C377.792 97.0287 377.586 97.5262 377.586 98.045C377.586 98.5638 377.792 99.0613 378.159 99.4281C378.526 99.7949 379.023 100.001 379.542 100.001H409.699C410.218 100.001 410.715 99.7949 411.082 99.4281C411.449 99.0613 411.655 98.5638 411.655 98.045C411.655 97.5262 411.449 97.0287 411.082 96.6619C410.715 96.2951 410.218 96.089 409.699 96.089Z" fill="#E4E4E4"/><path id="Path 184" d="M430.636 130.986H407.854C406.712 130.987 405.616 131.441 404.808 132.248C404.001 133.056 403.547 134.152 403.546 135.294V155.026C403.548 156.168 404.002 157.263 404.81 158.07C405.617 158.878 406.712 159.332 407.854 159.334H430.635C431.777 159.331 432.87 158.876 433.677 158.068C434.485 157.261 434.94 156.167 434.943 155.026V135.294C434.941 134.152 434.487 133.057 433.679 132.25C432.872 131.442 431.777 130.988 430.635 130.986H430.636Z" fill="#1D77B8"/><path id="Path 185" d="M458.941 172.223H379.541C379.022 172.223 378.525 172.429 378.158 172.796C377.791 173.163 377.585 173.66 377.585 174.179C377.585 174.698 377.791 175.195 378.158 175.562C378.525 175.929 379.022 176.135 379.541 176.135H458.941C459.46 176.135 459.957 175.929 460.324 175.562C460.691 175.195 460.897 174.698 460.897 174.179C460.897 173.66 460.691 173.163 460.324 172.796C459.957 172.429 459.46 172.223 458.941 172.223Z" fill="#E4E4E4"/><path id="Path 186" d="M409.699 181.391H379.542C379.285 181.391 379.031 181.442 378.794 181.54C378.556 181.638 378.341 181.782 378.159 181.964C377.977 182.146 377.833 182.361 377.735 182.598C377.637 182.836 377.586 183.09 377.586 183.347C377.586 183.604 377.637 183.858 377.735 184.096C377.833 184.333 377.977 184.548 378.159 184.73C378.341 184.912 378.556 185.056 378.794 185.154C379.031 185.252 379.285 185.303 379.542 185.303H409.699C409.956 185.303 410.21 185.252 410.448 185.154C410.685 185.056 410.901 184.912 411.082 184.73C411.264 184.548 411.408 184.333 411.506 184.096C411.604 183.858 411.655 183.604 411.655 183.347C411.655 183.09 411.604 182.836 411.506 182.598C411.408 182.361 411.264 182.146 411.082 181.964C410.901 181.782 410.685 181.638 410.448 181.54C410.21 181.442 409.956 181.391 409.699 181.391V181.391Z" fill="#E4E4E4"/><path id="Path 187" d="M430.636 216.287H407.854C406.712 216.288 405.616 216.742 404.808 217.549C404.001 218.357 403.547 219.453 403.546 220.595V240.327C403.548 241.469 404.002 242.564 404.81 243.371C405.617 244.179 406.712 244.633 407.854 244.635H430.635C431.777 244.632 432.87 244.177 433.677 243.369C434.485 242.562 434.94 241.468 434.943 240.327V220.595C434.941 219.453 434.487 218.358 433.679 217.551C432.872 216.743 431.777 216.289 430.635 216.287H430.636Z" fill="#1D77B8"/><path id="Path 188" d="M458.941 257.525H379.541C379.022 257.525 378.525 257.731 378.158 258.098C377.791 258.465 377.585 258.962 377.585 259.481C377.585 260 377.791 260.497 378.158 260.864C378.525 261.231 379.022 261.437 379.541 261.437H458.941C459.46 261.437 459.957 261.231 460.324 260.864C460.691 260.497 460.897 260 460.897 259.481C460.897 258.962 460.691 258.465 460.324 258.098C459.957 257.731 459.46 257.525 458.941 257.525Z" fill="#E4E4E4"/><path id="Path 189" d="M409.699 266.693H379.542C379.023 266.693 378.526 266.899 378.159 267.266C377.792 267.633 377.586 268.13 377.586 268.649C377.586 269.168 377.792 269.665 378.159 270.032C378.526 270.399 379.023 270.605 379.542 270.605H409.699C410.218 270.605 410.715 270.399 411.082 270.032C411.449 269.665 411.655 269.168 411.655 268.649C411.655 268.13 411.449 267.633 411.082 267.266C410.715 266.899 410.218 266.693 409.699 266.693Z" fill="#E4E4E4"/></g><g id="translate_2" style=" transform-origin: center; transform-box: fill-box; animation: translateX 2s linear infinite alternate-reverse;"><path id="Path 163" d="M7.30305 255.812C9.1522 250.466 8.91832 244.619 6.64805 239.438C6.42305 238.925 7.23107 238.602 7.45607 239.115C9.80849 244.511 10.0395 250.596 8.10304 256.155C7.91804 256.685 7.12005 256.339 7.30305 255.812Z" fill="white"/><g id="Group 179"><path id="Path 190" d="M322.931 2.646C322.93 2.17309 322.742 1.7198 322.408 1.38541C322.073 1.05101 321.62 0.862793 321.147 0.862H2.64704C2.17414 0.862793 1.72085 1.05101 1.38645 1.38541C1.05206 1.7198 0.863839 2.17309 0.863045 2.646V13.141C0.86169 13.5778 1.02485 13.9991 1.32005 14.321C1.03605 21.447 0.863045 30.839 0.863045 41.126V277.998C0.863045 300.211 1.66304 318.271 2.64704 318.271H321.153C322.135 318.271 322.936 300.211 322.936 277.998V41.126C322.936 30.838 322.764 21.446 322.479 14.321C322.774 13.9991 322.938 13.5778 322.936 13.141L322.931 2.646Z" fill="white"/><g id="Group 178"><path id="Path 191" d="M321.149 319.132H2.64902C1.67502 319.132 1.08802 319.132 0.528015 306.502C0.190015 298.872 0.00402832 288.749 0.00402832 278.002V41.126C0.00402832 31.211 0.167036 21.679 0.462036 14.286C1.02804 -4.76837e-06 1.67302 0 2.65002 0H321.15C322.126 0 322.772 -4.76837e-06 323.338 14.286C323.633 21.672 323.795 31.204 323.795 41.126V277.998C323.795 288.75 323.609 298.873 323.271 306.498C322.711 319.132 322.122 319.132 321.149 319.132ZM3.14902 317.409H320.649C321.349 314.709 322.074 299.539 322.074 277.998V41.126C322.074 31.226 321.912 21.719 321.618 14.355C321.259 5.305 320.84 2.555 320.64 1.724H3.15802C2.95802 2.551 2.53902 5.305 2.18002 14.355C1.88602 21.726 1.72403 31.233 1.72403 41.126V277.998C1.72403 299.539 2.44402 314.707 3.14902 317.409Z" fill="#E4E4E4"/><path id="Path 192" d="M321.153 0.862H2.65302C2.18012 0.862793 1.72683 1.05101 1.39243 1.38541C1.05804 1.7198 0.86982 2.17309 0.869027 2.646V13.141C0.867672 13.5778 1.03083 13.9991 1.32603 14.321C1.49188 14.5096 1.69602 14.6606 1.92484 14.7641C2.15366 14.8675 2.4019 14.921 2.65302 14.921H321.153C321.404 14.921 321.652 14.8675 321.881 14.7641C322.11 14.6606 322.314 14.5096 322.48 14.321C322.775 13.999 322.938 13.5777 322.936 13.141V2.646C322.935 2.17327 322.747 1.72012 322.413 1.38576C322.079 1.05139 321.626 0.863057 321.153 0.862V0.862Z" fill="#CACACA"/><path id="Ellipse 90_2" d="M11.219 9.91298C12.618 9.91298 13.752 8.77892 13.752 7.37998C13.752 5.98105 12.618 4.84698 11.219 4.84698C9.8201 4.84698 8.68604 5.98105 8.68604 7.37998C8.68604 8.77892 9.8201 9.91298 11.219 9.91298Z" fill="white"/><path id="Ellipse 91_2" d="M20.833 9.91298C22.232 9.91298 23.366 8.77892 23.366 7.37998C23.366 5.98105 22.232 4.84698 20.833 4.84698C19.4341 4.84698 18.3 5.98105 18.3 7.37998C18.3 8.77892 19.4341 9.91298 20.833 9.91298Z" fill="white"/><path id="Ellipse 92_2" d="M30.447 9.91298C31.8459 9.91298 32.98 8.77892 32.98 7.37998C32.98 5.98105 31.8459 4.84698 30.447 4.84698C29.0481 4.84698 27.914 5.98105 27.914 7.37998C27.914 8.77892 29.0481 9.91298 30.447 9.91298Z" fill="white"/><path id="Path 193" d="M311.731 3.998H300.659C300.549 3.99416 300.44 4.01249 300.337 4.05189C300.234 4.0913 300.141 4.15097 300.062 4.22735C299.982 4.30374 299.919 4.39527 299.877 4.49649C299.834 4.59771 299.811 4.70653 299.811 4.81649C299.811 4.92646 299.834 5.0353 299.877 5.13652C299.919 5.23774 299.982 5.32927 300.062 5.40565C300.141 5.48204 300.234 5.54171 300.337 5.58111C300.44 5.62052 300.549 5.63885 300.659 5.63501H311.731C311.841 5.63885 311.95 5.62052 312.053 5.58111C312.156 5.54171 312.249 5.48204 312.329 5.40565C312.408 5.32927 312.471 5.23774 312.514 5.13652C312.557 5.0353 312.579 4.92646 312.579 4.81649C312.579 4.70653 312.557 4.59771 312.514 4.49649C312.471 4.39527 312.408 4.30374 312.329 4.22735C312.249 4.15097 312.156 4.0913 312.053 4.05189C311.95 4.01249 311.841 3.99416 311.731 3.998V3.998Z" fill="white"/><path id="Path 194" d="M311.731 7.07399H300.659C300.549 7.07014 300.44 7.08846 300.337 7.12787C300.234 7.16727 300.141 7.22694 300.062 7.30333C299.982 7.37971 299.919 7.47124 299.877 7.57246C299.834 7.67368 299.811 7.78252 299.811 7.89248C299.811 8.00244 299.834 8.11129 299.877 8.21251C299.919 8.31373 299.982 8.40524 300.062 8.48163C300.141 8.55801 300.234 8.61768 300.337 8.65709C300.44 8.69649 300.549 8.71482 300.659 8.71098H311.731C311.841 8.71482 311.95 8.69649 312.053 8.65709C312.156 8.61768 312.249 8.55801 312.329 8.48163C312.408 8.40524 312.471 8.31373 312.514 8.21251C312.557 8.11129 312.579 8.00244 312.579 7.89248C312.579 7.78252 312.557 7.67368 312.514 7.57246C312.471 7.47124 312.408 7.37971 312.329 7.30333C312.249 7.22694 312.156 7.16727 312.053 7.12787C311.95 7.08846 311.841 7.07014 311.731 7.07399Z" fill="white"/><path id="Path 195" d="M311.731 10.15H300.659C300.549 10.1461 300.44 10.1645 300.337 10.2039C300.234 10.2433 300.141 10.3029 300.062 10.3793C299.982 10.4557 299.919 10.5472 299.877 10.6485C299.834 10.7497 299.811 10.8585 299.811 10.9685C299.811 11.0784 299.834 11.1873 299.877 11.2885C299.919 11.3897 299.982 11.4812 300.062 11.5576C300.141 11.634 300.234 11.6937 300.337 11.7331C300.44 11.7725 300.549 11.7908 300.659 11.787H311.731C311.841 11.7908 311.95 11.7725 312.053 11.7331C312.156 11.6937 312.249 11.634 312.329 11.5576C312.408 11.4812 312.471 11.3897 312.514 11.2885C312.557 11.1873 312.579 11.0784 312.579 10.9685C312.579 10.8585 312.557 10.7497 312.514 10.6485C312.471 10.5472 312.408 10.4557 312.329 10.3793C312.249 10.3029 312.156 10.2433 312.053 10.2039C311.95 10.1645 311.841 10.1461 311.731 10.15Z" fill="white"/><path id="Path 196" d="M105.594 53.439H68.319C66.4505 53.4413 64.6592 54.1847 63.338 55.5059C62.0167 56.8272 61.2734 58.6185 61.271 60.487V92.772C61.2734 94.6405 62.0167 96.4318 63.338 97.7531C64.6592 99.0743 66.4505 99.8176 68.319 99.82H105.594C107.463 99.8176 109.254 99.0743 110.575 97.7531C111.896 96.4318 112.64 94.6405 112.642 92.772V60.487C112.64 58.6186 111.896 56.8275 110.575 55.5063C109.254 54.1851 107.463 53.4416 105.595 53.439H105.594Z" fill="#1D77B8"/><path id="Path 197" d="M259.334 65.924H129.418C128.569 65.924 127.755 66.2612 127.155 66.8613C126.555 67.4614 126.218 68.2753 126.218 69.124C126.218 69.9727 126.555 70.7866 127.155 71.3867C127.755 71.9869 128.569 72.324 129.418 72.324H259.334C260.183 72.324 260.997 71.9869 261.597 71.3867C262.197 70.7866 262.534 69.9727 262.534 69.124C262.534 68.2753 262.197 67.4614 261.597 66.8613C260.997 66.2612 260.183 65.924 259.334 65.924V65.924Z" fill="#E4E4E4"/><path id="Path 198" d="M178.764 80.925H129.423C128.574 80.925 127.76 81.2621 127.16 81.8622C126.56 82.4624 126.223 83.2763 126.223 84.125C126.223 84.9737 126.56 85.7876 127.16 86.3877C127.76 86.9878 128.574 87.325 129.423 87.325H178.769C179.618 87.325 180.432 86.9878 181.032 86.3877C181.632 85.7876 181.969 84.9737 181.969 84.125C181.969 83.2763 181.632 82.4624 181.032 81.8622C180.432 81.2621 179.618 80.925 178.769 80.925H178.764Z" fill="#E4E4E4"/><path id="Path 199" d="M105.594 139.602H68.319C66.4505 139.604 64.6592 140.348 63.338 141.669C62.0167 142.99 61.2734 144.781 61.271 146.65V178.935C61.2734 180.804 62.0167 182.595 63.338 183.916C64.6592 185.237 66.4505 185.981 68.319 185.983H105.594C107.463 185.981 109.254 185.237 110.575 183.916C111.896 182.595 112.64 180.804 112.642 178.935V146.65C112.64 144.781 111.896 142.99 110.575 141.669C109.254 140.348 107.463 139.604 105.594 139.602V139.602Z" fill="#1D77B8"/><path id="Path 200" d="M259.334 152.087H129.418C128.569 152.087 127.755 152.424 127.155 153.024C126.555 153.624 126.218 154.438 126.218 155.287C126.218 156.136 126.555 156.95 127.155 157.55C127.755 158.15 128.569 158.487 129.418 158.487H259.334C260.183 158.487 260.997 158.15 261.597 157.55C262.197 156.95 262.534 156.136 262.534 155.287C262.534 154.438 262.197 153.624 261.597 153.024C260.997 152.424 260.183 152.087 259.334 152.087V152.087Z" fill="#E4E4E4"/><path id="Path 201" d="M178.764 167.088H129.423C128.574 167.088 127.76 167.425 127.16 168.025C126.56 168.625 126.223 169.439 126.223 170.288C126.223 171.137 126.56 171.951 127.16 172.551C127.76 173.151 128.574 173.488 129.423 173.488H178.769C179.618 173.488 180.432 173.151 181.032 172.551C181.632 171.951 181.969 171.137 181.969 170.288C181.969 169.439 181.632 168.625 181.032 168.025C180.432 167.425 179.618 167.088 178.769 167.088H178.764Z" fill="#E4E4E4"/><path id="Path 202" d="M105.594 225.765H68.319C66.4505 225.767 64.6592 226.511 63.338 227.832C62.0167 229.153 61.2734 230.944 61.271 232.813V265.098C61.2734 266.967 62.0167 268.758 63.338 270.079C64.6592 271.4 66.4505 272.144 68.319 272.146H105.594C107.463 272.144 109.254 271.4 110.575 270.079C111.896 268.758 112.64 266.967 112.642 265.098V232.813C112.64 230.944 111.896 229.153 110.575 227.832C109.254 226.511 107.463 225.767 105.594 225.765V225.765Z" fill="#1D77B8"/><path id="Path 203" d="M259.334 238.251H129.418C128.569 238.251 127.755 238.588 127.155 239.188C126.555 239.788 126.218 240.602 126.218 241.451C126.218 242.3 126.555 243.114 127.155 243.714C127.755 244.314 128.569 244.651 129.418 244.651H259.334C260.183 244.651 260.997 244.314 261.597 243.714C262.197 243.114 262.534 242.3 262.534 241.451C262.534 240.602 262.197 239.788 261.597 239.188C260.997 238.588 260.183 238.251 259.334 238.251V238.251Z" fill="#E4E4E4"/><path id="Path 204" d="M178.764 253.252H129.423C128.574 253.252 127.76 253.589 127.16 254.189C126.56 254.789 126.223 255.603 126.223 256.452C126.223 257.301 126.56 258.115 127.16 258.715C127.76 259.315 128.574 259.652 129.423 259.652H178.769C179.618 259.652 180.432 259.315 181.032 258.715C181.632 258.115 181.969 257.301 181.969 256.452C181.969 255.603 181.632 254.789 181.032 254.189C180.432 253.589 179.618 253.252 178.769 253.252H178.764Z" fill="#E4E4E4"/></g></g></g><g id="translate_1" style=" transform-origin: center; transform-box: fill-box; animation: translateY 2s linear infinite alternate-reverse;"><path id="Path 205" d="M377.639 375.139H164.26C163.276 375.139 162.476 360.018 162.476 341.429V143.137C162.476 124.548 163.276 109.427 164.26 109.427H377.639C378.623 109.427 379.423 124.548 379.423 143.137V341.429C379.423 360.018 378.623 375.139 377.639 375.139Z" fill="white"/><path id="Path 206" d="M378.02 376H164.637C163.737 376 163.082 376 162.516 365.3C162.178 358.911 161.992 350.433 161.992 341.428V143.137C161.992 134.137 162.178 125.654 162.516 119.266C163.082 108.566 163.735 108.566 164.637 108.566H378.02C378.92 108.566 379.575 108.566 380.141 119.266C380.479 125.655 380.665 134.133 380.665 143.137V341.428C380.665 350.433 380.479 358.911 380.141 365.3C379.579 376 378.922 376 378.02 376ZM165.114 374.277H377.544C378.162 372.045 378.944 360.151 378.944 341.429V143.137C378.944 124.414 378.163 112.521 377.544 110.288H165.115C164.497 112.52 163.715 124.414 163.715 143.137V341.428C163.715 360.151 164.495 372.044 165.115 374.277H165.114Z" fill="#E4E4E4"/><path id="Path 207" d="M378.019 123.49H164.64C164.167 123.489 163.714 123.301 163.379 122.967C163.045 122.632 162.857 122.179 162.856 121.706V111.211C162.857 110.738 163.045 110.285 163.379 109.95C163.714 109.616 164.167 109.428 164.64 109.427H378.019C378.492 109.428 378.945 109.616 379.28 109.95C379.614 110.285 379.803 110.738 379.803 111.211V121.705C379.803 122.178 379.615 122.632 379.28 122.967C378.946 123.301 378.492 123.489 378.019 123.49Z" fill="#CACACA"/><path id="Ellipse 90_3" d="M173.206 118.479C174.605 118.479 175.739 117.345 175.739 115.946C175.739 114.547 174.605 113.413 173.206 113.413C171.807 113.413 170.673 114.547 170.673 115.946C170.673 117.345 171.807 118.479 173.206 118.479Z" fill="white"/><path id="Ellipse 91_3" d="M182.82 118.479C184.219 118.479 185.353 117.345 185.353 115.946C185.353 114.547 184.219 113.413 182.82 113.413C181.421 113.413 180.287 114.547 180.287 115.946C180.287 117.345 181.421 118.479 182.82 118.479Z" fill="white"/><path id="Ellipse 92_3" d="M192.434 118.479C193.833 118.479 194.967 117.345 194.967 115.946C194.967 114.547 193.833 113.413 192.434 113.413C191.035 113.413 189.901 114.547 189.901 115.946C189.901 117.345 191.035 118.479 192.434 118.479Z" fill="white"/><path id="Path 208" d="M368.599 114.203H357.528C357.311 114.203 357.102 114.117 356.948 113.963C356.794 113.809 356.708 113.6 356.708 113.383C356.708 113.166 356.794 112.957 356.948 112.803C357.102 112.649 357.311 112.563 357.528 112.563H368.599C368.817 112.563 369.025 112.649 369.179 112.803C369.333 112.957 369.419 113.166 369.419 113.383C369.419 113.6 369.333 113.809 369.179 113.963C369.025 114.117 368.817 114.203 368.599 114.203V114.203Z" fill="white"/><path id="Path 209" d="M368.599 117.278H357.528C357.311 117.278 357.102 117.192 356.948 117.038C356.794 116.884 356.708 116.675 356.708 116.458C356.708 116.241 356.794 116.032 356.948 115.878C357.102 115.724 357.311 115.638 357.528 115.638H368.599C368.817 115.638 369.025 115.724 369.179 115.878C369.333 116.032 369.419 116.241 369.419 116.458C369.419 116.675 369.333 116.884 369.179 117.038C369.025 117.192 368.817 117.278 368.599 117.278V117.278Z" fill="white"/><path id="Path 210" d="M368.599 120.353H357.528C357.311 120.353 357.102 120.267 356.948 120.113C356.794 119.959 356.708 119.75 356.708 119.533C356.708 119.316 356.794 119.107 356.948 118.953C357.102 118.799 357.311 118.713 357.528 118.713H368.599C368.817 118.713 369.025 118.799 369.179 118.953C369.333 119.107 369.419 119.316 369.419 119.533C369.419 119.75 369.333 119.959 369.179 120.113C369.025 120.267 368.817 120.353 368.599 120.353Z" fill="white"/><g id="Group 176"><path id="Path 211" d="M230.206 188.873H202.984C201.619 188.871 200.311 188.329 199.346 187.363C198.38 186.398 197.838 185.09 197.836 183.725V160.148C197.838 158.783 198.38 157.475 199.346 156.51C200.311 155.544 201.619 155.002 202.984 155H230.206C231.571 155.002 232.879 155.544 233.844 156.51C234.81 157.475 235.352 158.783 235.354 160.148V183.725C235.352 185.09 234.81 186.398 233.844 187.363C232.879 188.329 231.571 188.871 230.206 188.873V188.873Z" fill="#1D89D6"/><path id="Path 212" d="M342.48 168.796H247.604C246.984 168.796 246.39 168.55 245.952 168.112C245.513 167.673 245.267 167.079 245.267 166.459C245.267 165.839 245.513 165.245 245.952 164.806C246.39 164.368 246.984 164.122 247.604 164.122H342.478C343.098 164.122 343.692 164.368 344.131 164.806C344.569 165.245 344.815 165.839 344.815 166.459C344.815 167.079 344.569 167.673 344.131 168.112C343.692 168.55 343.098 168.796 342.478 168.796H342.48Z" fill="#E4E4E4"/><path id="Path 213" d="M283.64 179.75H247.604C246.984 179.75 246.39 179.504 245.952 179.065C245.513 178.627 245.267 178.033 245.267 177.413C245.267 176.793 245.513 176.199 245.952 175.76C246.39 175.322 246.984 175.076 247.604 175.076H283.639C283.946 175.076 284.25 175.136 284.533 175.254C284.817 175.371 285.075 175.543 285.292 175.76C285.509 175.978 285.681 176.235 285.798 176.519C285.916 176.802 285.976 177.106 285.976 177.413C285.976 177.72 285.916 178.024 285.798 178.307C285.681 178.591 285.509 178.848 285.292 179.065C285.075 179.283 284.817 179.455 284.533 179.572C284.25 179.69 283.946 179.75 283.639 179.75H283.64Z" fill="#E4E4E4"/></g><g id="Group 177"><path id="Path 217" d="M230.206 328.873H202.984C201.619 328.871 200.311 328.328 199.346 327.363C198.38 326.398 197.838 325.09 197.836 323.725V300.148C197.838 298.783 198.38 297.475 199.346 296.51C200.311 295.544 201.619 295.002 202.984 295H230.206C231.571 295.002 232.879 295.544 233.844 296.51C234.81 297.475 235.352 298.783 235.354 300.148V323.725C235.352 325.09 234.81 326.398 233.844 327.363C232.879 328.328 231.571 328.871 230.206 328.873Z" fill="#1D89D6"/><path id="Path 218" d="M342.48 308.796H247.604C246.984 308.796 246.39 308.55 245.952 308.111C245.513 307.673 245.267 307.079 245.267 306.459C245.267 305.839 245.513 305.245 245.952 304.806C246.39 304.368 246.984 304.122 247.604 304.122H342.478C343.098 304.122 343.692 304.368 344.131 304.806C344.569 305.245 344.815 305.839 344.815 306.459C344.815 307.079 344.569 307.673 344.131 308.111C343.692 308.55 343.098 308.796 342.478 308.796H342.48Z" fill="#E4E4E4"/><path id="Path 219" d="M283.64 319.751H247.604C246.984 319.751 246.39 319.505 245.952 319.067C245.513 318.628 245.267 318.034 245.267 317.414C245.267 316.794 245.513 316.2 245.952 315.761C246.39 315.323 246.984 315.077 247.604 315.077H283.639C284.259 315.077 284.853 315.323 285.292 315.761C285.73 316.2 285.976 316.794 285.976 317.414C285.976 318.034 285.73 318.628 285.292 319.067C284.853 319.505 284.259 319.751 283.639 319.751H283.64Z" fill="#E4E4E4"/></g><g id="translate_logo" style=" transform-origin: center; transform-box: fill-box; animation: translateXR 2s linear infinite alternate-reverse;"><g id="Logo"><g id="Group 1"><path id="Path 1" fill-rule="evenodd" clip-rule="evenodd" d="M284.54 250.527C284.54 250.836 284.34 250.902 284.23 251.048C283.663 251.832 283.781 252.462 284.602 252.897C285.901 253.455 287.29 253.777 288.702 253.847C294.564 254.685 300.532 254.418 306.296 253.059C306.825 252.884 307.389 252.838 307.939 252.927C308.489 253.016 309.01 253.237 309.457 253.57C310.706 254.387 312.014 255.111 313.371 255.734C312.331 256.335 311.228 256.819 310.082 257.177C305.372 258.865 300.395 259.685 295.393 259.599C291.59 259.629 287.812 258.973 284.242 257.662C283.053 257.26 281.964 256.605 281.052 255.742C279.86 254.527 279.886 253.352 281.169 252.252C282.165 251.456 283.312 250.869 284.54 250.527Z" fill="#004A76"/><path id="Path 2" fill-rule="evenodd" clip-rule="evenodd" d="M322.265 233.103C320.852 234.098 319.565 235.263 318.182 236.165C317.199 236.701 316.135 237.073 315.032 237.265C309.552 238.649 303.951 239.495 298.307 239.791C292.966 240.142 287.604 240.029 282.282 239.455C279.241 239.257 276.255 238.555 273.444 237.378C273.101 237.221 272.777 237.026 272.476 236.798C272.226 236.657 272.017 236.455 271.866 236.211C271.716 235.967 271.631 235.689 271.617 235.402C271.604 235.116 271.664 234.831 271.791 234.574C271.917 234.317 272.108 234.096 272.343 233.933C273.079 233.25 273.905 232.67 274.797 232.21C278.53 229.974 282.695 228.554 287.016 228.043C287.641 227.979 288.272 228.035 289.133 228.035C287.462 228.694 285.994 229.235 284.545 229.855C282.841 230.492 281.244 231.386 279.809 232.505C279.553 232.66 279.341 232.878 279.193 233.137C279.045 233.397 278.965 233.69 278.962 233.989C279.015 234.736 279.593 234.968 280.045 235.168C282.263 236.007 284.616 236.434 286.988 236.428C292.445 236.677 297.912 236.551 303.351 236.051C309.58 235.519 315.765 234.55 321.858 233.151C321.992 233.128 322.128 233.116 322.265 233.103Z" fill="#004A76"/><path id="Path 3" fill-rule="evenodd" clip-rule="evenodd" d="M281.015 239.5C280.723 239.965 280.515 240.281 280.315 240.615C279.389 242.204 279.704 243.484 281.174 244.145C282.026 244.524 282.927 244.779 283.851 244.903C291.861 246.088 300.012 245.939 307.974 244.464C309.787 244.114 311.591 243.678 313.391 243.231C313.702 243.128 314.037 243.126 314.35 243.223C314.663 243.321 314.937 243.514 315.134 243.776C316.19 244.986 317.498 245.951 318.966 246.601C317.613 247.307 316.174 247.836 314.686 248.174C309.318 249.768 303.779 250.717 298.186 250.999C292.297 251.468 286.372 250.864 280.699 249.216C279.119 248.782 277.652 248.01 276.399 246.954C276.043 246.691 275.752 246.349 275.548 245.956C275.345 245.563 275.234 245.128 275.224 244.686C275.214 244.243 275.306 243.804 275.493 243.402C275.679 243 275.955 242.647 276.299 242.368C277.637 241.072 279.248 240.092 281.015 239.5V239.5Z" fill="#1D77B8"/><path id="Path 4" d="M327.987 258.662C327.507 258.1 327.101 257.479 326.779 256.814C326.393 256.053 325.993 255.191 325.579 254.229C325.142 253.223 324.631 252.25 324.05 251.319C323.395 250.273 322.666 249.275 321.871 248.332C321.118 247.432 320.27 246.615 319.343 245.895C318.499 245.238 317.575 244.691 316.593 244.266C315.945 243.986 315.259 243.804 314.558 243.724L310.573 243.758L310.595 246.323C311.506 246.344 312.405 246.542 313.241 246.906C314.223 247.331 315.147 247.878 315.991 248.535C316.918 249.255 317.766 250.072 318.519 250.973C319.314 251.916 320.042 252.915 320.698 253.96C321.279 254.891 321.79 255.864 322.227 256.87C322.642 257.832 323.042 258.694 323.427 259.455C323.749 260.12 324.155 260.741 324.635 261.303C324.829 261.53 325.072 261.711 325.345 261.832C325.618 261.953 325.914 262.012 326.213 262.003C326.619 262 327.018 261.897 327.375 261.703C327.731 261.512 328.046 261.254 328.304 260.943C328.564 260.631 328.771 260.279 328.918 259.9C328.993 259.71 329.05 259.513 329.088 259.313C328.659 259.223 328.272 258.994 327.987 258.662V258.662Z" fill="#1D77B8"/><path id="Path 5" fill-rule="evenodd" clip-rule="evenodd" d="M311.491 246.176C312.035 245.157 313.037 244.758 313.856 244.146C316.939 242.039 319.62 239.397 321.772 236.346C323.015 234.623 323.684 232.553 323.685 230.429C323.523 225.923 318.829 222.729 314.33 224.021C313.598 224.231 312.885 224.5 312.122 224.755C312.141 224.507 312.231 224.27 312.38 224.071C312.53 223.873 312.734 223.721 312.967 223.635C316.326 221.7 321.267 221.235 324.898 223.635C328.851 226.241 329.706 231.051 327.025 235.441C325.043 238.427 322.36 240.883 319.212 242.595C317.112 243.856 314.903 244.927 312.612 245.795C312.243 245.93 311.865 246.047 311.491 246.176Z" fill="#1D77B8"/></g><g id="Group 2"><path id="Path 6" d="M218.033 232.069C219.19 231.996 219.768 231.796 219.768 231.469C219.765 231.435 219.753 231.402 219.733 231.374C219.713 231.346 219.685 231.324 219.654 231.31C219.578 231.264 219.485 231.214 219.376 231.161C219.267 231.108 219.146 231.047 219.014 230.978C218.882 230.909 218.76 230.822 218.652 230.72C218.539 230.613 218.445 230.487 218.374 230.348C218.294 230.185 218.255 230.005 218.26 229.823C218.259 229.557 218.348 229.298 218.513 229.09C218.702 228.855 218.934 228.658 219.197 228.51C219.512 228.33 219.848 228.188 220.197 228.089C220.595 227.973 221 227.887 221.411 227.831V229.11C220.965 229.153 220.525 229.251 220.103 229.402C219.832 229.517 219.697 229.651 219.697 229.802C219.699 229.838 219.711 229.872 219.731 229.902C219.751 229.932 219.779 229.956 219.811 229.971C219.887 230.017 219.98 230.067 220.089 230.12L220.451 230.293C220.583 230.356 220.705 230.438 220.813 230.536C220.924 230.638 221.018 230.756 221.091 230.888C221.171 231.042 221.211 231.214 221.205 231.388C221.201 231.621 221.134 231.849 221.012 232.047C220.863 232.287 220.663 232.492 220.427 232.647C220.122 232.85 219.788 233.005 219.436 233.108C218.981 233.243 218.51 233.319 218.036 233.336L218.033 232.069ZM226.508 234.706C226.508 235.049 226.518 235.347 226.538 235.598C226.548 235.819 226.615 236.034 226.731 236.222C226.854 236.398 227.032 236.527 227.237 236.589C227.551 236.68 227.877 236.72 228.203 236.708V239.408H227.743C227.25 239.422 226.759 239.322 226.311 239.116C225.926 238.929 225.617 238.616 225.434 238.229H225.375C225.087 238.529 224.739 238.766 224.354 238.923C223.933 239.095 223.494 239.222 223.046 239.3C222.538 239.389 222.025 239.442 221.51 239.459C220.961 239.479 220.39 239.489 219.795 239.489C219.18 239.489 218.577 239.481 217.986 239.464C217.395 239.447 216.837 239.404 216.314 239.335C215.822 239.276 215.336 239.173 214.862 239.028C214.452 238.906 214.068 238.708 213.732 238.443C213.498 238.262 213.297 238.043 213.137 237.794C212.979 237.547 212.849 237.282 212.75 237.006C212.65 236.726 212.579 236.438 212.537 236.144C212.494 235.849 212.473 235.55 212.473 235.252C212.471 234.797 212.505 234.343 212.573 233.894C212.64 233.451 212.731 233.012 212.846 232.576H214.967C214.914 232.821 214.868 233.04 214.828 233.235C214.788 233.43 214.755 233.611 214.728 233.78C214.698 233.949 214.677 234.112 214.664 234.271C214.651 234.43 214.645 234.592 214.644 234.757C214.64 235.021 214.674 235.285 214.744 235.54C214.83 235.801 214.999 236.027 215.225 236.184C215.419 236.327 215.635 236.438 215.864 236.511C216.176 236.61 216.496 236.677 216.821 236.711C217.204 236.757 217.66 236.788 218.189 236.805C218.718 236.822 219.345 236.83 220.072 236.83C220.944 236.83 221.659 236.818 222.218 236.795C222.666 236.789 223.111 236.724 223.543 236.604C223.817 236.535 224.055 236.368 224.212 236.133C224.351 235.861 224.416 235.556 224.4 235.251V224.129H226.511L226.508 234.706ZM227.908 240.435H233.231V241.585H227.908V240.435ZM229.514 239.404H228.203C228.09 239.404 227.979 239.369 227.886 239.304C227.794 239.24 227.723 239.148 227.683 239.042C227.554 238.73 227.495 238.393 227.51 238.056C227.495 237.719 227.554 237.382 227.683 237.07C227.723 236.964 227.794 236.872 227.886 236.808C227.979 236.743 228.09 236.708 228.203 236.708H229.611C229.878 236.708 230.109 236.698 230.305 236.678C230.479 236.666 230.648 236.611 230.796 236.519C230.932 236.423 231.033 236.286 231.083 236.127C231.155 235.888 231.186 235.638 231.177 235.389V230.681H233.288V235.459C233.31 236.131 233.204 236.802 232.976 237.435C232.801 237.897 232.515 238.309 232.143 238.635C231.795 238.926 231.384 239.132 230.943 239.235C230.474 239.348 229.994 239.404 229.512 239.404H229.514ZM231.714 228.689H229.383V226.598H231.712L231.714 228.689ZM235.104 228.689H232.773V226.598H235.102L235.104 228.689ZM234.983 240.881C235.346 241.02 235.685 241.135 235.999 241.228C236.313 241.321 236.609 241.397 236.886 241.456C237.148 241.513 237.412 241.554 237.679 241.58C237.93 241.603 238.178 241.615 238.422 241.615C238.816 241.624 239.21 241.57 239.587 241.456C239.876 241.366 240.147 241.225 240.387 241.04C240.592 240.88 240.764 240.681 240.893 240.455C241.012 240.246 241.103 240.023 241.166 239.791C241.179 239.745 241.194 239.681 241.211 239.598C241.228 239.515 241.243 239.434 241.256 239.355H240.364C239.283 239.429 238.212 239.107 237.351 238.448C236.995 238.117 236.716 237.711 236.537 237.259C236.357 236.807 236.28 236.32 236.311 235.835C236.313 235.287 236.406 234.742 236.584 234.224C236.754 233.708 237.001 233.22 237.317 232.777C237.609 232.366 237.975 232.012 238.397 231.736C238.782 231.478 239.234 231.339 239.697 231.336C240.198 231.331 240.688 231.483 241.097 231.772C241.585 232.143 241.993 232.608 242.297 233.14C242.607 233.644 242.849 234.188 243.016 234.756C243.205 235.393 243.333 236.047 243.398 236.709H245.152V239.409H243.368C243.29 240.087 243.121 240.752 242.868 241.386C242.642 241.961 242.313 242.49 241.897 242.947C241.485 243.391 240.983 243.742 240.425 243.978C239.797 244.236 239.122 244.363 238.443 244.35C238.166 244.35 237.891 244.337 237.62 244.31C237.342 244.282 237.065 244.238 236.792 244.176C236.511 244.113 236.222 244.034 235.925 243.938C235.628 243.842 235.314 243.725 234.983 243.587V240.881ZM241.099 235.994C241.02 235.756 240.927 235.522 240.821 235.294C240.724 235.081 240.608 234.877 240.474 234.684C240.362 234.52 240.225 234.375 240.068 234.253C239.942 234.151 239.785 234.093 239.622 234.089C239.445 234.091 239.274 234.151 239.136 234.262C238.982 234.379 238.847 234.519 238.736 234.678C238.625 234.837 238.535 235.01 238.468 235.193C238.407 235.346 238.373 235.509 238.368 235.674C238.347 235.85 238.381 236.027 238.464 236.183C238.548 236.339 238.677 236.466 238.834 236.546C239.277 236.714 239.749 236.788 240.222 236.764H241.273C241.246 236.645 241.22 236.516 241.194 236.377C241.171 236.247 241.139 236.119 241.099 235.994V235.994ZM246.461 239.404H245.153C245.04 239.404 244.929 239.369 244.836 239.304C244.744 239.24 244.673 239.148 244.633 239.042C244.504 238.73 244.445 238.393 244.46 238.056C244.445 237.719 244.504 237.382 244.633 237.07C244.673 236.964 244.744 236.872 244.836 236.808C244.929 236.743 245.04 236.708 245.153 236.708H246.561C246.803 236.71 247.045 236.698 247.285 236.673C247.458 236.659 247.625 236.602 247.771 236.509C247.904 236.413 248 236.275 248.044 236.117C248.108 235.88 248.136 235.634 248.128 235.388V230.68H250.243V234.705C250.243 235.048 250.253 235.346 250.273 235.597C250.283 235.818 250.35 236.033 250.466 236.221C250.589 236.397 250.767 236.526 250.972 236.588C251.286 236.679 251.612 236.719 251.938 236.707V239.407H251.482C250.974 239.421 250.47 239.328 250 239.135C249.604 238.966 249.284 238.657 249.1 238.268H249.043C248.884 238.487 248.69 238.678 248.468 238.833C248.263 238.975 248.042 239.091 247.809 239.18C247.587 239.264 247.356 239.324 247.12 239.358C246.902 239.389 246.682 239.404 246.461 239.404V239.404ZM250.161 242.834H247.832V240.742H250.161V242.834ZM253.244 239.404H251.933C251.82 239.404 251.709 239.369 251.616 239.304C251.524 239.24 251.453 239.148 251.413 239.042C251.284 238.73 251.225 238.393 251.24 238.056C251.225 237.719 251.284 237.382 251.413 237.07C251.453 236.964 251.524 236.872 251.616 236.808C251.709 236.743 251.82 236.708 251.933 236.708H253.343C253.61 236.708 253.841 236.698 254.037 236.678C254.211 236.666 254.38 236.611 254.528 236.519C254.664 236.423 254.765 236.286 254.815 236.127C254.887 235.888 254.918 235.638 254.909 235.389V230.681H257.02V235.459C257.042 236.132 256.935 236.802 256.706 237.435C256.531 237.897 256.245 238.309 255.873 238.635C255.525 238.926 255.114 239.132 254.673 239.235C254.205 239.347 253.725 239.404 253.243 239.404H253.244ZM254.679 242.735H252.35V240.643H254.679V242.735ZM258.069 242.735H255.743V240.643H258.072L258.069 242.735ZM258.713 241.248C259.169 241.381 259.551 241.475 259.858 241.53C260.137 241.583 260.421 241.611 260.705 241.614C261.158 241.634 261.609 241.538 262.014 241.335C262.341 241.157 262.614 240.895 262.807 240.577C263.006 240.239 263.14 239.865 263.199 239.477C263.269 239.041 263.302 238.6 263.299 238.159C263.3 237.716 263.271 237.274 263.213 236.835C263.148 236.372 263.058 235.912 262.943 235.459C262.824 234.983 262.677 234.481 262.502 233.952C262.327 233.423 262.127 232.845 261.902 232.217H264.243C264.448 232.726 264.628 233.241 264.783 233.763C264.938 234.285 265.069 234.807 265.175 235.329C265.281 235.851 265.36 236.363 265.413 236.865C265.465 237.346 265.491 237.829 265.492 238.312C265.511 239.232 265.382 240.149 265.11 241.028C264.896 241.717 264.545 242.356 264.08 242.908C263.671 243.383 263.158 243.756 262.58 243.998C262.009 244.233 261.397 244.353 260.78 244.35C260.459 244.35 260.138 244.318 259.823 244.256C259.445 244.178 259.074 244.07 258.713 243.935V241.248Z" fill="#004A76"/><path id="Path 7" opacity="0.5" d="M222.017 257.077L220.826 254.458C220.669 254.043 220.417 253.67 220.09 253.37C219.822 253.178 219.497 253.08 219.167 253.092H218.057V257.077H217.44V248.138H219.922C220.602 248.099 221.27 248.328 221.783 248.777C222.009 248.994 222.186 249.257 222.303 249.548C222.419 249.839 222.473 250.151 222.46 250.464C222.479 251.052 222.282 251.627 221.905 252.079C221.501 252.53 220.951 252.826 220.352 252.915V252.938C220.838 253.233 221.205 253.69 221.387 254.229L222.715 257.079L222.017 257.077ZM218.057 248.702V252.531H219.596C220.185 252.562 220.765 252.371 221.22 251.995C221.422 251.809 221.58 251.58 221.684 251.326C221.788 251.072 221.834 250.797 221.82 250.523C221.833 250.274 221.791 250.025 221.698 249.793C221.604 249.562 221.46 249.354 221.277 249.185C220.837 248.837 220.284 248.665 219.724 248.702H218.057ZM224.542 253.909C224.498 254.645 224.713 255.373 225.15 255.967C225.351 256.212 225.607 256.406 225.896 256.535C226.186 256.664 226.501 256.723 226.818 256.709C227.588 256.691 228.328 256.412 228.918 255.917V256.528C228.273 256.991 227.498 257.236 226.704 257.228C226.325 257.242 225.948 257.169 225.602 257.015C225.255 256.862 224.948 256.632 224.704 256.342C224.157 255.628 223.886 254.74 223.943 253.842C223.918 252.987 224.202 252.151 224.743 251.488C224.991 251.182 225.306 250.937 225.663 250.772C226.021 250.607 226.412 250.527 226.806 250.538C227.155 250.519 227.504 250.585 227.823 250.73C228.141 250.876 228.419 251.097 228.633 251.374C229.09 252.044 229.314 252.846 229.269 253.656V253.912L224.542 253.909ZM228.67 253.385C228.684 252.771 228.498 252.169 228.14 251.67C227.977 251.469 227.769 251.309 227.533 251.202C227.297 251.096 227.04 251.047 226.781 251.059C226.505 251.051 226.23 251.1 225.975 251.203C225.719 251.306 225.487 251.462 225.294 251.659C224.867 252.137 224.612 252.744 224.568 253.383L228.67 253.385ZM231.452 255.938H231.427V260.014H230.853V250.691H231.427V252.007H231.452C231.664 251.555 232.006 251.177 232.434 250.919C232.858 250.664 233.345 250.531 233.84 250.535C234.2 250.517 234.56 250.584 234.889 250.729C235.219 250.875 235.511 251.096 235.74 251.374C236.226 252.031 236.468 252.837 236.423 253.653C236.467 254.581 236.19 255.496 235.64 256.244C235.399 256.561 235.085 256.816 234.726 256.988C234.366 257.16 233.971 257.243 233.573 257.232C233.132 257.248 232.695 257.134 232.318 256.904C231.941 256.674 231.64 256.338 231.452 255.938V255.938ZM231.427 253.562V254.362C231.413 254.967 231.627 255.556 232.027 256.011C232.224 256.237 232.469 256.416 232.744 256.535C233.019 256.654 233.317 256.711 233.617 256.7C233.931 256.704 234.241 256.629 234.519 256.483C234.796 256.336 235.033 256.122 235.207 255.861C235.64 255.212 235.854 254.441 235.818 253.661C235.854 252.982 235.656 252.311 235.257 251.761C235.08 251.534 234.852 251.352 234.591 251.23C234.331 251.108 234.045 251.05 233.757 251.061C233.431 251.043 233.105 251.101 232.805 251.231C232.505 251.361 232.24 251.559 232.03 251.809C231.628 252.305 231.414 252.927 231.427 253.566V253.562ZM240.569 257.229C240.155 257.249 239.743 257.176 239.36 257.017C238.978 256.858 238.636 256.616 238.358 256.309C237.796 255.642 237.506 254.788 237.544 253.917C237.493 253.011 237.799 252.121 238.396 251.438C238.685 251.138 239.034 250.903 239.421 250.748C239.807 250.592 240.222 250.521 240.638 250.538C241.041 250.518 241.444 250.588 241.817 250.743C242.19 250.897 242.524 251.131 242.796 251.43C243.358 252.126 243.641 253.006 243.588 253.899C243.628 254.776 243.34 255.636 242.78 256.312C242.503 256.62 242.161 256.863 241.779 257.022C241.396 257.182 240.983 257.254 240.569 257.233V257.229ZM240.613 251.055C240.275 251.04 239.939 251.101 239.627 251.233C239.316 251.364 239.038 251.564 238.813 251.816C238.336 252.413 238.097 253.167 238.143 253.93C238.106 254.66 238.338 255.378 238.796 255.948C239.018 256.201 239.294 256.401 239.604 256.533C239.914 256.665 240.25 256.725 240.586 256.709C240.92 256.729 241.253 256.671 241.562 256.542C241.87 256.412 242.144 256.213 242.363 255.961C242.81 255.364 243.031 254.628 242.987 253.884C243.038 253.132 242.818 252.387 242.367 251.784C242.148 251.539 241.877 251.346 241.573 251.22C241.269 251.095 240.941 251.04 240.613 251.059V251.055ZM247.697 256.985C247.435 257.117 247.148 257.189 246.855 257.197C245.911 257.197 245.439 256.63 245.439 255.497V251.207H244.296V250.683H245.443V249.024C245.534 248.991 245.63 248.957 245.73 248.924C245.83 248.891 245.926 248.859 246.017 248.83V250.682H247.696V251.206H246.012V255.422C245.986 255.755 246.059 256.087 246.221 256.379C246.305 256.484 246.413 256.566 246.537 256.619C246.661 256.671 246.795 256.692 246.929 256.679C247.2 256.669 247.464 256.589 247.696 256.448L247.697 256.985ZM249.097 253.904C249.053 254.64 249.268 255.368 249.705 255.962C249.906 256.207 250.162 256.401 250.451 256.53C250.741 256.659 251.056 256.718 251.373 256.704C252.143 256.686 252.883 256.407 253.473 255.912V256.523C252.828 256.986 252.053 257.231 251.259 257.223C250.88 257.237 250.503 257.164 250.157 257.01C249.81 256.857 249.503 256.627 249.259 256.337C248.712 255.623 248.441 254.735 248.498 253.837C248.473 252.982 248.757 252.146 249.298 251.483C249.545 251.175 249.861 250.928 250.219 250.762C250.578 250.596 250.97 250.515 251.365 250.526C251.714 250.507 252.063 250.573 252.382 250.718C252.7 250.864 252.978 251.085 253.192 251.362C253.649 252.032 253.873 252.834 253.828 253.644V253.9L249.097 253.904ZM253.225 253.38C253.239 252.766 253.053 252.164 252.695 251.665C252.532 251.464 252.324 251.304 252.088 251.197C251.852 251.091 251.595 251.042 251.336 251.054C251.06 251.046 250.785 251.095 250.53 251.198C250.274 251.301 250.042 251.457 249.849 251.654C249.422 252.132 249.167 252.739 249.123 253.378L253.225 253.38ZM259.941 260.009V255.899H259.916C259.703 256.323 259.371 256.675 258.961 256.912C258.55 257.149 258.079 257.26 257.606 257.233C257.239 257.245 256.874 257.172 256.539 257.02C256.205 256.867 255.911 256.639 255.679 256.354C255.163 255.675 254.904 254.836 254.949 253.984C254.899 253.07 255.195 252.171 255.778 251.465C256.039 251.165 256.364 250.926 256.728 250.765C257.093 250.605 257.488 250.528 257.886 250.538C258.305 250.51 258.723 250.609 259.085 250.822C259.448 251.034 259.738 251.35 259.919 251.729H259.944V250.694H260.518V260.014L259.941 260.009ZM259.941 253.243C259.963 252.668 259.764 252.106 259.386 251.672C259.19 251.463 258.95 251.3 258.684 251.193C258.418 251.086 258.132 251.039 257.846 251.055C257.532 251.049 257.22 251.115 256.935 251.248C256.65 251.38 256.399 251.575 256.2 251.819C255.731 252.428 255.498 253.187 255.545 253.955C255.504 254.674 255.709 255.386 256.128 255.972C256.304 256.205 256.533 256.393 256.796 256.521C257.059 256.648 257.348 256.711 257.64 256.705C257.958 256.725 258.277 256.674 258.572 256.556C258.868 256.437 259.133 256.254 259.349 256.019C259.747 255.553 259.958 254.955 259.941 254.342V253.243Z" fill="#004A76"/></g></g></g></g></g><style> @keyframes translateY { 0%, 100% { transform: translateY(0px); } 50% { transform: translateY(-5px); } } @keyframes translateXR { 0%, 100% { transform: translateX(0px); } 50% { transform: translateX(-5px); } } @keyframes translateX { 0%, 100% { transform: translateX(0px); } 50% { transform: translateX(5px); } }</style></svg>