<svg width="467" height="362" viewBox="0 0 467 362" fill="none" xmlns="http://www.w3.org/2000/svg"><g id="Group 41 1" clip-path="url(#clip0_76_2)"><g id="Group 41"><path id="Rectangle 62" style="transform-origin: center; transform-box: fill-box; animation: translateYR 2s linear infinite;" d="M466.164 170.538H62.677V362H466.164V170.538Z" fill="#E6E6E6"/><path id="Rectangle 75" d="M454.627 186.956H74.215V346.698H454.627V186.956Z" fill="white"/><path id="Rectangle 76" style="transform-origin: center; transform-box: fill-box; animation: translateY 2s linear infinite;" d="M391.009 216.689H381.158V226.54H391.009V216.689Z" fill="#E6E6E6"/><path id="box" style="transform-origin: center; transform-box: fill-box; animation: pulsecust 2s linear infinite;" d="M128.259 213.506H118.408V223.357H128.259V213.506Z" fill="#1D89D6"/><path id="large_box" style="transform-origin: center; transform-box: fill-box; animation: translateX 2s linear infinite;" d="M150.959 244.906H118.123V277.742H150.959V244.906Z" fill="#E6E6E6"/><path id="Rectangle 80" d="M465.992 159.476H62.505V176.617H465.992V159.476Z" fill="#1D89D6"/><path id="Ellipse 90" d="M75.243 175.026C76.9976 175.026 78.42 173.604 78.42 171.849C78.42 170.094 76.9976 168.672 75.243 168.672C73.4884 168.672 72.066 170.094 72.066 171.849C72.066 173.604 73.4884 175.026 75.243 175.026Z" fill="white"/><path id="Ellipse 91" d="M87.302 175.026C89.0566 175.026 90.479 173.604 90.479 171.849C90.479 170.094 89.0566 168.672 87.302 168.672C85.5474 168.672 84.125 170.094 84.125 171.849C84.125 173.604 85.5474 175.026 87.302 175.026Z" fill="white"/><path id="Ellipse 92" d="M99.362 175.026C101.117 175.026 102.539 173.604 102.539 171.849C102.539 170.094 101.117 168.672 99.362 168.672C97.6074 168.672 96.185 170.094 96.185 171.849C96.185 173.604 97.6074 175.026 99.362 175.026Z" fill="white"/><path id="Rectangle 81" d="M265.462 248.19H185.014V252.808H265.462V248.19Z" fill="#E6E6E6"/><path id="translation" style="transform-origin: center; transform-box: fill-box; animation: translateX 3s linear infinite;" d="M309.244 265.035H185.014V269.653H309.244V265.035Z" fill="#0064AD"/><path id="Rectangle 83" d="M286.259 280.905H185.014V285.523H286.259V280.905Z" fill="#E6E6E6"/><path id="Rectangle 84" d="M244.119 296.717H185.014V301.335H244.119V296.717Z" fill="#E6E6E6"/><path id="Rectangle 85" d="M274.219 312.527H185.014V317.145H274.219V312.527Z" fill="#E6E6E6"/><path id="Rectangle 88" style="transform-origin: center; transform-box: fill-box; animation: pulsecust 2s linear infinite;" d="M407.975 216.689H398.124V226.54H407.975V216.689Z" fill="#E6E6E6"/><path id="Rectangle 90" style="transform-origin: center; transform-box: fill-box; animation: translateYR 2s linear infinite;" d="M424.941 216.689H415.09V226.54H424.941V216.689Z" fill="#E6E6E6"/><path id="puls" style="transform-origin: center; transform-box: fill-box; animation: pulsecust 2s linear infinite;" opacity="0.997" d="M404.934 301.334C415.982 301.334 424.939 292.377 424.939 281.329C424.939 270.281 415.982 261.324 404.934 261.324C393.886 261.324 384.929 270.281 384.929 281.329C384.929 292.377 393.886 301.334 404.934 301.334Z" fill="#0064AD"/><path id="Ellipse 97" d="M101.745 54.168C114.184 54.168 124.267 44.0845 124.267 31.646C124.267 19.2074 114.184 9.12396 101.745 9.12396C89.3065 9.12396 79.223 19.2074 79.223 31.646C79.223 44.0845 89.3065 54.168 101.745 54.168Z" fill="#1E1E1E"/><path id="Path 630" d="M45.696 224.348H35.832L31.14 186.311H45.694L45.696 224.348Z" fill="#FFEFE8"/><path id="Path 631" d="M28.791 221.531H47.809V233.506H16.816C16.816 230.33 18.0776 227.284 20.3234 225.038C22.5691 222.793 25.615 221.531 28.791 221.531Z" fill="#1E1E1E"/><path id="Path 632" d="M30.303 218.847L20.89 215.894L27.802 178.194L41.688 182.552L30.303 218.847Z" fill="#FFEFE8"/><path id="Path 633" d="M15.011 211.097L33.157 216.792L29.571 228.218L0 218.938C0.951168 215.908 3.067 213.38 5.88208 211.91C8.69716 210.44 11.9809 210.148 15.011 211.099V211.099V211.097Z" fill="#1E1E1E"/><path id="Path 634" d="M33.51 203.668C33.0793 203.668 32.6522 203.59 32.249 203.439L24.991 200.719C24.1763 200.411 23.4995 199.82 23.0839 199.055C22.6683 198.289 22.5416 197.4 22.727 196.549C24.554 188.336 30.779 160.376 34.187 145.378C38.229 127.589 97.204 124.284 99.712 124.152L99.918 124.141L106.552 132.474C108.952 140.179 108.189 146.189 104.294 150.338C92.926 162.438 58.986 154.931 54.939 153.981L36.901 201.337C36.6382 202.023 36.1736 202.613 35.5685 203.029C34.9634 203.445 34.2464 203.668 33.512 203.668H33.51Z" fill="#1E1E1E"/><path id="Path 635" d="M43.967 209.3C43.5363 209.3 43.1092 209.222 42.706 209.071L35.45 206.35C34.6353 206.042 33.9585 205.451 33.5429 204.686C33.1274 203.92 33.0007 203.031 33.186 202.18C35.013 193.967 41.238 166.007 44.646 151.01C48.688 133.221 107.663 129.916 110.171 129.784L110.377 129.773L117.009 138.109C119.409 145.814 118.646 151.824 114.751 155.973C103.383 168.073 69.443 160.566 65.396 159.615L47.355 206.969C47.0922 207.655 46.6276 208.245 46.0225 208.661C45.4175 209.077 44.7004 209.3 43.966 209.3H43.967Z" fill="#1E1E1E"/><path id="Path 636" d="M22.978 93.451C23.2445 93.8074 23.4826 94.1843 23.69 94.578L63.362 98.758L69.074 90.928L82.017 98.002L70.8 117.002L22.145 104.599C20.9174 105.796 19.3545 106.591 17.6642 106.878C15.9739 107.165 14.2363 106.93 12.6825 106.206C11.1287 105.481 9.83228 104.3 8.96574 102.821C8.0992 101.342 7.7036 99.6335 7.83153 97.9238C7.95945 96.2141 8.60485 94.5838 9.6819 93.2499C10.7589 91.9159 12.2166 90.9415 13.861 90.4561C15.5053 89.9708 17.2585 89.9976 18.8873 90.5329C20.516 91.0682 21.9432 92.0868 22.979 93.453L22.978 93.451Z" fill="#FEB8B8"/><path id="Path 637" d="M115.169 141.298C114.595 141.297 114.03 141.16 113.52 140.898C105.587 136.864 90.14 129.879 75.82 128.417C75.3298 128.369 74.855 128.219 74.4262 127.977C73.9974 127.734 73.624 127.405 73.33 127.01C73.0303 126.611 72.8162 126.154 72.7009 125.668C72.5856 125.182 72.5717 124.677 72.66 124.186C73.953 117.031 76.918 98.81 76.536 84.208C76.4236 79.7181 77.8422 75.3235 80.5586 71.7467C83.2751 68.1699 87.1276 65.6239 91.483 64.527V64.527C94.1042 63.8353 96.7665 63.3103 99.454 62.955C102.544 62.5637 105.683 62.9014 108.619 63.9412C111.554 64.981 114.206 66.694 116.361 68.9429C118.516 71.1918 120.114 73.9141 121.028 76.8917C121.941 79.8693 122.145 83.0196 121.622 86.09C119.068 101.223 116.492 122.359 118.731 137.114C118.834 137.776 118.752 138.453 118.494 139.071C118.235 139.688 117.811 140.223 117.268 140.614C116.658 141.058 115.923 141.298 115.169 141.298Z" fill="#1D89D6"/><path id="Path 638" d="M77.266 102.807C76.7715 102.806 76.2825 102.704 75.829 102.507L65.494 98.0339C64.6137 97.6517 63.9209 96.9359 63.5677 96.0435C63.2145 95.1511 63.2298 94.1551 63.61 93.2739L71.599 74.82C72.5574 72.5615 74.3736 70.7763 76.6483 69.857C77.7745 69.4018 78.9795 69.1729 80.1942 69.1833C81.409 69.1938 82.6097 69.4434 83.728 69.9179C84.8463 70.3925 85.8601 71.0826 86.7117 71.949C87.5632 72.8153 88.2358 73.8409 88.691 74.9672C89.1462 76.0935 89.3751 77.2984 89.3646 78.5132C89.3542 79.7279 89.1045 80.9287 88.63 82.0469L88.577 82.169L80.588 100.624C80.3068 101.272 79.8428 101.823 79.2527 102.211C78.6626 102.599 77.9722 102.807 77.266 102.808V102.807Z" fill="#1D89D6"/><path id="Ellipse 98" d="M100.922 56.674C111.833 56.674 120.678 47.8289 120.678 36.918C120.678 26.0071 111.833 17.162 100.922 17.162C90.0111 17.162 81.166 26.0071 81.166 36.918C81.166 47.8289 90.0111 56.674 100.922 56.674Z" fill="#FFEFE8"/><path id="Path 639" d="M80.811 27.2099C90.1691 32.9226 100.719 36.3987 111.64 37.3679L108.39 33.4749C110.756 34.3499 113.246 34.8444 115.767 34.9399C117.029 34.9765 118.282 34.7168 119.426 34.1815C120.569 33.6463 121.572 32.8505 122.352 31.8579C122.989 30.8273 123.367 29.6581 123.454 28.4498C123.541 27.2416 123.334 26.0302 122.852 24.9189C121.862 22.7008 120.321 20.7729 118.375 19.319C114.926 16.5908 110.856 14.7582 106.527 13.9846C102.198 13.2109 97.7453 13.5202 93.565 14.8849C90.6971 15.7419 88.1287 17.3895 86.154 19.6389C84.281 21.9499 80.676 24.0079 81.634 26.8239L80.811 27.2099Z" fill="#1E1E1E"/><path id="Path 640" d="M102.689 10.568C106.628 6.57294 111.396 3.49022 116.655 1.53698C119.992 0.132892 123.653 -0.321507 127.232 0.223974C130.761 0.933974 134.097 3.37498 135.082 6.83698C135.882 9.66798 135.056 12.716 133.807 15.382C132.558 18.048 130.89 20.518 129.88 23.282C128.849 26.1025 128.539 29.1359 128.978 32.1067C129.417 35.0774 130.591 37.8916 132.393 40.2936C134.196 42.6956 136.569 44.6093 139.299 45.8612C142.029 47.113 145.028 47.6633 148.024 47.462C144.557 47.927 141.362 49.556 137.973 50.423C134.584 51.29 130.585 51.232 128.067 48.803C125.403 46.234 125.349 42.058 125.478 38.36L126.052 21.866C126.152 19.066 126.233 16.166 125.222 13.551C124.211 10.936 121.808 8.64198 119.002 8.66598C116.876 8.68398 114.994 9.97199 113.288 11.243C111.582 12.514 109.778 13.868 107.66 14.058C105.542 14.248 103.124 12.682 103.282 10.558" fill="#1E1E1E"/><path id="Path 641" d="M67.708 136.223C66.3988 136.222 65.1063 135.93 63.9235 135.369C62.7406 134.808 61.697 133.991 60.8678 132.978C60.0386 131.965 59.4443 130.781 59.128 129.51C58.8116 128.24 58.7809 126.915 59.0382 125.631C59.2955 124.348 59.8343 123.137 60.6158 122.087C61.3973 121.037 62.402 120.173 63.5576 119.557C64.7132 118.942 65.9908 118.591 67.2985 118.529C68.6062 118.467 69.9114 118.696 71.12 119.199C71.4836 119.353 71.8362 119.531 72.175 119.734L108.164 103.578L109.175 93.817L124.688 93.402L124.588 109.652C124.569 111.535 123.944 113.361 122.805 114.86C121.665 116.359 120.073 117.451 118.264 117.973L76.176 129.949C76.0947 130.227 75.9989 130.5 75.889 130.768C75.2137 132.381 74.0776 133.759 72.6228 134.729C71.1681 135.699 69.4595 136.218 67.711 136.221L67.708 136.223Z" fill="#FFEFE8"/><path id="Path 642" d="M123.373 101.363C122.932 101.586 122.45 101.717 121.956 101.746L110.716 102.437C109.758 102.495 108.817 102.17 108.098 101.535C107.379 100.899 106.941 100.005 106.881 99.047L105.647 78.975C105.572 77.7625 105.737 76.5471 106.132 75.3984C106.528 74.2496 107.145 73.19 107.95 72.2799C108.754 71.3698 109.73 70.627 110.822 70.0941C111.914 69.5612 113.099 69.2485 114.312 69.1739C115.524 69.0994 116.74 69.2643 117.889 69.6594C119.037 70.0545 120.097 70.672 121.007 71.4766C121.917 72.2812 122.66 73.2572 123.193 74.3489C123.726 75.4405 124.038 76.6264 124.113 77.8389L125.347 97.911C125.39 98.6159 125.226 99.318 124.875 99.9312C124.525 100.544 124.003 101.042 123.374 101.363H123.373Z" fill="#1D89D6"/><path id="Rectangle 91" d="M99.981 132.621H34.361C33.379 132.621 32.583 133.417 32.583 134.399V136.473C32.583 137.455 33.379 138.251 34.361 138.251H99.981C100.963 138.251 101.759 137.455 101.759 136.473V134.399C101.759 133.417 100.963 132.621 99.981 132.621Z" fill="#0064AD"/><path id="Path 643" d="M6.78101 133.024V93.609C6.78286 92.223 7.33426 90.8943 8.3143 89.9143C9.29434 88.9342 10.623 88.3828 12.009 88.381H83.598C84.9841 88.3826 86.3129 88.9339 87.293 89.914C88.2731 90.8941 88.8244 92.2229 88.826 93.609V133.024C88.8244 134.41 88.2731 135.739 87.293 136.719C86.3129 137.699 84.9841 138.25 83.598 138.252H12.014C10.628 138.25 9.29934 137.699 8.31931 136.719C7.33927 135.739 6.78786 134.41 6.78601 133.024H6.78101Z" fill="#0064AD"/><path id="Ellipse 99" d="M48.67 118.144C51.3353 118.144 53.496 115.983 53.496 113.318C53.496 110.653 51.3353 108.492 48.67 108.492C46.0047 108.492 43.844 110.653 43.844 113.318C43.844 115.983 46.0047 118.144 48.67 118.144Z" fill="white"/><g id="translate" style="transform-origin: center; transform-box: fill-box; animation: translateY 3s linear infinite;"><g id="Logo"><g id="Group 1"><path id="translate_3" fill-rule="evenodd" clip-rule="evenodd" d="M221.881 228.068C221.881 228.224 221.781 228.257 221.725 228.33C221.44 228.725 221.499 229.042 221.912 229.261C222.566 229.542 223.265 229.704 223.976 229.739C226.927 230.16 229.932 230.024 232.833 229.339C233.099 229.251 233.383 229.228 233.66 229.273C233.937 229.317 234.199 229.428 234.424 229.596C235.053 230.007 235.712 230.371 236.395 230.685C235.871 230.988 235.316 231.231 234.739 231.412C232.368 232.261 229.862 232.674 227.344 232.631C225.43 232.646 223.528 232.316 221.731 231.656C221.132 231.454 220.584 231.124 220.125 230.69C219.984 230.588 219.871 230.453 219.795 230.297C219.718 230.142 219.681 229.969 219.687 229.796C219.693 229.622 219.741 229.453 219.828 229.302C219.915 229.152 220.037 229.025 220.184 228.933C220.686 228.533 221.263 228.239 221.881 228.068V228.068Z" fill="#004A76"/><path id="translate_2" fill-rule="evenodd" clip-rule="evenodd" d="M240.871 219.138C240.16 219.638 239.511 220.225 238.815 220.68C238.32 220.95 237.784 221.138 237.229 221.235C234.471 221.931 231.651 222.357 228.81 222.506C226.121 222.682 223.422 222.626 220.743 222.337C219.212 222.237 217.709 221.884 216.294 221.291C216.122 221.212 215.958 221.114 215.807 220.999C215.682 220.928 215.576 220.826 215.501 220.703C215.425 220.58 215.382 220.44 215.376 220.296C215.369 220.152 215.399 220.009 215.462 219.88C215.526 219.75 215.622 219.639 215.74 219.557C216.11 219.213 216.526 218.921 216.975 218.689C218.854 217.563 220.95 216.847 223.126 216.589C223.44 216.557 223.758 216.589 224.192 216.589C223.351 216.921 222.612 217.189 221.882 217.505C221.024 217.826 220.22 218.276 219.498 218.839C219.369 218.917 219.263 219.027 219.188 219.157C219.114 219.288 219.074 219.435 219.072 219.586C219.099 219.962 219.39 220.079 219.617 220.179C220.735 220.602 221.921 220.817 223.117 220.813C225.864 220.938 228.616 220.875 231.354 220.623C234.49 220.356 237.603 219.869 240.671 219.165C240.734 219.151 240.803 219.147 240.871 219.138Z" fill="#004A76"/><g id="translate_1"><path id="Path 3" fill-rule="evenodd" clip-rule="evenodd" d="M220.107 222.439C219.96 222.673 219.854 222.832 219.756 223C219.29 223.8 219.448 224.444 220.188 224.777C220.617 224.968 221.071 225.097 221.536 225.159C225.568 225.755 229.671 225.68 233.679 224.938C234.592 224.762 235.5 224.538 236.406 224.318C236.562 224.266 236.731 224.265 236.889 224.314C237.046 224.363 237.184 224.46 237.283 224.592C237.814 225.201 238.473 225.687 239.212 226.014C238.531 226.37 237.806 226.636 237.057 226.806C234.354 227.609 231.565 228.086 228.749 228.228C225.785 228.463 222.804 228.158 219.949 227.328C219.154 227.109 218.416 226.721 217.786 226.19C217.606 226.058 217.46 225.886 217.357 225.688C217.254 225.489 217.198 225.27 217.194 225.047C217.189 224.824 217.236 224.603 217.33 224.401C217.424 224.199 217.564 224.021 217.738 223.881C218.41 223.23 219.22 222.737 220.107 222.439V222.439Z" fill="#1D77B8"/><path id="Path 4" d="M243.752 232.164C243.51 231.881 243.306 231.569 243.144 231.234C242.95 230.851 242.75 230.417 242.544 229.934C242.324 229.427 242.066 228.938 241.774 228.469C241.443 227.944 241.075 227.443 240.674 226.969C240.295 226.516 239.868 226.104 239.401 225.742C238.976 225.411 238.51 225.136 238.016 224.922C237.69 224.781 237.345 224.689 236.992 224.649L234.986 224.666L234.997 225.957C235.456 225.968 235.908 226.067 236.329 226.25C236.823 226.464 237.289 226.739 237.714 227.07C238.181 227.432 238.608 227.844 238.987 228.297C239.388 228.771 239.756 229.272 240.087 229.797C240.38 230.266 240.637 230.755 240.857 231.262C241.066 231.746 241.266 232.179 241.457 232.562C241.619 232.897 241.823 233.209 242.065 233.492C242.163 233.606 242.285 233.697 242.422 233.757C242.56 233.818 242.709 233.847 242.859 233.843C243.063 233.842 243.264 233.791 243.444 233.694C243.623 233.598 243.782 233.468 243.912 233.311C244.043 233.154 244.147 232.976 244.221 232.786C244.259 232.689 244.287 232.588 244.306 232.486C244.091 232.442 243.896 232.329 243.752 232.164Z" fill="#1D77B8"/><path id="Path 5" fill-rule="evenodd" clip-rule="evenodd" d="M235.448 225.676C235.722 225.163 236.226 224.962 236.639 224.654C238.191 223.592 239.541 222.262 240.624 220.725C241.25 219.858 241.587 218.815 241.587 217.746C241.545 217.2 241.38 216.671 241.107 216.197C240.833 215.722 240.456 215.316 240.004 215.006C239.553 214.697 239.037 214.493 238.496 214.408C237.955 214.324 237.402 214.362 236.878 214.52C236.51 214.626 236.151 214.761 235.766 214.889C235.775 214.764 235.82 214.645 235.896 214.545C235.971 214.445 236.074 214.368 236.191 214.325C237.101 213.789 238.138 213.507 239.194 213.507C240.25 213.507 241.287 213.789 242.197 214.325C244.187 215.637 244.617 218.058 243.268 220.268C242.27 221.77 240.92 223.006 239.335 223.868C238.277 224.504 237.164 225.043 236.01 225.481C235.827 225.553 235.636 225.612 235.448 225.676Z" fill="#1D77B8"/></g></g><g id="Group 2"><path id="Path 6" d="M187.814 218.575C188.396 218.538 188.687 218.438 188.687 218.275C188.685 218.258 188.679 218.241 188.669 218.227C188.659 218.213 188.646 218.202 188.63 218.195C188.592 218.172 188.545 218.147 188.49 218.12C188.435 218.093 188.374 218.063 188.308 218.028C188.242 217.993 188.18 217.949 188.126 217.898C188.069 217.844 188.022 217.781 187.986 217.711C187.946 217.629 187.926 217.538 187.929 217.447C187.928 217.313 187.973 217.183 188.056 217.078C188.151 216.959 188.268 216.86 188.4 216.786C188.558 216.695 188.725 216.624 188.9 216.574C189.1 216.515 189.304 216.472 189.511 216.444V217.084C189.286 217.105 189.065 217.155 188.852 217.231C188.719 217.289 188.652 217.356 188.652 217.431C188.653 217.449 188.659 217.466 188.669 217.481C188.679 217.496 188.693 217.508 188.709 217.516C188.747 217.539 188.794 217.564 188.849 217.591L189.031 217.678C189.097 217.709 189.159 217.751 189.213 217.8C189.269 217.851 189.316 217.911 189.353 217.977C189.393 218.055 189.413 218.141 189.41 218.229C189.407 218.347 189.373 218.461 189.31 218.561C189.235 218.681 189.135 218.783 189.016 218.861C188.862 218.963 188.693 219.041 188.516 219.093C188.286 219.161 188.049 219.2 187.81 219.208L187.814 218.575ZM192.08 219.902C192.08 220.075 192.085 220.224 192.095 220.351C192.101 220.462 192.135 220.57 192.195 220.665C192.257 220.753 192.346 220.818 192.449 220.85C192.607 220.896 192.772 220.916 192.936 220.91V222.267H192.706C192.458 222.274 192.211 222.224 191.985 222.12C191.791 222.026 191.635 221.868 191.543 221.673H191.513C191.368 221.824 191.193 221.943 190.999 222.022C190.787 222.109 190.566 222.173 190.34 222.212C190.085 222.257 189.826 222.284 189.567 222.292C189.291 222.302 189.003 222.307 188.704 222.307C188.405 222.307 188.101 222.303 187.793 222.295C187.495 222.287 187.214 222.266 186.95 222.233C186.702 222.203 186.458 222.151 186.219 222.078C186.012 222.017 185.819 221.917 185.65 221.784C185.532 221.693 185.431 221.582 185.35 221.457C185.27 221.331 185.205 221.197 185.155 221.057C185.105 220.916 185.069 220.771 185.048 220.623C185.027 220.474 185.016 220.324 185.016 220.174C185.016 219.945 185.033 219.716 185.068 219.49C185.103 219.267 185.148 219.046 185.205 218.826H186.273C186.246 218.949 186.223 219.06 186.203 219.158C186.183 219.256 186.166 219.347 186.151 219.432C186.136 219.517 186.126 219.599 186.119 219.679C186.112 219.759 186.109 219.841 186.109 219.924C186.108 220.057 186.125 220.19 186.161 220.318C186.204 220.449 186.289 220.563 186.403 220.642C186.5 220.714 186.609 220.77 186.725 220.807C186.882 220.856 187.043 220.89 187.207 220.907C187.4 220.93 187.629 220.946 187.896 220.954C188.163 220.962 188.479 220.966 188.844 220.966C189.283 220.966 189.643 220.96 189.924 220.949C190.148 220.946 190.372 220.914 190.588 220.854C190.726 220.819 190.846 220.735 190.925 220.617C190.995 220.48 191.028 220.327 191.02 220.173V214.573H192.085L192.08 219.902ZM192.78 222.786H195.46V223.365H192.785L192.78 222.786ZM193.588 222.267H192.929C192.873 222.266 192.818 222.248 192.772 222.215C192.726 222.182 192.691 222.137 192.672 222.084C192.607 221.926 192.577 221.755 192.585 221.584C192.577 221.413 192.607 221.242 192.672 221.084C192.692 221.031 192.728 220.984 192.775 220.952C192.821 220.919 192.877 220.902 192.934 220.902H193.643C193.776 220.902 193.893 220.897 193.992 220.887C194.08 220.881 194.164 220.853 194.239 220.807C194.308 220.758 194.359 220.688 194.384 220.607C194.42 220.486 194.436 220.361 194.431 220.235V217.865H195.494V220.284C195.506 220.624 195.453 220.964 195.337 221.284C195.249 221.517 195.105 221.725 194.918 221.89C194.742 222.036 194.535 222.139 194.312 222.19C194.076 222.244 193.834 222.27 193.592 222.267H193.588ZM194.696 216.873H193.523V215.82H194.696V216.873ZM196.403 216.873H195.23V215.82H196.403V216.873ZM196.343 223.01C196.526 223.077 196.696 223.135 196.854 223.185C197.012 223.235 197.161 223.273 197.301 223.3C197.433 223.329 197.567 223.349 197.701 223.362C197.828 223.373 197.952 223.379 198.075 223.379C198.273 223.383 198.471 223.356 198.661 223.299C198.806 223.253 198.941 223.182 199.061 223.089C199.164 223.008 199.25 222.908 199.315 222.795C199.375 222.69 199.421 222.578 199.452 222.461C199.459 222.438 199.466 222.404 199.474 222.361C199.482 222.318 199.489 222.277 199.496 222.239H199.047C198.503 222.276 197.963 222.114 197.53 221.782C197.351 221.615 197.21 221.411 197.12 221.183C197.029 220.956 196.99 220.711 197.006 220.467C197.007 220.191 197.053 219.917 197.143 219.656C197.229 219.396 197.353 219.15 197.512 218.927C197.659 218.72 197.843 218.542 198.056 218.403C198.25 218.273 198.478 218.204 198.712 218.203C198.963 218.201 199.207 218.278 199.412 218.423C199.656 218.61 199.86 218.844 200.012 219.112C200.168 219.366 200.29 219.639 200.374 219.925C200.469 220.246 200.533 220.575 200.566 220.908H201.449V222.265H200.549C200.511 222.608 200.427 222.944 200.3 223.265C200.186 223.555 200.019 223.822 199.809 224.053C199.601 224.276 199.349 224.453 199.068 224.572C198.751 224.702 198.411 224.766 198.068 224.759C197.928 224.759 197.79 224.752 197.654 224.739C197.514 224.725 197.374 224.703 197.237 224.672C197.096 224.641 196.95 224.601 196.8 224.552C196.65 224.503 196.492 224.444 196.326 224.375L196.343 223.01ZM199.422 220.55C199.382 220.43 199.335 220.313 199.282 220.198C199.233 220.091 199.174 219.988 199.107 219.891C199.052 219.809 198.985 219.735 198.907 219.674C198.843 219.622 198.764 219.594 198.682 219.592C198.593 219.593 198.507 219.624 198.438 219.679C198.361 219.738 198.293 219.809 198.238 219.889C198.182 219.969 198.137 220.056 198.103 220.148C198.073 220.225 198.056 220.307 198.053 220.39C198.043 220.478 198.06 220.568 198.102 220.646C198.144 220.725 198.209 220.789 198.288 220.829C198.511 220.914 198.75 220.951 198.988 220.939H199.517C199.504 220.879 199.49 220.814 199.477 220.744C199.464 220.679 199.447 220.614 199.425 220.551L199.422 220.55ZM202.122 222.266H201.463C201.407 222.265 201.352 222.248 201.305 222.215C201.259 222.183 201.224 222.137 201.204 222.084C201.139 221.926 201.109 221.755 201.117 221.584C201.109 221.413 201.139 221.242 201.204 221.084C201.224 221.031 201.26 220.984 201.307 220.952C201.353 220.919 201.409 220.902 201.466 220.902H202.175C202.297 220.903 202.418 220.897 202.539 220.885C202.626 220.878 202.71 220.85 202.784 220.803C202.851 220.754 202.9 220.683 202.921 220.603C202.953 220.483 202.967 220.36 202.963 220.236V217.866H204.026V219.892C204.026 220.065 204.031 220.214 204.041 220.341C204.047 220.452 204.081 220.56 204.141 220.655C204.203 220.743 204.292 220.808 204.395 220.84C204.553 220.886 204.718 220.906 204.882 220.9V222.257H204.652C204.397 222.264 204.144 222.217 203.909 222.12C203.709 222.035 203.548 221.879 203.455 221.683H203.425C203.345 221.793 203.247 221.889 203.136 221.967C203.033 222.039 202.921 222.097 202.804 222.142C202.692 222.185 202.576 222.215 202.457 222.232C202.347 222.252 202.236 222.263 202.125 222.267L202.122 222.266ZM203.985 223.994H202.812V222.941H203.985V223.994ZM205.537 222.268H204.878C204.821 222.268 204.765 222.25 204.719 222.217C204.672 222.184 204.637 222.138 204.617 222.084C204.552 221.926 204.522 221.755 204.53 221.584C204.522 221.413 204.552 221.242 204.617 221.084C204.637 221.031 204.673 220.984 204.72 220.952C204.766 220.919 204.822 220.902 204.879 220.902H205.588C205.721 220.902 205.838 220.897 205.937 220.887C206.025 220.881 206.109 220.853 206.184 220.807C206.253 220.758 206.304 220.688 206.329 220.607C206.365 220.486 206.381 220.361 206.376 220.235V217.865H207.439V220.284C207.451 220.624 207.398 220.964 207.282 221.284C207.194 221.517 207.05 221.725 206.863 221.89C206.687 222.036 206.48 222.139 206.257 222.19C206.021 222.244 205.78 222.27 205.538 222.267L205.537 222.268ZM206.261 223.945H205.085V222.892H206.258L206.261 223.945ZM207.968 223.945H206.795V222.892H207.968V223.945ZM208.292 223.197C208.521 223.264 208.713 223.311 208.868 223.339C209.009 223.366 209.152 223.38 209.295 223.381C209.523 223.39 209.75 223.342 209.954 223.239C210.119 223.149 210.257 223.017 210.354 222.857C210.455 222.687 210.523 222.499 210.554 222.303C210.59 222.083 210.607 221.861 210.606 221.639C210.606 221.416 210.591 221.194 210.561 220.973C210.529 220.74 210.484 220.51 210.426 220.282C210.366 220.043 210.292 219.79 210.204 219.524C210.116 219.258 210.016 218.967 209.904 218.651H211.082C211.185 218.907 211.276 219.166 211.354 219.429C211.432 219.692 211.499 219.954 211.554 220.217C211.607 220.48 211.647 220.737 211.674 220.99C211.7 221.232 211.713 221.475 211.714 221.719C211.72 222.182 211.653 222.643 211.513 223.084C211.405 223.431 211.228 223.752 210.994 224.03C210.788 224.269 210.529 224.457 210.238 224.579C209.95 224.697 209.641 224.757 209.33 224.756C209.168 224.756 209.007 224.74 208.848 224.709C208.659 224.669 208.473 224.615 208.292 224.547V223.197Z" fill="#004A76"/><path id="Path 7" opacity="0.5" d="M189.819 231.367L189.219 230.049C189.14 229.84 189.013 229.652 188.849 229.501C188.714 229.404 188.55 229.355 188.384 229.361H187.825V231.367H187.514V226.867H188.763C189.105 226.847 189.442 226.963 189.7 227.189C189.814 227.298 189.903 227.43 189.962 227.577C190.02 227.723 190.048 227.88 190.041 228.038C190.051 228.334 189.952 228.623 189.762 228.851C189.559 229.078 189.282 229.227 188.98 229.272V229.285C189.225 229.433 189.409 229.664 189.501 229.935L190.171 231.367H189.819ZM187.826 227.151V229.078H188.601C188.898 229.094 189.19 228.997 189.419 228.808C189.52 228.714 189.6 228.599 189.652 228.471C189.703 228.343 189.726 228.205 189.719 228.067C189.726 227.942 189.705 227.816 189.658 227.7C189.61 227.584 189.538 227.479 189.446 227.394C189.227 227.22 188.951 227.132 188.671 227.149L187.826 227.151ZM191.09 229.767C191.068 230.137 191.176 230.504 191.396 230.803C191.497 230.926 191.626 231.024 191.772 231.089C191.918 231.154 192.077 231.184 192.236 231.177C192.623 231.167 192.995 231.026 193.291 230.777V231.085C192.967 231.319 192.577 231.443 192.177 231.44C191.988 231.446 191.799 231.408 191.626 231.331C191.453 231.254 191.299 231.139 191.177 230.994C190.901 230.634 190.765 230.187 190.794 229.735C190.781 229.305 190.923 228.884 191.194 228.55C191.319 228.395 191.477 228.27 191.658 228.187C191.839 228.103 192.036 228.062 192.235 228.068C192.411 228.058 192.587 228.092 192.747 228.165C192.907 228.238 193.047 228.349 193.155 228.489C193.385 228.826 193.498 229.23 193.475 229.638V229.767H191.09ZM193.171 229.507C193.178 229.198 193.084 228.895 192.904 228.644C192.822 228.543 192.718 228.462 192.599 228.408C192.48 228.355 192.35 228.33 192.22 228.336C192.081 228.331 191.943 228.355 191.814 228.407C191.685 228.459 191.568 228.537 191.471 228.636C191.256 228.877 191.127 229.182 191.105 229.504L193.171 229.507ZM194.571 230.794H194.558V232.844H194.271V228.151H194.56V228.813H194.573C194.68 228.585 194.852 228.395 195.067 228.265C195.281 228.136 195.526 228.07 195.775 228.072C195.956 228.063 196.137 228.096 196.303 228.17C196.469 228.243 196.616 228.354 196.731 228.494C196.975 228.825 197.095 229.231 197.071 229.642C197.092 230.108 196.953 230.566 196.677 230.942C196.556 231.102 196.398 231.231 196.217 231.318C196.036 231.405 195.837 231.447 195.636 231.442C195.415 231.45 195.196 231.393 195.006 231.277C194.817 231.162 194.666 230.994 194.571 230.794V230.794ZM194.558 229.594V229.994C194.551 230.298 194.658 230.595 194.858 230.824C194.957 230.938 195.08 231.028 195.219 231.088C195.357 231.148 195.507 231.176 195.658 231.171C195.816 231.173 195.972 231.135 196.112 231.061C196.251 230.988 196.37 230.88 196.458 230.749C196.677 230.421 196.785 230.032 196.766 229.639C196.784 229.297 196.684 228.959 196.483 228.682C196.395 228.567 196.28 228.475 196.149 228.414C196.018 228.352 195.875 228.322 195.73 228.327C195.566 228.318 195.401 228.347 195.25 228.413C195.099 228.478 194.966 228.578 194.86 228.704C194.655 228.956 194.547 229.273 194.556 229.598L194.558 229.594ZM199.158 231.44C198.95 231.45 198.742 231.413 198.55 231.333C198.357 231.253 198.185 231.132 198.045 230.977C197.763 230.642 197.617 230.214 197.635 229.777C197.608 229.319 197.762 228.869 198.064 228.524C198.21 228.373 198.385 228.255 198.58 228.177C198.775 228.099 198.984 228.063 199.193 228.072C199.396 228.062 199.598 228.097 199.786 228.175C199.974 228.253 200.142 228.371 200.279 228.521C200.563 228.871 200.705 229.314 200.679 229.764C200.699 230.206 200.553 230.639 200.271 230.979C200.132 231.134 199.96 231.257 199.767 231.337C199.575 231.418 199.366 231.454 199.158 231.444V231.44ZM199.18 228.332C199.01 228.325 198.841 228.355 198.684 228.421C198.527 228.488 198.387 228.588 198.274 228.715C198.034 229.016 197.914 229.395 197.937 229.779C197.919 230.148 198.038 230.51 198.271 230.797C198.383 230.924 198.521 231.025 198.677 231.091C198.833 231.157 199.002 231.188 199.171 231.18C199.339 231.19 199.507 231.161 199.662 231.096C199.818 231.03 199.956 230.93 200.066 230.803C200.291 230.503 200.402 230.132 200.38 229.758C200.405 229.38 200.295 229.006 200.068 228.703C199.957 228.579 199.82 228.481 199.666 228.417C199.512 228.354 199.346 228.326 199.18 228.336V228.332ZM202.746 231.317C202.614 231.383 202.47 231.42 202.322 231.424C201.847 231.424 201.609 231.139 201.609 230.57V228.41H201.031V228.146H201.609V227.311L201.753 227.261C201.803 227.246 201.851 227.231 201.897 227.214V228.146H202.745V228.41H201.897V230.532C201.884 230.699 201.92 230.867 202.002 231.014C202.044 231.066 202.099 231.107 202.161 231.133C202.223 231.159 202.291 231.17 202.358 231.163C202.494 231.158 202.627 231.118 202.744 231.047L202.746 231.317ZM203.452 229.766C203.43 230.136 203.538 230.503 203.758 230.802C203.859 230.925 203.988 231.023 204.134 231.088C204.28 231.153 204.439 231.183 204.598 231.176C204.985 231.166 205.357 231.025 205.653 230.776V231.084C205.329 231.318 204.939 231.442 204.539 231.439C204.35 231.445 204.161 231.407 203.988 231.33C203.815 231.253 203.661 231.138 203.539 230.993C203.263 230.633 203.127 230.186 203.156 229.734C203.143 229.304 203.285 228.883 203.556 228.549C203.681 228.394 203.839 228.269 204.02 228.186C204.201 228.102 204.398 228.061 204.597 228.067C204.773 228.057 204.949 228.09 205.109 228.164C205.269 228.237 205.409 228.348 205.517 228.488C205.747 228.825 205.86 229.229 205.837 229.637V229.767L203.452 229.766ZM205.53 229.502C205.537 229.193 205.443 228.89 205.263 228.639C205.181 228.538 205.077 228.457 204.958 228.403C204.839 228.35 204.709 228.325 204.579 228.331C204.44 228.326 204.302 228.35 204.173 228.402C204.044 228.454 203.927 228.532 203.83 228.631C203.615 228.872 203.486 229.177 203.464 229.499L205.53 229.502ZM208.911 232.839V230.775H208.898C208.79 230.988 208.623 231.165 208.416 231.284C208.209 231.403 207.971 231.458 207.733 231.444C207.548 231.45 207.364 231.413 207.196 231.336C207.028 231.259 206.88 231.145 206.763 231.001C206.503 230.659 206.373 230.237 206.396 229.808C206.371 229.348 206.52 228.895 206.814 228.54C206.945 228.389 207.109 228.268 207.292 228.187C207.476 228.106 207.675 228.067 207.875 228.072C208.086 228.058 208.296 228.108 208.478 228.215C208.661 228.322 208.807 228.481 208.898 228.672H208.911V228.151H209.2V232.844L208.911 232.839ZM208.911 229.433C208.922 229.143 208.822 228.861 208.632 228.642C208.533 228.537 208.413 228.454 208.279 228.401C208.145 228.347 208.001 228.323 207.857 228.331C207.699 228.328 207.542 228.361 207.398 228.428C207.255 228.495 207.128 228.593 207.028 228.716C206.792 229.023 206.674 229.404 206.698 229.791C206.677 230.153 206.781 230.512 206.992 230.807C207.081 230.924 207.196 231.019 207.328 231.083C207.46 231.147 207.606 231.179 207.753 231.176C207.913 231.186 208.073 231.161 208.222 231.101C208.371 231.041 208.504 230.949 208.613 230.831C208.814 230.596 208.921 230.296 208.913 229.987L208.911 229.433Z" fill="#004A76"/></g></g></g></g></g><defs><clipPath id="clip0_76_2"><rect width="466.163" height="362" fill="white"/></clipPath></defs><style> @keyframes translateX { 0%, 100% { transform: translateX(0px); } 50% { transform: translateX(-4px); } } @keyframes translateY { 0%, 100% { transform: translateY(0px); } 50% { transform: translateY(4px); } } @keyframes translateYR { 0%, 100% { transform: translateY(0px); } 50% { transform: translateY(-4px); } } @keyframes rotation { 0% { transform: rotate(0deg); } 50% { transform: rotate(10deg); } 100% { transform: rotate(0deg); } }@keyframes pulsecust { 0% { opacity: 1; transform: scale(1); } 50% { opacity: 0; transform: scale(1.5); } 100% { opacity: 1; transform: scale(1); } }</style></svg>