<svg xmlns="http://www.w3.org/2000/svg" width="110" height="40" viewBox="0 0 110 40">
  <g id="Group_95" data-name="Group 95" transform="translate(-1144 -3771)">
    <rect id="Rectangle_29" data-name="Rectangle 29" width="110" height="40" rx="20" transform="translate(1144 3771)" fill="rgba(21,178,255,0.06)"/>
    <g id="Group_97" data-name="Group 97" transform="translate(1174 3781)">
      <path id="Path_3053" data-name="Path 3053" d="M-25.44-10.5a3.287,3.287,0,0,1,1.68.435,3.121,3.121,0,0,1,1.177,1.2,3.445,3.445,0,0,1,.428,1.71A3.591,3.591,0,0,1-22.583-5.4a3.078,3.078,0,0,1-1.185,1.215,3.3,3.3,0,0,1-1.673.435h-3.255V0h-1.14V-10.5Zm-.135,5.7a2.135,2.135,0,0,0,1.605-.653,2.348,2.348,0,0,0,.63-1.7,2.375,2.375,0,0,0-.292-1.163,2.18,2.18,0,0,0-.81-.84,2.177,2.177,0,0,0-1.132-.307h-3.12V-4.8ZM-11.535,0H-12.66V-4.395h-6.075V0h-1.14V-10.5h1.14v5.04h6.075V-10.5h1.125ZM-4.02-10.5a3.287,3.287,0,0,1,1.68.435,3.121,3.121,0,0,1,1.178,1.2,3.445,3.445,0,0,1,.427,1.71A3.591,3.591,0,0,1-1.162-5.4,3.078,3.078,0,0,1-2.347-4.185,3.3,3.3,0,0,1-4.02-3.75H-7.275V0h-1.14V-10.5Zm-.135,5.7A2.135,2.135,0,0,0-2.55-5.453a2.348,2.348,0,0,0,.63-1.7,2.375,2.375,0,0,0-.292-1.163,2.18,2.18,0,0,0-.81-.84,2.177,2.177,0,0,0-1.133-.307h-3.12V-4.8Z" transform="translate(27 15)" fill="#15b2ff"/>
      <g id="php" transform="translate(34.231)">
        <path id="Path_88" data-name="Path 88" d="M20,10A10,10,0,0,1,1.333,14.991,10,10,0,1,1,20,10Z" transform="translate(0)" fill="#15b2ff"/>
        <g id="Group_96" data-name="Group 96" transform="translate(0.355 4.795)">
          <path id="Path_89" data-name="Path 89" d="M13.786,178.239h-3.7l-1.055,5.71a9.977,9.977,0,0,0,.985,2.363h.344l.409-2.211H12.8c2.478,0,3.144-2.224,3.3-3.317A2.267,2.267,0,0,0,13.786,178.239Zm.537,2.728a2.032,2.032,0,0,1-1.953,1.881H11l.614-3.323h1.4C14.372,179.525,14.414,180.348,14.324,180.967Z" transform="translate(-9.028 -176.088)" fill="#f2f2f2"/>
          <path id="Path_90" data-name="Path 90" d="M347.435,178.5a2.422,2.422,0,0,0-1.123-.259h-3.7l-1.492,8.072h1.766l.409-2.211h2.035a2.933,2.933,0,0,0,2.345-1.025,10.132,10.132,0,0,0-.236-4.577Zm-.586,2.469a2.032,2.032,0,0,1-1.953,1.881h-1.373l.614-3.323h1.4C346.9,179.524,346.94,180.347,346.849,180.966Z" transform="translate(-328.184 -176.087)" fill="#f2f2f2"/>
          <path id="Path_91" data-name="Path 91" d="M187.132,125.646h-2.144l.4-2.178h-1.758l-1.492,8.072H183.9l.858-4.642h1.124c.746,0,1.252.16,1.146.853s-.719,3.756-.719,3.756h1.785s.693-3.41.8-4.369S188.118,125.646,187.132,125.646Z" transform="translate(-175.398 -123.468)" fill="#f2f2f2"/>
        </g>
      </g>
    </g>
  </g>
</svg>
