<svg xmlns="http://www.w3.org/2000/svg" width="80" height="80" viewBox="0 0 80 80">
  <g id="Group_111" data-name="Group 111" transform="translate(-292.034 -190.034)">
    <path id="Path_156" data-name="Path 156" d="M332.034,190.034a40,40,0,1,1-40,40,40,40,0,0,1,40-40" fill="#e60024" fill-rule="evenodd"/>
    <path id="Path_157" data-name="Path 157" d="M460.172,375.554a1.935,1.935,0,0,0-3.372-1.383c-4.151,3.921-8.11,7.717-12.28,11.657,4.158,3.928,8.183,7.786,12.28,11.657a1.929,1.929,0,0,0,3.372-1.225c0-.053,0-.105,0-.158V375.554m-38.021,0a1.935,1.935,0,0,1,3.372-1.383q14.284,13.494,28.541,27.019a6.468,6.468,0,0,0,10.645-5.009V375.475a6.467,6.467,0,0,0-10.645-5.009l-12.9,12.189-12.9-12.189a6.467,6.467,0,0,0-10.644,5.009v20.706a6.467,6.467,0,0,0,10.644,5.009l11.582-10.942-3.363-3.166c-3.691,3.5-7.294,6.945-10.954,10.4a1.93,1.93,0,0,1-3.372-1.225c0-.053,0-.105,0-.158Z" transform="translate(-109.128 -155.794)" fill="#fff" fill-rule="evenodd"/>
  </g>
</svg>
