<svg xmlns="http://www.w3.org/2000/svg" width="110" height="40" viewBox="0 0 110 40">
  <g id="Group_98" data-name="Group 98" transform="translate(-1144 -3771)">
    <rect id="Rectangle_29" data-name="Rectangle 29" width="110" height="40" rx="20" transform="translate(1144 3771)" fill="rgba(0,118,157,0.06)"/>
    <g id="Group_97" data-name="Group 97" transform="translate(1168 3779)">
      <path id="Path_3052" data-name="Path 3052" d="M-35.055-1.02a.474.474,0,0,1,.345.15.491.491,0,0,1,.15.36.484.484,0,0,1-.15.368A.486.486,0,0,1-35.055,0h-.555a1.737,1.737,0,0,1-1-.3,1.7,1.7,0,0,1-.637-.78,2.583,2.583,0,0,1-.885.8A2.412,2.412,0,0,1-39.3,0a2.426,2.426,0,0,1-1.268-.345,2.381,2.381,0,0,1-.892-.93,2.241,2.241,0,0,1-.87.922A2.565,2.565,0,0,1-43.6,0a2.063,2.063,0,0,1-1.71-.825V1.7a1.24,1.24,0,0,1-.368.9,1.186,1.186,0,0,1-.878.375h-3.225A3.423,3.423,0,0,1-51.54,2.5a3.506,3.506,0,0,1-1.282-1.282A3.423,3.423,0,0,1-53.295-.54V-2.79h1.02V-.54A2.4,2.4,0,0,0-51.937.705a2.546,2.546,0,0,0,.908.908,2.4,2.4,0,0,0,1.245.338h3.015a.457.457,0,0,0,.323-.135.437.437,0,0,0,.142-.33V-5.43h.99v2.805a1.531,1.531,0,0,0,.472,1.148,1.645,1.645,0,0,0,1.193.457,1.672,1.672,0,0,0,1.222-.48,1.563,1.563,0,0,0,.488-1.155V-5.4h1.02v2.775a1.513,1.513,0,0,0,.48,1.155,1.667,1.667,0,0,0,1.185.45,1.567,1.567,0,0,0,1.163-.48,1.587,1.587,0,0,0,.472-1.155v-4.23h1.02v4.86a.983.983,0,0,0,.285.712.945.945,0,0,0,.705.293ZM-35.115,0a.516.516,0,0,1-.368-.15A.464.464,0,0,1-35.64-.5a.5.5,0,0,1,.158-.375.516.516,0,0,1,.368-.15h2.085a1.071,1.071,0,0,0,.787-.322,1.054,1.054,0,0,0,.323-.772V-6.87h1.02v4.755a2.059,2.059,0,0,1-.285,1.058,2.1,2.1,0,0,1-.78.772A2.1,2.1,0,0,1-33.03,0Zm1.365,1.62a.708.708,0,0,1,.51.2.653.653,0,0,1,.21.488.67.67,0,0,1-.21.5.708.708,0,0,1-.51.2.661.661,0,0,1-.48-.21.677.677,0,0,1-.21-.495.653.653,0,0,1,.21-.488A.672.672,0,0,1-33.75,1.62Zm2.13,0a.708.708,0,0,1,.51.2.653.653,0,0,1,.21.488.677.677,0,0,1-.21.495.694.694,0,0,1-.51.21.653.653,0,0,1-.487-.21.69.69,0,0,1-.2-.495.665.665,0,0,1,.2-.488A.665.665,0,0,1-31.62,1.62ZM-24.4-1.02a.491.491,0,0,1,.36.15.491.491,0,0,1,.15.36.491.491,0,0,1-.15.36A.491.491,0,0,1-24.4,0h-.54a2.107,2.107,0,0,1-.968-.233,1.6,1.6,0,0,1-.683-.623L-26.61.165a3.123,3.123,0,0,1-.923,2.31A4.163,4.163,0,0,1-29.685,3.51l-.36-.96a3.73,3.73,0,0,0,1.77-.81,2.263,2.263,0,0,0,.66-1.785V-6.87h1.005v4.2a1.58,1.58,0,0,0,.487,1.17,1.6,1.6,0,0,0,1.163.48ZM-24.465,0a.516.516,0,0,1-.368-.15A.464.464,0,0,1-24.99-.5a.5.5,0,0,1,.158-.375.516.516,0,0,1,.368-.15h1.155a1.047,1.047,0,0,0,.78-.322,1.067,1.067,0,0,0,.315-.772v-4.83h1.035v4.83a2.059,2.059,0,0,1-.285,1.058,2.1,2.1,0,0,1-.78.772A2.1,2.1,0,0,1-23.31,0Zm.975,2.31a.665.665,0,0,1,.2-.488.665.665,0,0,1,.487-.2.708.708,0,0,1,.51.2.653.653,0,0,1,.21.488.677.677,0,0,1-.21.495.694.694,0,0,1-.51.21.653.653,0,0,1-.487-.21A.69.69,0,0,1-23.49,2.31Zm3.96-3.33h3.69a1.319,1.319,0,0,0,.57-.127,1.252,1.252,0,0,0,.45-.352,1.381,1.381,0,0,0,.27-.825,1.8,1.8,0,0,0-.03-.27l-1.11-4.29.975-.285,1.11,4.32a2.421,2.421,0,0,1,.06.555A2.246,2.246,0,0,1-14.04-.87a2.376,2.376,0,0,1-.8.637,2.23,2.23,0,0,1-1,.233h-3.69Zm10.365.975a3.385,3.385,0,0,1-.908,2.528A3.633,3.633,0,0,1-12.33,3.51l-.36-.975a3.467,3.467,0,0,0,1.845-.743,2.321,2.321,0,0,0,.66-1.838V-6.87h1.02Zm8.13.15a3.068,3.068,0,0,1-.99,2.385,3.617,3.617,0,0,1-1.7.945A11.27,11.27,0,0,1-6.39,3.66l.015-1.005q.8,0,1.343-.03a5.106,5.106,0,0,0,1.207-.233,2.969,2.969,0,0,0,1.14-.637,1.961,1.961,0,0,0,.6-1.41L-2.07,0H-4.05A3.162,3.162,0,0,1-5.738-.465,3.251,3.251,0,0,1-6.923-1.733,3.659,3.659,0,0,1-7.35-3.48a3.615,3.615,0,0,1,.427-1.74A3.265,3.265,0,0,1-5.738-6.48,3.162,3.162,0,0,1-4.05-6.945h3.015ZM-2.055-5.91H-4.05a2.218,2.218,0,0,0-1.185.322,2.23,2.23,0,0,0-.817.878,2.6,2.6,0,0,0-.293,1.23,2.642,2.642,0,0,0,.293,1.237,2.271,2.271,0,0,0,.817.893,2.18,2.18,0,0,0,1.185.33h1.995Z" transform="translate(44 17)" fill="#00769d"/>
      <g id="wordpress" transform="translate(52 2)">
        <path id="Path_92" data-name="Path 92" d="M70.983,41.193h-1.13L72.934,49.9l1.725-4.929-1.337-3.78H72.129v-.83h5.28v.83H76.173L79.254,49.9l1.107-3.165c1.453-4.055-1.191-5.318-1.191-6.223a1.638,1.638,0,0,1,1.638-1.638c.049,0,.1,0,.143.007a8.561,8.561,0,0,0-13,1.48h3.032v.83Z" transform="translate(-65.038 -34.877)" fill="#00769d"/>
        <path id="Path_93" data-name="Path 93" d="M36.548,153.734A8.559,8.559,0,0,0,41.1,161.3l-3.863-10.921A8.533,8.533,0,0,0,36.548,153.734Z" transform="translate(-34.877 -143.966)" fill="#00769d"/>
        <path id="Path_94" data-name="Path 94" d="M315.295,131.547a6.052,6.052,0,0,1-.1,2.345h.034l-.129.37h0a7.979,7.979,0,0,1-.283.809l-2.946,8.253a8.565,8.565,0,0,0,3.427-11.776Z" transform="translate(-298.076 -125.997)" fill="#00769d"/>
        <path id="Path_95" data-name="Path 95" d="M166.075,255.019a8.6,8.6,0,0,0,5.165.037l-2.5-7.079Z" transform="translate(-158.714 -237.105)" fill="#00769d"/>
        <path id="Path_96" data-name="Path 96" d="M17.071,2.929A10,10,0,0,0,2.929,17.071,10,10,0,1,0,17.071,2.929ZM10,19.295A9.295,9.295,0,1,1,19.295,10,9.305,9.305,0,0,1,10,19.295Z" fill="#00769d"/>
      </g>
    </g>
  </g>
</svg>
