<svg width="426" height="441" viewBox="0 0 426 441" fill="none" xmlns="http://www.w3.org/2000/svg"><g id="undraw_prioritise_re_r5xu"><g id="translate_3" style="transform-origin: center; transform-box: fill-box; animation: translateYR 2s linear infinite alternate;"><path id="Path 220" d="M390.086 98.874H118.118C115.365 98.87 112.726 97.7746 110.779 95.8279C108.832 93.8812 107.737 91.2421 107.733 88.489V10.385C107.737 7.63194 108.832 4.99277 110.779 3.04607C112.726 1.09936 115.365 0.0039679 118.118 0H413.104C415.857 0.0039679 418.496 1.09936 420.443 3.04607C422.39 4.99277 423.485 7.63194 423.489 10.385V65.474C423.478 74.3294 419.955 82.819 413.693 89.0804C407.431 95.3419 398.941 98.8639 390.086 98.874V98.874Z" fill="#F2F2F2"/><path id="Path 221" d="M296.272 27.779H172.079C171.369 27.779 170.688 27.4968 170.185 26.9946C169.683 26.4924 169.401 25.8112 169.401 25.101C169.401 24.3907 169.683 23.7096 170.185 23.2074C170.688 22.7051 171.369 22.423 172.079 22.423H296.272C296.982 22.423 297.663 22.7051 298.166 23.2074C298.668 23.7096 298.95 24.3907 298.95 25.101C298.95 25.8112 298.668 26.4924 298.166 26.9946C297.663 27.4968 296.982 27.779 296.272 27.779Z" fill="white"/><path id="Path 222" d="M359.141 38.733H172.079C171.369 38.733 170.688 38.4509 170.185 37.9486C169.683 37.4464 169.401 36.7653 169.401 36.055C169.401 35.3448 169.683 34.6636 170.185 34.1614C170.688 33.6592 171.369 33.377 172.079 33.377H359.141C359.851 33.377 360.532 33.6592 361.035 34.1614C361.537 34.6636 361.819 35.3448 361.819 36.055C361.819 36.7653 361.537 37.4464 361.035 37.9486C360.532 38.4509 359.851 38.733 359.141 38.733Z" fill="white"/><path id="Path 223" d="M359.141 51.308H172.079C171.369 51.308 170.688 51.0258 170.185 50.5236C169.683 50.0214 169.401 49.3402 169.401 48.63C169.401 47.9197 169.683 47.2386 170.185 46.7363C170.688 46.2341 171.369 45.952 172.079 45.952H359.141C359.851 45.952 360.532 46.2341 361.035 46.7363C361.537 47.2386 361.819 47.9197 361.819 48.63C361.819 49.3402 361.537 50.0214 361.035 50.5236C360.532 51.0258 359.851 51.308 359.141 51.308V51.308Z" fill="white"/><path id="Path 224" d="M359.141 63.88H172.079C171.369 63.88 170.688 63.5978 170.185 63.0956C169.683 62.5934 169.401 61.9122 169.401 61.202C169.401 60.4917 169.683 59.8106 170.185 59.3083C170.688 58.8061 171.369 58.524 172.079 58.524H359.141C359.851 58.524 360.532 58.8061 361.035 59.3083C361.537 59.8106 361.819 60.4917 361.819 61.202C361.819 61.9122 361.537 62.5934 361.035 63.0956C360.532 63.5978 359.851 63.88 359.141 63.88Z" fill="white"/><path id="Path 225" d="M359.141 76.454H172.079C171.369 76.454 170.687 76.1718 170.185 75.6695C169.683 75.1671 169.401 74.4859 169.401 73.7755C169.401 73.0651 169.683 72.3838 170.185 71.8815C170.687 71.3792 171.369 71.097 172.079 71.097H359.141C359.851 71.097 360.533 71.3792 361.035 71.8815C361.537 72.3838 361.82 73.0651 361.82 73.7755C361.82 74.4859 361.537 75.1671 361.035 75.6695C360.533 76.1718 359.851 76.454 359.141 76.454V76.454Z" fill="white"/></g><g id="translate_2" style="transform-origin: center; transform-box: fill-box; animation: translateY 2s linear infinite alternate;"><path id="Path 226" d="M319.383 170.743H10.383C7.63115 170.737 4.99378 169.641 3.04858 167.694C1.10339 165.748 0.00896774 163.11 0.00500488 160.358V68.237C0.00897278 65.4839 1.10438 62.8448 3.05109 60.8981C4.99779 58.9514 7.63693 57.856 10.39 57.852H319.39C322.143 57.856 324.782 58.9514 326.729 60.8981C328.676 62.8448 329.771 65.4839 329.775 68.237V160.358C329.771 163.111 328.676 165.75 326.729 167.697C324.782 169.644 322.143 170.739 319.39 170.743H319.383Z" fill="#E6E6E6"/><path id="Path 227" d="M289.36 163.736H17.392C14.6389 163.732 11.9998 162.637 10.0531 160.69C8.10639 158.743 7.01099 156.104 7.00702 153.351V75.247C7.01099 72.4939 8.10639 69.8548 10.0531 67.9081C11.9998 65.9614 14.6389 64.866 17.392 64.862H312.378C315.131 64.866 317.77 65.9614 319.717 67.9081C321.664 69.8548 322.759 72.4939 322.763 75.247V130.336C322.752 139.191 319.229 147.681 312.967 153.942C306.705 160.204 298.215 163.726 289.36 163.736V163.736Z" fill="white"/><path id="Path 228" d="M195.546 92.64H71.353C70.6427 92.64 69.9616 92.3578 69.4594 91.8556C68.9571 91.3534 68.675 90.6722 68.675 89.962C68.675 89.2517 68.9571 88.5706 69.4594 88.0684C69.9616 87.5661 70.6427 87.284 71.353 87.284H195.546C196.256 87.284 196.937 87.5661 197.44 88.0684C197.942 88.5706 198.224 89.2517 198.224 89.962C198.224 90.6722 197.942 91.3534 197.44 91.8556C196.937 92.3578 196.256 92.64 195.546 92.64Z" fill="#1D89D6"/><path id="Path 229" d="M258.415 103.594H71.353C70.6427 103.594 69.9616 103.312 69.4594 102.81C68.9571 102.307 68.675 101.626 68.675 100.916C68.675 100.206 68.9571 99.5246 69.4594 99.0223C69.9616 98.5201 70.6427 98.238 71.353 98.238H258.415C259.125 98.238 259.806 98.5201 260.309 99.0223C260.811 99.5246 261.093 100.206 261.093 100.916C261.093 101.626 260.811 102.307 260.309 102.81C259.806 103.312 259.125 103.594 258.415 103.594Z" fill="#E6E6E6"/><path id="Path 230" d="M258.415 116.169H71.353C70.6427 116.169 69.9616 115.887 69.4594 115.385C68.9571 114.882 68.675 114.201 68.675 113.491C68.675 112.781 68.9571 112.1 69.4594 111.597C69.9616 111.095 70.6427 110.813 71.353 110.813H258.415C259.125 110.813 259.806 111.095 260.309 111.597C260.811 112.1 261.093 112.781 261.093 113.491C261.093 114.201 260.811 114.882 260.309 115.385C259.806 115.887 259.125 116.169 258.415 116.169Z" fill="#E6E6E6"/><path id="Path 231" d="M258.415 128.742H71.353C70.6426 128.742 69.9613 128.46 69.459 127.957C68.9567 127.455 68.6745 126.774 68.6745 126.064C68.6745 125.353 68.9567 124.672 69.459 124.17C69.9613 123.667 70.6426 123.385 71.353 123.385H258.415C259.125 123.385 259.807 123.667 260.309 124.17C260.811 124.672 261.094 125.353 261.094 126.064C261.094 126.774 260.811 127.455 260.309 127.957C259.807 128.46 259.125 128.742 258.415 128.742Z" fill="#E6E6E6"/><path id="Path 232" d="M258.415 141.316H71.353C70.6427 141.316 69.9616 141.034 69.4594 140.532C68.9571 140.029 68.675 139.348 68.675 138.638C68.675 137.928 68.9571 137.247 69.4594 136.744C69.9616 136.242 70.6427 135.96 71.353 135.96H258.415C259.125 135.96 259.806 136.242 260.309 136.744C260.811 137.247 261.093 137.928 261.093 138.638C261.093 139.348 260.811 140.029 260.309 140.532C259.806 141.034 259.125 141.316 258.415 141.316V141.316Z" fill="#E6E6E6"/></g><g id="Group 3" style="transform-origin: center; transform-box: fill-box; animation: pulse-shadow 2s linear infinite alternate;"><path id="Path 233" d="M106.472 242.093C102.523 242.093 98.6632 240.922 95.38 238.728C92.0968 236.534 89.5378 233.416 88.0267 229.768C86.5156 226.12 86.1202 222.106 86.8906 218.233C87.6609 214.36 89.5624 210.803 92.3546 208.011C95.1467 205.218 98.7042 203.317 102.577 202.547C106.45 201.776 110.464 202.172 114.112 203.683C117.76 205.194 120.878 207.753 123.072 211.036C125.266 214.319 126.437 218.179 126.437 222.128C126.437 227.423 124.334 232.501 120.589 236.245C116.845 239.99 111.767 242.093 106.472 242.093V242.093Z" fill="#E6E6E6"/><path id="Path 234" d="M114.35 220.158H108.442V214.25C108.442 213.728 108.234 213.227 107.865 212.857C107.496 212.488 106.995 212.281 106.473 212.281C105.95 212.281 105.449 212.488 105.08 212.857C104.711 213.227 104.503 213.728 104.503 214.25V220.158H98.595C98.0727 220.158 97.5717 220.366 97.2024 220.735C96.833 221.104 96.6255 221.605 96.6255 222.128C96.6255 222.65 96.833 223.151 97.2024 223.52C97.5717 223.889 98.0727 224.097 98.595 224.097H104.505V230.005C104.505 230.527 104.712 231.028 105.082 231.398C105.451 231.767 105.952 231.975 106.474 231.975C106.997 231.975 107.498 231.767 107.867 231.398C108.237 231.028 108.444 230.527 108.444 230.005V224.097H114.352C114.874 224.097 115.375 223.889 115.745 223.52C116.114 223.151 116.322 222.65 116.322 222.128C116.322 221.605 116.114 221.104 115.745 220.735C115.375 220.366 114.874 220.158 114.352 220.158H114.35Z" fill="white"/></g><g id="Group 2" style="transform-origin: center; transform-box: fill-box; animation: translateY 2s linear infinite alternate;"><path id="Path 235" d="M164.884 242.093C160.935 242.093 157.075 240.922 153.792 238.728C150.509 236.534 147.95 233.416 146.439 229.768C144.928 226.12 144.532 222.106 145.303 218.233C146.073 214.36 147.974 210.803 150.767 208.011C153.559 205.218 157.116 203.317 160.989 202.547C164.862 201.776 168.876 202.172 172.524 203.683C176.172 205.194 179.291 207.753 181.484 211.036C183.678 214.319 184.849 218.179 184.849 222.128C184.849 227.423 182.746 232.501 179.001 236.245C175.257 239.99 170.179 242.093 164.884 242.093V242.093Z" fill="#E6E6E6"/><path id="Path 236" d="M172.761 220.158H157.006C156.484 220.158 155.983 220.366 155.613 220.735C155.244 221.104 155.036 221.605 155.036 222.128C155.036 222.65 155.244 223.151 155.613 223.52C155.983 223.89 156.484 224.097 157.006 224.097H172.761C173.283 224.097 173.784 223.89 174.154 223.52C174.523 223.151 174.73 222.65 174.73 222.128C174.73 221.605 174.523 221.104 174.154 220.735C173.784 220.366 173.283 220.158 172.761 220.158V220.158Z" fill="white"/></g><g id="Group 1" style="transform-origin: center; transform-box: fill-box; animation: pulse-shadow 3s linear infinite alternate;"><path id="Path 237" d="M223.295 242.093C219.346 242.093 215.486 240.922 212.203 238.728C208.92 236.534 206.361 233.416 204.85 229.768C203.339 226.12 202.943 222.106 203.714 218.233C204.484 214.36 206.385 210.803 209.178 208.011C211.97 205.218 215.527 203.317 219.4 202.547C223.273 201.776 227.287 202.172 230.935 203.683C234.583 205.194 237.702 207.753 239.895 211.036C242.089 214.319 243.26 218.179 243.26 222.128C243.26 224.75 242.744 227.346 241.74 229.768C240.737 232.191 239.266 234.391 237.412 236.245C235.558 238.099 233.358 239.57 230.935 240.573C228.513 241.577 225.917 242.093 223.295 242.093Z" fill="#0064AD"/><path id="Path 238" d="M234.527 221.178L228.867 212.917C228.615 212.55 228.228 212.297 227.79 212.216C227.352 212.134 226.899 212.23 226.532 212.482C226.165 212.734 225.912 213.122 225.831 213.559C225.749 213.997 225.845 214.45 226.097 214.817L229.757 220.16H215.417C214.895 220.16 214.394 220.368 214.024 220.737C213.655 221.106 213.448 221.607 213.448 222.13C213.448 222.652 213.655 223.153 214.024 223.522C214.394 223.892 214.895 224.099 215.417 224.099H229.938L226.097 229.705C225.972 229.887 225.885 230.092 225.839 230.307C225.793 230.523 225.79 230.746 225.831 230.963C225.871 231.179 225.954 231.386 226.074 231.571C226.195 231.756 226.35 231.915 226.532 232.04C226.714 232.165 226.919 232.252 227.134 232.298C227.35 232.344 227.573 232.347 227.79 232.306C228.006 232.266 228.213 232.183 228.398 232.063C228.583 231.942 228.742 231.787 228.867 231.605L234.527 223.344C234.711 223.014 234.808 222.642 234.808 222.264C234.808 221.886 234.711 221.514 234.527 221.184V221.178Z" fill="white"/></g><g id="translate_1" style="transform-origin: center; transform-box: fill-box; animation: translateX 2s linear infinite alternate;"><path id="Path 239" d="M351.373 431.379H342.151L337.763 395.805H351.375L351.373 431.379Z" fill="#F8B8C2"/><path id="Path 240" d="M351.697 441H323.337V440.641C323.337 439.191 323.622 437.756 324.177 436.417C324.732 435.077 325.545 433.86 326.57 432.835C327.595 431.81 328.811 430.997 330.151 430.442C331.49 429.887 332.925 429.601 334.375 429.601V429.601L339.555 425.671L349.221 429.602H351.697V441Z" fill="#1E1E1E"/><path id="Path 241" d="M422.007 421.404L413.483 424.924L395.845 393.724L408.426 388.524L422.007 421.404Z" fill="#F8B8C2"/><path id="Path 242" d="M425.98 430.173L399.768 441.001L399.631 440.669C398.513 437.963 398.516 434.924 399.639 432.22C400.762 429.517 402.913 427.37 405.619 426.252V426.252L408.906 420.642L419.341 420.585L421.629 419.64L425.98 430.173Z" fill="#1E1E1E"/><path id="Path 243" d="M396.201 241.145C396.201 241.145 389.056 218.61 392.018 209.386L408.492 208.386L410.381 241.637L400.965 280.083C401.332 281.18 401.403 282.355 401.169 283.489C400.935 284.622 400.406 285.673 399.634 286.536C398.863 287.398 397.877 288.041 396.777 288.4C395.677 288.758 394.501 288.819 393.37 288.576C392.238 288.333 391.191 287.795 390.335 287.017C389.479 286.239 388.844 285.248 388.494 284.144C388.145 283.041 388.093 281.865 388.345 280.736C388.597 279.607 389.144 278.564 389.929 277.714L396.201 241.145Z" fill="#F8B8C2"/><path id="Path 244" d="M406.713 194.982L404.244 184.117C403.315 180.028 401.586 176.163 399.157 172.745C396.729 169.326 393.648 166.422 390.093 164.198C387.886 162.828 385.339 162.104 382.742 162.105C380.144 162.107 377.599 162.835 375.393 164.208V164.208C372.416 166.089 370.265 169.03 369.374 172.437C368.483 175.843 368.919 179.461 370.593 182.559C375.677 191.95 375.703 202.592 383.227 202.891L382.932 206.798L393.295 229.437L413.574 224.318L406.713 194.982Z" fill="#1D89D6"/><path id="Path 245" d="M393.145 244.089C393.145 244.089 398.421 261.636 394.26 276.617C390.099 291.598 386.746 327.73 386.746 327.73L417.802 404.42L403.354 408.145L357.192 332.732L352.837 411.827L338.91 412.398L328.395 333.189L336.733 253.526L393.145 244.089Z" fill="#0064AD"/><path id="Path 246" d="M395.474 259.403L395.558 259.285C400.058 252.978 393.288 237.823 392.266 235.626C393.48 235.232 394.519 234.43 395.208 233.356C395.896 232.282 396.191 231.002 396.042 229.735L395.601 225.99L395.142 222.317L398.431 219.027L398.44 218.945L400.333 202.38L403.085 191.38C404.122 187.221 404.034 182.861 402.829 178.747C401.624 174.633 399.346 170.914 396.229 167.972L389.867 166.962L382.135 159.512H369.666L365.39 163.597C357.409 164.997 359.09 164.54 352.234 172.767L343.618 197.428L344.395 200.947V205.719L345.619 219.798C344.907 220.589 344.39 221.535 344.109 222.561C343.827 223.587 343.789 224.665 343.998 225.708L344.258 227.008C342.22 227.881 340.276 243.4 339.811 245.568L339.117 248.806C338.523 249.589 334.605 254.814 334.605 256.243C334.605 256.457 334.763 256.665 335.105 256.895C337.775 258.703 353.905 260.562 360.439 257.948C367.398 255.166 395.059 259.34 395.339 259.382L395.474 259.403Z" fill="#1D89D6"/><path id="Path 247" d="M312.099 211.285C312.099 211.285 332.144 198.752 341.815 199.324L346.886 215.029L315.152 225.136L275.573 225.592C274.602 226.221 273.481 226.582 272.326 226.638C271.17 226.694 270.02 226.443 268.992 225.911C267.964 225.379 267.096 224.584 266.475 223.608C265.854 222.632 265.502 221.508 265.455 220.352C265.409 219.196 265.669 218.048 266.209 217.025C266.75 216.001 267.551 215.139 268.533 214.526C269.514 213.913 270.64 213.57 271.797 213.533C272.953 213.496 274.099 213.765 275.118 214.314L312.099 211.285Z" fill="#F8B8C2"/><path id="Path 248" d="M359.427 209.968L369.334 204.868C373.063 202.949 376.375 200.313 379.081 197.109C381.787 193.906 383.833 190.199 385.101 186.202V186.202C385.878 183.723 385.945 181.077 385.297 178.561C384.648 176.046 383.309 173.762 381.43 171.968V171.968C378.867 169.553 375.483 168.201 371.962 168.186C368.441 168.171 365.045 169.493 362.462 171.886C354.633 179.149 344.333 181.825 345.917 189.186L342.059 189.874L322.714 205.555L332.722 223.921L359.427 209.968Z" fill="#1D89D6"/><path id="Ellipse 34" d="M375.998 154.816C386.293 154.816 394.639 146.47 394.639 136.175C394.639 125.88 386.293 117.534 375.998 117.534C365.703 117.534 357.357 125.88 357.357 136.175C357.357 146.47 365.703 154.816 375.998 154.816Z" fill="#F8B8C2"/><path id="Path 249" d="M363.215 114.656C364.551 114.616 364.092 112.098 365.169 111.295C365.174 111.319 365.18 111.344 365.185 111.368C365.326 111.912 365.638 112.396 366.075 112.749C366.513 113.102 367.051 113.306 367.613 113.33C368.174 113.354 368.729 113.197 369.194 112.882C369.66 112.568 370.012 112.112 370.199 111.582C370.378 110.969 370.701 110.408 371.141 109.945C371.582 109.483 372.127 109.134 372.731 108.926C372.847 110.092 373.273 111.205 373.966 112.149C374.659 113.093 375.593 113.834 376.67 114.294C378.837 115.184 381.171 115.597 383.512 115.504C385.847 115.41 388.185 115.587 390.479 116.032C391.627 116.263 392.709 116.745 393.648 117.444C394.588 118.142 395.361 119.04 395.913 120.072C396.88 122.197 396.19 125.123 394.075 126.113C394.894 126.187 395.674 126.501 396.314 127.018C396.955 127.534 397.429 128.228 397.675 129.013C398.139 130.59 398.26 132.248 398.03 133.876C397.569 139.904 396.447 146.393 392.057 150.55C388.712 153.718 383.924 154.994 379.316 154.976C374.708 154.958 375.516 154.534 371.064 153.358C375.646 153.871 374.396 133.404 366.826 132.575C366.75 132.394 366.683 132.209 366.626 132.021C366.348 131.063 365.846 130.184 365.161 129.458C364.477 128.731 363.629 128.178 362.689 127.843C361.74 127.535 360.719 127.525 359.764 127.814C358.809 128.103 357.965 128.677 357.346 129.46C352.469 124.885 355.495 114.883 363.215 114.656Z" fill="#1E1E1E"/></g></g><style> @keyframes translateY { 0%, 100% { transform: translateY(0px); } 50% { transform: translateY(-6px); } } @keyframes translateYR { 0%, 100% { transform: translateY(0px); } 50% { transform: translateY(6px); } } @keyframes translateX { 0%, 100% { transform: translateX(0px); } 50% { transform: translateX(-6px); } } @keyframes pulse-shadow { 0% { opacity: 1; transform: scale(1); } 50% { opacity: .8; transform: scale(.8); } 100% { opacity: 1; transform: scale(1); } }</style></svg>