<svg width="411" height="402" viewBox="0 0 411 402" fill="none" xmlns="http://www.w3.org/2000/svg"><g id="web"><g id="man" style="transform-origin: center; transform-box: fill-box; animation: translateY 2s linear infinite alternate;"><path id="Path 39" d="M308.675 251.244L302.566 261.564C301.963 262.586 301.131 263.454 300.136 264.101C299.142 264.749 298.011 265.157 296.833 265.295C295.654 265.434 294.46 265.297 293.342 264.898C292.225 264.498 291.215 263.845 290.392 262.991V262.991C289.625 262.197 289.037 261.247 288.669 260.206C288.3 259.164 288.16 258.056 288.258 256.956C288.356 255.856 288.688 254.79 289.234 253.83C289.78 252.869 290.526 252.038 291.421 251.391L301.358 244.206C310.899 231.29 316.382 209.338 321.058 185.582L340.473 187.859C335.459 207.294 323.493 228.836 308.675 251.244Z" fill="#FED4C1"/><path id="Path 40" d="M311.038 192.83L342.609 201.783V146.651L338.418 148.007C334.757 149.192 331.43 151.23 328.713 153.955C325.995 156.679 323.965 160.011 322.79 163.675L311.038 192.83Z" fill="#1D89D6"/><path id="Path 41" d="M375.275 389.089L363.494 388.618C359.625 348.803 354.686 312.645 344.646 293.904C334.923 304.319 332.714 337.223 331.087 382.021H319.671C307.671 330.394 304.641 293.791 319.671 259.035H380.929L375.275 389.089Z" fill="#0064AD"/><path id="Path 42" d="M332.156 390.006L311.709 400.452C311.162 400.732 310.563 400.897 309.949 400.936C309.336 400.976 308.721 400.889 308.142 400.681C307.563 400.474 307.033 400.15 306.584 399.73C306.136 399.31 305.778 398.802 305.533 398.238V398.238C305.097 397.238 305.039 396.114 305.37 395.074C305.701 394.035 306.399 393.151 307.333 392.587L310.121 390.907L317.884 379.301L331.116 378.256L333.536 380.576C334.21 381.221 334.719 382.019 335.022 382.901C335.324 383.783 335.412 384.725 335.276 385.648C335.14 386.571 334.786 387.448 334.242 388.206C333.699 388.965 332.982 389.582 332.151 390.006H332.156Z" fill="#1E1E1E"/><path id="Path 43" d="M373.34 399.793L350.388 400.438C349.773 400.456 349.162 400.347 348.591 400.119C348.02 399.891 347.502 399.549 347.068 399.113C346.635 398.677 346.295 398.156 346.07 397.584C345.846 397.012 345.741 396.399 345.762 395.785V395.785C345.799 394.694 346.231 393.654 346.977 392.858C347.724 392.062 348.734 391.565 349.82 391.458L353.06 391.139L365.06 383.995L377.46 388.738L378.649 391.873C378.98 392.745 379.097 393.683 378.991 394.61C378.885 395.536 378.56 396.424 378.041 397.199C377.522 397.974 376.826 398.614 376.01 399.065C375.193 399.516 374.281 399.765 373.349 399.792L373.34 399.793Z" fill="#1E1E1E"/><path id="Ellipse 12" d="M350.021 136.741C358.529 136.741 365.426 129.844 365.426 121.336C365.426 112.828 358.529 105.931 350.021 105.931C341.513 105.931 334.616 112.828 334.616 121.336C334.616 129.844 341.513 136.741 350.021 136.741Z" fill="#FED4C1"/><path id="Path 44" d="M375.271 145.878L343.229 158.129C345.095 148.069 345.119 138.592 342.051 130.092L362.551 126.558C360.828 135.395 366.156 141.397 375.271 145.878Z" fill="#FED4C1"/><path id="Path 45" d="M388.456 268.954C360.256 274.308 337.544 270.873 319.188 260.472C327.678 231.219 328.888 198.853 326.663 165.021C326.444 161.638 327.282 158.271 329.061 155.385C330.839 152.499 333.471 150.237 336.592 148.913L344.633 145.496C348.969 155.348 358.961 149.671 369.607 142.196L382.763 148.009C384.852 148.931 386.609 150.469 387.799 152.417C388.989 154.365 389.556 156.63 389.424 158.909C386.793 203.856 383.258 252.038 388.456 268.954Z" fill="#1D89D6"/><path id="Path 46" d="M397.751 262.174L396.913 274.194C396.76 276.385 395.746 278.425 394.094 279.871C392.441 281.317 390.283 282.05 388.092 281.91C386.656 281.819 385.268 281.356 384.065 280.567C382.861 279.779 381.883 278.691 381.226 277.411C380.569 276.131 380.256 274.702 380.316 273.265C380.377 271.827 380.81 270.43 381.573 269.21L388.327 258.404C392.317 242.85 389.152 220.447 384.557 196.675L403.406 191.492C406.067 211.38 403.07 235.84 397.751 262.174Z" fill="#FED4C1"/><path id="Path 47" d="M367.653 111.382C367.653 111.382 370.533 105.046 363.045 102.167C363.045 102.167 356.709 91.799 344.038 98.711C344.038 98.711 335.398 102.167 335.398 111.383C335.398 120.599 332.518 122.327 332.518 122.327C332.518 122.327 336.807 117.927 337.959 114.471C339.111 111.015 348.07 110.231 351.526 113.687C354.982 117.143 363.626 116.567 363.626 116.567L363.05 129.238C363.05 129.238 365.93 121.75 367.082 121.75C368.234 121.75 369.381 111.382 367.653 111.382Z" fill="#1E1E1E"/><path id="Path 48" d="M410.003 192.362L378.432 201.315V146.183L382.624 147.536C386.285 148.72 389.612 150.759 392.329 153.483C395.047 156.207 397.077 159.539 398.252 163.203L410.003 192.362Z" fill="#1D89D6"/></g><g id="phone" style="transform-origin: center; transform-box: fill-box; animation: translateX 2s linear infinite alternate;"><path id="Path 17" d="M19.95 -1.06242e-05C14.6741 -0.00746117 9.61074 2.07816 5.87068 5.79929C2.13062 9.52042 0.0193271 14.5731 0 19.849V382.149C0.0195913 387.425 2.131 392.477 5.87103 396.198C9.61107 399.919 14.6743 402.004 19.95 401.997H219.415C224.691 402.004 229.754 399.919 233.494 396.198C237.234 392.477 239.345 387.425 239.365 382.149V19.849C239.346 14.5731 237.234 9.52042 233.494 5.79929C229.754 2.07816 224.691 -0.00746117 219.415 -1.06242e-05H19.95Z" fill="#E6E6E6"/><path id="Path 18" d="M26.47 11.335C22.4688 11.3289 18.6285 12.9098 15.7912 15.7312C12.954 18.5525 11.3514 22.3838 11.335 26.385V375.611C11.3501 379.613 12.9522 383.446 15.7898 386.268C18.6274 389.091 22.4688 390.672 26.471 390.666H212.894C216.896 390.672 220.737 389.091 223.575 386.268C226.412 383.446 228.015 379.613 228.03 375.611V26.385C228.015 22.383 226.412 18.5504 223.575 15.7282C220.737 12.906 216.896 11.3246 212.894 11.331L26.47 11.335Z" fill="white"/><path id="Path 19" d="M209.697 85.336H29.67C28.7861 85.335 27.9387 84.9834 27.3137 84.3583C26.6886 83.7333 26.3371 82.8859 26.336 82.002V37.349C26.3371 36.4651 26.6886 35.6177 27.3137 34.9927C27.9387 34.3677 28.7861 34.0161 29.67 34.015H209.697C210.581 34.0161 211.428 34.3677 212.053 34.9927C212.678 35.6177 213.03 36.4651 213.031 37.349V82.005C213.029 82.8884 212.677 83.735 212.052 84.3594C211.427 84.9838 210.58 85.335 209.697 85.336V85.336ZM29.67 35.349C29.1396 35.349 28.6309 35.5597 28.2558 35.9348C27.8807 36.3099 27.67 36.8186 27.67 37.349V82.005C27.67 82.5354 27.8807 83.0441 28.2558 83.4192C28.6309 83.7943 29.1396 84.005 29.67 84.005H209.697C210.227 84.005 210.736 83.7943 211.111 83.4192C211.486 83.0441 211.697 82.5354 211.697 82.005V37.349C211.697 36.8186 211.486 36.3099 211.111 35.9348C210.736 35.5597 210.227 35.349 209.697 35.349H29.67Z" fill="#E6E6E6"/><path id="Path 20" d="M209.747 260.352H29.72C28.8361 260.351 27.9887 259.999 27.3636 259.374C26.7386 258.749 26.387 257.902 26.386 257.018V174.356C26.387 173.472 26.7386 172.625 27.3636 172C27.9887 171.375 28.8361 171.023 29.72 171.022H209.747C210.631 171.023 211.478 171.375 212.103 172C212.728 172.625 213.08 173.472 213.081 174.356V257.018C213.08 257.902 212.728 258.749 212.103 259.374C211.478 259.999 210.631 260.351 209.747 260.352ZM29.723 172.352C29.1925 172.352 28.6838 172.563 28.3088 172.938C27.9337 173.313 27.723 173.822 27.723 174.352V257.014C27.723 257.544 27.9337 258.053 28.3088 258.428C28.6838 258.803 29.1925 259.014 29.723 259.014H209.747C210.277 259.014 210.786 258.803 211.161 258.428C211.536 258.053 211.747 257.544 211.747 257.014V174.356C211.747 173.826 211.536 173.317 211.161 172.942C210.786 172.567 210.277 172.356 209.747 172.356L29.723 172.352Z" fill="#E6E6E6"/><path id="Path 21" d="M207.551 154.077H127.537C126.653 154.076 125.806 153.724 125.181 153.099C124.556 152.474 124.204 151.627 124.203 150.743V106.087C124.204 105.203 124.556 104.356 125.181 103.731C125.806 103.107 126.653 102.755 127.537 102.754H207.551C208.435 102.755 209.282 103.107 209.907 103.732C210.532 104.357 210.884 105.204 210.885 106.088V150.744C210.884 151.628 210.532 152.475 209.907 153.1C209.282 153.724 208.435 154.076 207.551 154.077ZM127.54 104.087C127.01 104.087 126.501 104.298 126.126 104.673C125.751 105.048 125.54 105.557 125.54 106.087V150.744C125.54 151.274 125.751 151.783 126.126 152.158C126.501 152.533 127.01 152.744 127.54 152.744H207.551C208.081 152.744 208.59 152.533 208.965 152.158C209.34 151.783 209.551 151.274 209.551 150.744V106.087C209.551 105.557 209.34 105.048 208.965 104.673C208.59 104.298 208.081 104.087 207.551 104.087H127.54Z" fill="#E6E6E6"/><path id="Path 22" d="M109.681 367.987H29.669C28.7851 367.986 27.9377 367.634 27.3127 367.009C26.6877 366.384 26.3361 365.537 26.335 364.653V281.325C26.3361 280.441 26.6877 279.594 27.3127 278.969C27.9377 278.344 28.7851 277.992 29.669 277.991H109.68C110.564 277.992 111.411 278.344 112.036 278.969C112.661 279.594 113.013 280.441 113.014 281.325V364.653C113.013 365.537 112.661 366.384 112.037 367.009C111.412 367.634 110.565 367.986 109.681 367.987ZM29.67 279.325C29.1396 279.325 28.6309 279.536 28.2558 279.911C27.8807 280.286 27.67 280.795 27.67 281.325V364.653C27.67 365.183 27.8807 365.692 28.2558 366.067C28.6309 366.442 29.1396 366.653 29.67 366.653H109.681C110.211 366.653 110.72 366.442 111.095 366.067C111.47 365.692 111.681 365.183 111.681 364.653V281.325C111.681 280.795 111.47 280.286 111.095 279.911C110.72 279.536 110.211 279.325 109.681 279.325H29.67Z" fill="#E6E6E6"/><path id="Path 23" d="M207.551 367.987H127.537C126.653 367.986 125.806 367.634 125.181 367.009C124.556 366.384 124.204 365.537 124.203 364.653V281.325C124.204 280.441 124.556 279.594 125.181 278.969C125.806 278.344 126.653 277.992 127.537 277.991H207.551C208.435 277.992 209.282 278.344 209.907 278.969C210.532 279.594 210.884 280.441 210.885 281.325V364.653C210.884 365.537 210.532 366.384 209.907 367.009C209.282 367.634 208.435 367.986 207.551 367.987V367.987ZM127.54 279.325C127.01 279.325 126.501 279.536 126.126 279.911C125.751 280.286 125.54 280.795 125.54 281.325V364.653C125.54 365.183 125.751 365.692 126.126 366.067C126.501 366.442 127.01 366.653 127.54 366.653H207.551C208.081 366.653 208.59 366.442 208.965 366.067C209.34 365.692 209.551 365.183 209.551 364.653V281.325C209.551 280.795 209.34 280.286 208.965 279.911C208.59 279.536 208.081 279.325 207.551 279.325H127.54Z" fill="#E6E6E6"/><path id="Ellipse 2" d="M57.642 71.541C65.142 71.541 71.222 65.461 71.222 57.961C71.222 50.461 65.142 44.381 57.642 44.381C50.142 44.381 44.062 50.461 44.062 57.961C44.062 65.461 50.142 71.541 57.642 71.541Z" fill="#E6E6E6"/><path id="Path 28" d="M88.394 48.908C87.7937 48.908 87.2179 49.1465 86.7935 49.571C86.369 49.9954 86.1305 50.5712 86.1305 51.1715C86.1305 51.7718 86.369 52.3475 86.7935 52.772C87.2179 53.1965 87.7937 53.435 88.394 53.435H195.094C195.391 53.4356 195.686 53.3777 195.961 53.2646C196.235 53.1515 196.485 52.9853 196.696 52.7756C196.907 52.5658 197.074 52.3167 197.188 52.0423C197.303 51.7679 197.362 51.4737 197.363 51.1765C197.363 50.8792 197.305 50.5848 197.192 50.3099C197.079 50.035 196.913 49.7851 196.703 49.5745C196.493 49.3638 196.244 49.1966 195.97 49.0822C195.695 48.9678 195.401 48.9086 195.104 48.908H88.394Z" fill="#E6E6E6"/><path id="Path 29" d="M88.501 62.487C87.9007 62.487 87.3249 62.7255 86.9005 63.15C86.476 63.5745 86.2375 64.1502 86.2375 64.7505C86.2375 65.3508 86.476 65.9266 86.9005 66.351C87.3249 66.7755 87.9007 67.014 88.501 67.014H134.414C135.014 67.0153 135.591 66.7781 136.016 66.3546C136.441 65.931 136.681 65.3558 136.682 64.7555C136.684 64.1552 136.447 63.5789 136.023 63.1535C135.6 62.7281 135.024 62.4883 134.424 62.487H88.501Z" fill="#E6E6E6"/><path id="Path 30" d="M109.61 154.047H34.556L52.22 123.453C52.5366 122.905 52.992 122.45 53.5402 122.133C54.0885 121.817 54.7104 121.65 55.3435 121.65C55.9766 121.65 56.5985 121.817 57.1468 122.133C57.6951 122.45 58.1504 122.905 58.467 123.453L66.013 136.522L78.843 114.3C79.2394 113.613 79.8095 113.043 80.496 112.647C81.1825 112.251 81.9613 112.042 82.754 112.042C83.5467 112.042 84.3255 112.251 85.012 112.647C85.6986 113.043 86.2687 113.613 86.665 114.3L109.61 154.047ZM36.862 152.714H107.3L85.506 114.967C85.2268 114.483 84.8251 114.081 84.3413 113.802C83.8575 113.523 83.3087 113.375 82.75 113.375C82.1914 113.375 81.6426 113.523 81.1588 113.802C80.675 114.081 80.2733 114.483 79.994 114.967L66.009 139.19L57.309 124.12C57.1095 123.774 56.8226 123.487 56.477 123.288C56.1315 123.088 55.7395 122.983 55.3405 122.983C54.9415 122.983 54.5495 123.088 54.204 123.288C53.8585 123.487 53.5715 123.774 53.372 124.12L36.862 152.714Z" fill="#E6E6E6"/><path id="Path 31" d="M204.808 154.048H129.748L147.408 123.454C147.725 122.906 148.18 122.451 148.728 122.134C149.276 121.818 149.898 121.651 150.531 121.651C151.165 121.651 151.786 121.818 152.335 122.134C152.883 122.451 153.338 122.906 153.655 123.454L161.208 136.523L174.038 114.301C174.434 113.614 175.004 113.044 175.691 112.648C176.377 112.252 177.156 112.043 177.949 112.043C178.742 112.043 179.52 112.252 180.207 112.648C180.894 113.044 181.464 113.614 181.86 114.301L204.808 154.048ZM132.06 152.715H202.498L180.704 114.968C180.425 114.484 180.023 114.082 179.539 113.803C179.055 113.524 178.507 113.376 177.948 113.376C177.389 113.376 176.841 113.524 176.357 113.803C175.873 114.082 175.471 114.484 175.192 114.968L161.208 139.19L152.508 124.12C152.308 123.774 152.022 123.487 151.676 123.288C151.33 123.088 150.938 122.983 150.539 122.983C150.14 122.983 149.748 123.088 149.403 123.288C149.057 123.487 148.77 123.774 148.571 124.12L132.06 152.715Z" fill="#E6E6E6"/><path id="Path 32" d="M109.681 154.077H29.67C28.7861 154.076 27.9387 153.724 27.3137 153.099C26.6887 152.474 26.3371 151.627 26.336 150.743V106.087C26.3373 105.203 26.689 104.356 27.314 103.731C27.939 103.107 28.7863 102.755 29.67 102.754H109.681C110.565 102.755 111.412 103.107 112.037 103.732C112.662 104.357 113.014 105.204 113.015 106.088V150.744C113.014 151.628 112.662 152.475 112.037 153.1C111.412 153.724 110.565 154.076 109.681 154.077V154.077ZM29.67 104.087C29.1396 104.087 28.6309 104.298 28.2558 104.673C27.8807 105.048 27.67 105.557 27.67 106.087V150.744C27.67 151.274 27.8807 151.783 28.2558 152.158C28.6309 152.533 29.1396 152.744 29.67 152.744H109.681C110.211 152.744 110.72 152.533 111.095 152.158C111.47 151.783 111.681 151.274 111.681 150.744V106.087C111.681 105.557 111.47 105.048 111.095 104.673C110.72 104.298 110.211 104.087 109.681 104.087H29.67Z" fill="#E6E6E6"/><path id="Path 33" d="M46.719 295.701C46.1187 295.701 45.543 295.939 45.1185 296.364C44.694 296.788 44.4555 297.364 44.4555 297.965C44.4555 298.565 44.694 299.141 45.1185 299.565C45.543 299.99 46.1187 300.228 46.719 300.228H92.632C93.2323 300.228 93.8081 299.99 94.2325 299.565C94.657 299.141 94.8955 298.565 94.8955 297.965C94.8955 297.364 94.657 296.788 94.2325 296.364C93.8081 295.939 93.2323 295.701 92.632 295.701H46.719Z" fill="#E6E6E6"/><path id="Path 34" d="M46.719 308.97C46.1187 308.97 45.543 309.208 45.1185 309.633C44.694 310.057 44.4555 310.633 44.4555 311.233C44.4555 311.834 44.694 312.41 45.1185 312.834C45.543 313.259 46.1187 313.497 46.719 313.497H92.632C93.2323 313.497 93.8081 313.259 94.2325 312.834C94.657 312.41 94.8955 311.834 94.8955 311.233C94.8955 310.633 94.657 310.057 94.2325 309.633C93.8081 309.208 93.2323 308.97 92.632 308.97H46.719Z" fill="#E6E6E6"/><path id="Path 35" d="M69.676 350.803C66.8582 350.803 64.1037 349.967 61.7608 348.402C59.4179 346.836 57.5918 344.611 56.5134 342.008C55.4351 339.405 55.153 336.54 55.7027 333.777C56.2524 331.013 57.6093 328.474 59.6018 326.482C61.5943 324.489 64.1329 323.132 66.8965 322.583C69.6601 322.033 72.5248 322.315 75.1281 323.394C77.7314 324.472 79.9564 326.298 81.5219 328.641C83.0874 330.984 83.923 333.738 83.923 336.556V336.556C83.9187 340.333 82.4164 343.955 79.7454 346.625C77.0745 349.296 73.4532 350.799 69.676 350.803V350.803ZM69.676 323.643C67.122 323.643 64.6254 324.4 62.5019 325.819C60.3783 327.238 58.7233 329.255 57.7459 331.614C56.7685 333.974 56.5128 336.57 57.0111 339.075C57.5093 341.58 58.7392 343.881 60.5451 345.687C62.351 347.493 64.6519 348.723 67.1568 349.221C69.6616 349.719 72.258 349.463 74.6176 348.486C76.9771 347.509 78.9938 345.854 80.4127 343.73C81.8316 341.607 82.589 339.11 82.589 336.556V336.556C82.5847 333.133 81.2229 329.851 78.8021 327.43C76.3813 325.01 73.0993 323.648 69.676 323.644V323.643Z" fill="#E6E6E6"/><path id="Path 36" d="M190.479 350.804C191.079 350.804 191.655 350.566 192.08 350.141C192.504 349.717 192.743 349.141 192.743 348.54C192.743 347.94 192.504 347.364 192.08 346.94C191.655 346.515 191.079 346.277 190.479 346.277H144.565C143.965 346.277 143.389 346.515 142.964 346.94C142.54 347.364 142.302 347.94 142.302 348.54C142.302 349.141 142.54 349.717 142.964 350.141C143.389 350.566 143.965 350.804 144.565 350.804H190.479Z" fill="#E6E6E6"/><path id="Path 37" d="M190.479 337.468C191.079 337.468 191.655 337.23 192.08 336.805C192.504 336.381 192.743 335.805 192.743 335.205C192.743 334.604 192.504 334.028 192.08 333.604C191.655 333.18 191.079 332.941 190.479 332.941H144.565C143.965 332.941 143.389 333.18 142.964 333.604C142.54 334.028 142.302 334.604 142.302 335.205C142.302 335.805 142.54 336.381 142.964 336.805C143.389 337.23 143.965 337.468 144.565 337.468H190.479Z" fill="#E6E6E6"/><path id="Path 38" d="M167.512 295.604C170.33 295.604 173.084 296.44 175.427 298.005C177.77 299.571 179.596 301.796 180.675 304.399C181.753 307.002 182.035 309.867 181.485 312.63C180.936 315.394 179.579 317.933 177.586 319.925C175.594 321.918 173.055 323.274 170.291 323.824C167.528 324.374 164.663 324.092 162.06 323.013C159.457 321.935 157.232 320.109 155.666 317.766C154.101 315.423 153.265 312.669 153.265 309.851V309.851C153.269 306.074 154.772 302.452 157.443 299.781C160.113 297.111 163.735 295.608 167.512 295.604V295.604ZM167.512 322.764C170.066 322.764 172.563 322.007 174.686 320.588C176.81 319.169 178.465 317.152 179.442 314.793C180.419 312.433 180.675 309.837 180.177 307.332C179.679 304.827 178.449 302.526 176.643 300.72C174.837 298.914 172.536 297.684 170.031 297.186C167.526 296.688 164.93 296.944 162.57 297.921C160.211 298.898 158.194 300.553 156.775 302.677C155.356 304.8 154.599 307.297 154.599 309.851C154.605 313.274 155.967 316.554 158.388 318.974C160.808 321.394 164.089 322.755 167.512 322.759V322.764Z" fill="#E6E6E6"/><path id="scale_2" style="transform-origin: center; transform-box: fill-box; animation: bounce-in-fwd 4s linear infinite alternate;" opacity="0.3" d="M145.841 116.278C164.466 116.278 179.564 101.18 179.564 82.555C179.564 63.9303 164.466 48.832 145.841 48.832C127.216 48.832 112.118 63.9303 112.118 82.555C112.118 101.18 127.216 116.278 145.841 116.278Z" fill="#0064AD"/><path id="scale_1" style="transform-origin: center; transform-box: fill-box; animation: pulsecust 2s linear infinite alternate;" opacity="0.3" d="M145.82 105.037C158.236 105.037 168.302 94.9715 168.302 82.555C168.302 70.1385 158.236 60.073 145.82 60.073C133.404 60.073 123.338 70.1385 123.338 82.555C123.338 94.9715 133.404 105.037 145.82 105.037Z" fill="#0064AD"/><path id="Ellipse 5" d="M145.81 97.799C154.433 97.799 161.423 90.8088 161.423 82.186C161.423 73.5632 154.433 66.573 145.81 66.573C137.187 66.573 130.197 73.5632 130.197 82.186C130.197 90.8088 137.187 97.799 145.81 97.799Z" fill="#0064AD"/><path id="scale_3" style="transform-origin: center; transform-box: fill-box; animation: pulsecust 2s linear infinite alternate;" opacity="0.3" d="M69.717 333.774C83.486 333.774 94.648 322.612 94.648 308.843C94.648 295.074 83.486 283.912 69.717 283.912C55.948 283.912 44.786 295.074 44.786 308.843C44.786 322.612 55.948 333.774 69.717 333.774Z" fill="#1D89D6"/><path id="scale_4" style="transform-origin: center; transform-box: fill-box; animation: bounce-in-fwd 4s linear infinite alternate;" opacity="0.3" d="M69.718 325.492C78.8975 325.492 86.339 318.051 86.339 308.871C86.339 299.691 78.8975 292.25 69.718 292.25C60.5385 292.25 53.097 299.691 53.097 308.871C53.097 318.051 60.5385 325.492 69.718 325.492Z" fill="#1D89D6"/><path id="Ellipse 8" d="M69.483 320.429C75.8574 320.429 81.025 315.261 81.025 308.887C81.025 302.513 75.8574 297.345 69.483 297.345C63.1085 297.345 57.941 302.513 57.941 308.887C57.941 315.261 63.1085 320.429 69.483 320.429Z" fill="#1D89D6"/><g id="Group 185"><g id="Logo"><g id="Group 1"><path id="Path 1" fill-rule="evenodd" clip-rule="evenodd" d="M139.13 224.936C139.135 225.271 138.909 225.343 138.794 225.501C138.179 226.351 138.307 227.034 139.194 227.506C140.603 228.111 142.109 228.46 143.641 228.536C150 229.445 156.473 229.156 162.725 227.682C163.299 227.492 163.91 227.443 164.507 227.539C165.104 227.636 165.669 227.875 166.154 228.237C167.509 229.124 168.928 229.908 170.4 230.584C169.272 231.236 168.075 231.761 166.832 232.15C161.723 233.981 156.325 234.871 150.899 234.777C146.774 234.81 142.677 234.099 138.804 232.677C137.514 232.241 136.334 231.53 135.344 230.595C134.052 229.277 134.08 228.003 135.471 226.809C136.552 225.944 137.797 225.307 139.13 224.936V224.936Z" fill="#004A76"/><path id="Path 2" fill-rule="evenodd" clip-rule="evenodd" d="M180.047 206.037C178.515 207.116 177.116 208.38 175.618 209.359C174.552 209.943 173.398 210.349 172.201 210.559C166.257 212.059 160.182 212.977 154.06 213.298C148.266 213.678 142.451 213.557 136.678 212.934C133.38 212.719 130.14 211.958 127.092 210.681C126.72 210.51 126.368 210.299 126.042 210.052C124.852 209.133 124.801 208.041 125.897 206.945C126.695 206.204 127.591 205.575 128.559 205.076C132.608 202.651 137.125 201.11 141.812 200.556C142.489 200.487 143.174 200.547 144.112 200.547C142.3 201.262 140.712 201.847 139.135 202.521C137.286 203.212 135.554 204.182 133.998 205.396C133.721 205.564 133.491 205.8 133.33 206.082C133.17 206.364 133.084 206.682 133.08 207.006C133.138 207.817 133.764 208.068 134.255 208.284C136.661 209.194 139.213 209.657 141.786 209.651C147.705 209.921 153.635 209.785 159.535 209.242C166.292 208.666 172.999 207.616 179.609 206.1C179.751 206.065 179.9 206.056 180.047 206.037Z" fill="#004A76"/><path id="Path 3" fill-rule="evenodd" clip-rule="evenodd" d="M135.306 212.975C134.989 213.475 134.761 213.823 134.55 214.184C133.55 215.907 133.887 217.296 135.481 218.012C136.404 218.423 137.38 218.7 138.381 218.834C147.069 220.118 155.91 219.957 164.546 218.357C166.512 217.978 168.469 217.505 170.421 217.02C170.758 216.909 171.122 216.906 171.461 217.012C171.801 217.118 172.098 217.327 172.312 217.611C173.457 218.924 174.875 219.97 176.468 220.675C175 221.441 173.44 222.015 171.825 222.381C166.001 224.11 159.992 225.139 153.925 225.445C147.547 225.767 141.193 225.495 134.957 223.511C133.244 223.04 131.654 222.203 130.296 221.058C129.909 220.772 129.594 220.402 129.373 219.975C129.152 219.548 129.032 219.076 129.022 218.596C129.013 218.115 129.114 217.639 129.317 217.203C129.521 216.768 129.821 216.385 130.196 216.084C131.646 214.679 133.392 213.617 135.306 212.975V212.975Z" fill="#1D77B8"/><path id="Path 4" d="M186.253 233.76C185.732 233.152 185.292 232.48 184.943 231.76C184.524 230.935 184.091 230.001 183.643 228.96C183.169 227.868 182.614 226.813 181.984 225.803C181.273 224.669 180.483 223.586 179.62 222.563C178.803 221.586 177.884 220.7 176.878 219.919C175.962 219.206 174.96 218.613 173.895 218.152C173.192 217.849 172.449 217.651 171.688 217.564L167.366 217.601L167.39 220.383C168.379 220.406 169.353 220.621 170.26 221.015C171.325 221.476 172.327 222.069 173.243 222.782C174.249 223.563 175.169 224.449 175.986 225.426C176.849 226.449 177.639 227.532 178.35 228.666C178.98 229.676 179.535 230.731 180.009 231.823C180.46 232.866 180.893 233.8 181.309 234.623C181.658 235.343 182.098 236.015 182.619 236.623C182.83 236.869 183.093 237.065 183.389 237.196C183.685 237.327 184.007 237.39 184.331 237.38C184.771 237.379 185.205 237.268 185.592 237.059C185.978 236.852 186.32 236.571 186.6 236.234C186.882 235.896 187.107 235.514 187.266 235.103C187.347 234.897 187.408 234.684 187.45 234.466C186.984 234.369 186.563 234.121 186.253 233.76V233.76Z" fill="#1D77B8"/><path id="Path 5" fill-rule="evenodd" clip-rule="evenodd" d="M168.361 220.217C168.952 219.117 170.038 218.679 170.927 218.017C174.271 215.73 177.179 212.863 179.513 209.552C180.861 207.683 181.587 205.438 181.588 203.134C181.413 198.246 176.321 194.785 171.441 196.184C170.647 196.412 169.874 196.703 169.041 196.984C169.061 196.715 169.158 196.457 169.321 196.242C169.484 196.026 169.705 195.862 169.958 195.769C173.601 193.669 178.958 193.169 182.899 195.769C187.187 198.595 188.114 203.813 185.206 208.575C183.056 211.814 180.147 214.478 176.732 216.335C174.453 217.703 172.057 218.865 169.572 219.806C169.177 219.95 168.767 220.077 168.361 220.217Z" fill="#1D77B8"/></g><g id="Group 2"><path id="Path 6" d="M66.991 204.915C68.245 204.836 68.8723 204.618 68.873 204.259C68.8694 204.222 68.8561 204.186 68.8343 204.156C68.8125 204.126 68.783 204.102 68.749 204.087C68.6663 204.037 68.5663 203.983 68.449 203.926C68.3316 203.869 68.201 203.802 68.057 203.726C67.9142 203.651 67.7823 203.557 67.665 203.446C67.5433 203.33 67.4419 203.195 67.365 203.046C67.278 202.869 67.2354 202.673 67.241 202.476C67.2382 202.186 67.3349 201.903 67.515 201.676C67.7197 201.421 67.9716 201.207 68.257 201.047C68.5992 200.851 68.9638 200.698 69.343 200.59C69.7744 200.464 70.2146 200.37 70.66 200.31V201.697C70.1757 201.744 69.699 201.85 69.241 202.014C68.947 202.139 68.8 202.284 68.8 202.449C68.8022 202.488 68.815 202.525 68.8368 202.558C68.8586 202.59 68.8887 202.615 68.924 202.632C69.0066 202.682 69.1066 202.736 69.224 202.793L69.616 202.981C69.7589 203.049 69.891 203.137 70.008 203.244C70.128 203.354 70.2293 203.483 70.308 203.626C70.3952 203.793 70.4379 203.98 70.432 204.169C70.4272 204.422 70.3547 204.669 70.222 204.884C70.0611 205.146 69.8447 205.37 69.588 205.54C69.2568 205.76 68.8944 205.928 68.513 206.04C68.0184 206.186 67.5074 206.269 66.992 206.287L66.991 204.915ZM76.183 207.775C76.183 208.148 76.1936 208.47 76.215 208.743C76.2263 208.983 76.2986 209.216 76.425 209.42C76.5576 209.611 76.7506 209.752 76.973 209.82C77.3132 209.918 77.667 209.962 78.021 209.949V212.873H77.53C76.9944 212.889 76.4626 212.78 75.976 212.556C75.5584 212.353 75.2228 212.014 75.025 211.594H74.96C74.6476 211.92 74.2705 212.176 73.853 212.347C73.3947 212.533 72.9176 212.669 72.43 212.753C71.8794 212.85 71.3227 212.907 70.764 212.925C70.1693 212.946 69.5493 212.957 68.904 212.957C68.2373 212.957 67.5833 212.948 66.942 212.93C66.3006 212.912 65.6966 212.867 65.13 212.796C64.5961 212.732 64.069 212.621 63.555 212.463C63.1102 212.331 62.6945 212.115 62.33 211.828C62.0766 211.633 61.8584 211.396 61.685 211.128C61.5133 210.86 61.3728 210.573 61.266 210.273C61.158 209.97 61.0806 209.657 61.035 209.338C60.9885 209.017 60.9651 208.694 60.965 208.37C60.9643 207.877 61.0021 207.384 61.078 206.897C61.1533 206.417 61.2533 205.94 61.378 205.467H63.678C63.6206 205.734 63.5703 205.972 63.527 206.182C63.4836 206.392 63.446 206.589 63.414 206.773C63.382 206.956 63.3586 207.133 63.344 207.305C63.3293 207.477 63.3223 207.653 63.323 207.832C63.3185 208.118 63.3545 208.402 63.43 208.678C63.5232 208.962 63.706 209.207 63.951 209.378C64.1609 209.534 64.395 209.654 64.644 209.733C64.9819 209.839 65.3296 209.911 65.682 209.948C66.098 209.998 66.5926 210.031 67.166 210.048C67.7393 210.065 68.4203 210.074 69.209 210.075C70.155 210.075 70.931 210.062 71.537 210.037C72.0202 210.032 72.5008 209.965 72.967 209.837C73.264 209.763 73.5227 209.58 73.693 209.326C73.8429 209.03 73.9119 208.7 73.893 208.369V196.303H76.183V207.775ZM77.7 213.989H83.473V215.236H77.7V213.989ZM79.442 212.871H78.023C77.9001 212.871 77.7802 212.834 77.6793 212.764C77.5785 212.694 77.5016 212.594 77.459 212.479C77.3187 212.14 77.2542 211.775 77.27 211.409C77.2538 211.043 77.318 210.678 77.458 210.339C77.5006 210.224 77.5775 210.124 77.6783 210.054C77.7792 209.984 77.8991 209.947 78.022 209.947H79.549C79.8356 209.947 80.0866 209.936 80.302 209.915C80.4907 209.902 80.6734 209.843 80.834 209.743C80.9817 209.639 81.0913 209.49 81.146 209.318C81.2229 209.059 81.2567 208.788 81.246 208.518V203.409H83.536V208.591C83.56 209.321 83.4449 210.049 83.197 210.736C83.0087 211.239 82.6996 211.687 82.297 212.042C81.9187 212.358 81.4713 212.581 80.991 212.692C80.4831 212.812 79.9629 212.872 79.441 212.871H79.442ZM81.83 201.249H79.303V198.98H81.83V201.249ZM85.507 201.249H82.98V198.98H85.507V201.249ZM85.376 214.473C85.77 214.624 86.1366 214.749 86.476 214.849C86.8153 214.949 87.136 215.031 87.438 215.096C87.7217 215.158 88.0089 215.202 88.298 215.23C88.5706 215.255 88.8393 215.268 89.104 215.268C89.5324 215.278 89.9597 215.22 90.37 215.096C90.6849 214.998 90.9799 214.845 91.241 214.644C91.4631 214.47 91.6492 214.254 91.789 214.009C91.919 213.783 92.0198 213.541 92.089 213.289C92.103 213.239 92.119 213.169 92.137 213.079C92.155 212.989 92.171 212.901 92.185 212.816H91.217C90.0442 212.896 88.8824 212.547 87.949 211.832C87.5624 211.473 87.2605 211.033 87.0653 210.543C86.87 210.053 86.7862 209.525 86.82 208.999C86.8237 208.404 86.9251 207.814 87.12 207.252C87.3062 206.691 87.5759 206.162 87.92 205.682C88.2366 205.236 88.6341 204.853 89.092 204.553C89.5102 204.272 90.0021 204.121 90.506 204.118C91.0484 204.113 91.5788 204.278 92.022 204.591C92.5507 204.993 92.9929 205.498 93.322 206.075C93.6545 206.623 93.9127 207.213 94.09 207.829C94.2948 208.52 94.4334 209.229 94.504 209.947H96.404V212.871H94.469C94.3851 213.607 94.2038 214.328 93.93 215.016C93.6836 215.642 93.3247 216.219 92.871 216.716C92.4227 217.198 91.8773 217.579 91.271 217.834C90.5892 218.113 89.8574 218.249 89.121 218.234C88.8196 218.234 88.5223 218.22 88.229 218.191C87.9263 218.161 87.6257 218.113 87.329 218.046C87.0243 217.979 86.7106 217.893 86.388 217.788C86.0653 217.683 85.728 217.556 85.376 217.409V214.473ZM92.01 209.173C91.9243 208.915 91.8241 208.662 91.71 208.415C91.6046 208.184 91.4787 207.963 91.334 207.754C91.2124 207.576 91.0636 207.418 90.893 207.286C90.7556 207.175 90.5854 207.113 90.409 207.109C90.2172 207.111 90.0316 207.177 89.882 207.297C89.7157 207.424 89.5706 207.577 89.452 207.749C89.3316 207.922 89.2341 208.11 89.162 208.308C89.0963 208.474 89.0598 208.65 89.054 208.829C89.0315 209.019 89.0679 209.212 89.1581 209.381C89.2484 209.55 89.3883 209.688 89.559 209.775C90.0388 209.958 90.5513 210.038 91.064 210.012H92.204C92.1753 209.883 92.1466 209.743 92.118 209.593C92.0914 209.451 92.0553 209.31 92.01 209.173V209.173ZM97.826 212.873H96.407C96.2841 212.873 96.1642 212.836 96.0633 212.766C95.9625 212.696 95.8855 212.596 95.843 212.481C95.703 212.142 95.6388 211.777 95.655 211.411C95.6388 211.045 95.703 210.68 95.843 210.341C95.8855 210.226 95.9625 210.126 96.0633 210.056C96.1642 209.986 96.2841 209.949 96.407 209.949H97.93C98.1921 209.951 98.4542 209.939 98.715 209.911C98.9024 209.896 99.0833 209.835 99.242 209.734C99.3875 209.631 99.4934 209.481 99.542 209.309C99.6112 209.052 99.6419 208.785 99.633 208.519V203.409H101.923V207.774C101.923 208.147 101.934 208.469 101.955 208.742C101.966 208.982 102.039 209.215 102.165 209.419C102.298 209.61 102.491 209.751 102.713 209.819C103.053 209.917 103.407 209.961 103.761 209.948V212.872H103.266C102.718 212.885 102.173 212.782 101.666 212.572C101.236 212.388 100.888 212.054 100.688 211.631H100.623C100.45 211.868 100.239 212.076 99.999 212.244C99.7767 212.398 99.5367 212.524 99.284 212.62C99.0428 212.712 98.7923 212.777 98.537 212.814C98.3029 212.85 98.0667 212.869 97.83 212.871L97.826 212.873ZM101.836 216.593H99.31V214.322H101.837L101.836 216.593ZM105.18 212.873H103.761C103.638 212.873 103.518 212.836 103.417 212.766C103.316 212.696 103.24 212.596 103.197 212.481C103.057 212.142 102.993 211.777 103.009 211.411C102.993 211.045 103.057 210.68 103.197 210.341C103.24 210.226 103.316 210.126 103.417 210.056C103.518 209.986 103.638 209.949 103.761 209.949H105.288C105.575 209.949 105.826 209.938 106.041 209.917C106.23 209.904 106.412 209.845 106.573 209.745C106.721 209.641 106.83 209.492 106.885 209.32C106.962 209.061 106.996 208.79 106.985 208.52V203.409H109.275V208.591C109.299 209.321 109.184 210.049 108.936 210.736C108.748 211.239 108.439 211.687 108.036 212.042C107.658 212.358 107.21 212.581 106.73 212.692C106.222 212.812 105.702 212.872 105.18 212.871V212.873ZM106.739 216.485H104.212V214.215H106.739V216.485ZM110.416 216.485H107.889V214.215H110.416V216.485ZM111.116 214.872C111.611 215.015 112.025 215.117 112.358 215.178C112.661 215.236 112.969 215.266 113.277 215.269C113.768 215.289 114.256 215.183 114.695 214.962C115.049 214.769 115.346 214.485 115.555 214.14C115.771 213.773 115.915 213.368 115.98 212.947C116.057 212.474 116.095 211.996 116.093 211.517C116.092 211.037 116.058 210.558 115.993 210.082C115.924 209.581 115.827 209.084 115.703 208.593C115.574 208.077 115.414 207.532 115.225 206.959C115.036 206.386 114.819 205.759 114.575 205.078H117.112C117.334 205.63 117.529 206.189 117.698 206.755C117.867 207.321 118.008 207.888 118.123 208.455C118.238 209.021 118.324 209.576 118.381 210.121C118.437 210.642 118.466 211.167 118.467 211.691C118.488 212.689 118.348 213.684 118.053 214.637C117.82 215.384 117.44 216.076 116.935 216.674C116.491 217.189 115.933 217.595 115.306 217.857C114.685 218.112 114.02 218.242 113.349 218.239C113.001 218.239 112.653 218.206 112.311 218.139C111.903 218.054 111.501 217.937 111.111 217.79L111.116 214.872Z" fill="#004A76"/><path id="Path 7" opacity="0.5" d="M71.312 232.044L70.02 229.203C69.849 228.753 69.575 228.349 69.22 228.023C68.929 227.815 68.5773 227.71 68.22 227.723H67.02V232.044H66.35V222.344H69.042C69.7798 222.302 70.5047 222.551 71.061 223.037C71.3059 223.273 71.498 223.558 71.6246 223.873C71.7511 224.189 71.8092 224.527 71.795 224.867C71.8168 225.505 71.6032 226.128 71.195 226.619C70.7541 227.109 70.1553 227.428 69.503 227.522V227.544C70.0312 227.864 70.4296 228.359 70.628 228.944L72.069 232.044H71.312ZM67.012 222.96V227.113H68.683C69.3225 227.147 69.9515 226.939 70.445 226.531C70.6649 226.329 70.8375 226.081 70.9503 225.804C71.0632 225.527 71.1136 225.229 71.098 224.931C71.1125 224.661 71.0673 224.391 70.9657 224.14C70.8641 223.889 70.7085 223.664 70.51 223.48C70.0331 223.102 69.4329 222.916 68.826 222.956L67.012 222.96ZM74.047 228.608C73.9995 229.406 74.2326 230.196 74.706 230.84C74.9248 231.105 75.2022 231.315 75.5161 231.453C75.8301 231.592 76.1721 231.656 76.515 231.64C77.348 231.619 78.1494 231.316 78.788 230.781V231.444C78.0896 231.947 77.2489 232.215 76.388 232.208C75.9782 232.222 75.5706 232.142 75.1959 231.976C74.8211 231.81 74.4888 231.561 74.224 231.248C73.6317 230.473 73.3401 229.509 73.403 228.536C73.3746 227.609 73.6805 226.703 74.265 225.983C74.5327 225.649 74.874 225.382 75.2622 225.201C75.6505 225.021 76.0751 224.933 76.503 224.944C76.882 224.923 77.2605 224.994 77.6058 225.152C77.9511 225.31 78.2528 225.55 78.485 225.85C78.9811 226.577 79.2236 227.447 79.175 228.326V228.603L74.047 228.608ZM78.525 228.04C78.5406 227.374 78.3388 226.721 77.95 226.18C77.7734 225.961 77.5479 225.788 77.2916 225.672C77.0354 225.557 76.7556 225.504 76.475 225.517C76.1756 225.508 75.8776 225.562 75.5999 225.674C75.3223 225.787 75.071 225.955 74.862 226.17C74.3991 226.689 74.1219 227.347 74.074 228.04H78.525ZM81.542 230.813H81.515V235.226H80.893V225.114H81.515V226.544H81.542C81.7724 226.054 82.1431 225.643 82.607 225.364C83.0679 225.085 83.5972 224.94 84.136 224.944C84.5265 224.925 84.9161 224.997 85.2738 225.155C85.6315 225.313 85.9473 225.552 86.196 225.854C86.7238 226.566 86.9859 227.441 86.937 228.326C86.9844 229.332 86.6847 230.324 86.088 231.136C85.8264 231.48 85.4865 231.757 85.0966 231.943C84.7067 232.13 84.278 232.22 83.846 232.208C83.3675 232.226 82.8943 232.103 82.4852 231.854C82.0761 231.606 81.7491 231.242 81.545 230.809L81.542 230.813ZM81.515 228.236V229.109C81.5014 229.767 81.7355 230.405 82.171 230.898C82.3856 231.144 82.6526 231.338 82.9523 231.468C83.252 231.597 83.5769 231.657 83.903 231.644C84.2436 231.648 84.5799 231.567 84.8811 231.408C85.1824 231.249 85.4392 231.018 85.628 230.734C86.0973 230.028 86.3283 229.191 86.287 228.344C86.3265 227.607 86.1114 226.879 85.678 226.281C85.4872 226.034 85.2406 225.836 84.9585 225.704C84.6763 225.571 84.3667 225.507 84.055 225.517C83.701 225.497 83.3474 225.561 83.0221 225.702C82.6968 225.843 82.4088 226.057 82.181 226.329C81.7415 226.865 81.5065 227.539 81.518 228.232L81.515 228.236ZM91.431 232.213C90.9819 232.234 90.5337 232.156 90.1186 231.983C89.7036 231.81 89.3321 231.547 89.031 231.213C88.4217 230.49 88.1065 229.564 88.148 228.619C88.0895 227.633 88.421 226.663 89.071 225.919C89.3853 225.593 89.7651 225.338 90.1854 225.17C90.6056 225.002 91.0568 224.925 91.509 224.944C91.9462 224.923 92.3826 224.999 92.7871 225.166C93.1917 225.333 93.5542 225.587 93.849 225.911C94.4592 226.666 94.7655 227.621 94.708 228.59C94.7515 229.541 94.4392 230.475 93.832 231.208C93.5319 231.543 93.161 231.806 92.7461 231.979C92.3312 232.153 91.883 232.231 91.434 232.209L91.431 232.213ZM91.478 225.513C91.112 225.497 90.747 225.563 90.4096 225.706C90.0722 225.849 89.7707 226.064 89.527 226.338C89.0103 226.986 88.7523 227.803 88.803 228.631C88.7641 229.422 89.0168 230.199 89.513 230.816C89.7536 231.091 90.0531 231.308 90.3892 231.45C90.7252 231.593 91.0892 231.658 91.454 231.641C91.8161 231.662 92.1782 231.6 92.5125 231.459C92.8468 231.319 93.1443 231.103 93.382 230.829C93.8666 230.182 94.1061 229.384 94.058 228.577C94.1123 227.763 93.8736 226.957 93.385 226.304C93.1482 226.037 92.8539 225.827 92.5243 225.69C92.1947 225.553 91.8383 225.492 91.482 225.513H91.478ZM99.166 231.944C98.8824 232.087 98.5706 232.166 98.253 232.174C97.2296 232.174 96.718 231.561 96.718 230.334V225.682H95.473V225.114H96.718V223.314C96.8173 223.278 96.921 223.242 97.029 223.206C97.137 223.17 97.2406 223.137 97.34 223.106V225.114H99.166V225.682H97.34V230.254C97.3119 230.615 97.3909 230.976 97.567 231.292C97.6582 231.405 97.7762 231.494 97.9103 231.55C98.0444 231.606 98.1904 231.628 98.335 231.613C98.6291 231.602 98.9156 231.516 99.167 231.363L99.166 231.944ZM100.688 228.603C100.64 229.401 100.874 230.191 101.347 230.835C101.566 231.1 101.843 231.31 102.157 231.448C102.471 231.587 102.813 231.651 103.156 231.635C103.989 231.614 104.79 231.311 105.429 230.776V231.444C104.731 231.947 103.89 232.215 103.029 232.208C102.619 232.222 102.21 232.142 101.835 231.975C101.46 231.808 101.128 231.558 100.863 231.244C100.269 230.469 99.9762 229.506 100.038 228.532C100.011 227.606 100.318 226.701 100.903 225.983C101.171 225.649 101.513 225.381 101.901 225.201C102.29 225.021 102.715 224.933 103.143 224.944C103.522 224.923 103.901 224.994 104.246 225.152C104.591 225.31 104.893 225.55 105.125 225.85C105.621 226.577 105.864 227.447 105.815 228.326V228.603H100.688ZM105.166 228.035C105.182 227.369 104.98 226.716 104.591 226.175C104.414 225.956 104.189 225.783 103.933 225.667C103.676 225.552 103.397 225.499 103.116 225.512C102.816 225.503 102.518 225.557 102.241 225.67C101.963 225.782 101.712 225.951 101.503 226.166C101.04 226.685 100.763 227.343 100.715 228.036L105.166 228.035ZM112.451 235.225V230.768H112.424C112.192 231.227 111.83 231.608 111.384 231.864C110.938 232.12 110.427 232.24 109.913 232.209C109.515 232.222 109.119 232.143 108.756 231.977C108.393 231.812 108.074 231.565 107.823 231.255C107.263 230.519 106.983 229.608 107.032 228.685C106.978 227.693 107.299 226.718 107.932 225.952C108.215 225.626 108.567 225.366 108.962 225.192C109.357 225.018 109.786 224.933 110.218 224.944C110.673 224.915 111.126 225.022 111.519 225.252C111.912 225.483 112.227 225.826 112.423 226.237H112.45V225.114H113.072V235.226L112.451 235.225ZM112.451 227.886C112.474 227.264 112.26 226.656 111.851 226.186C111.638 225.959 111.378 225.782 111.09 225.666C110.801 225.55 110.491 225.499 110.18 225.516C109.839 225.51 109.501 225.581 109.192 225.725C108.882 225.869 108.61 226.081 108.394 226.345C107.885 227.006 107.633 227.829 107.684 228.662C107.64 229.44 107.862 230.209 108.314 230.844C108.505 231.097 108.753 231.301 109.038 231.439C109.323 231.577 109.637 231.646 109.954 231.639C110.298 231.661 110.642 231.605 110.962 231.477C111.282 231.349 111.569 231.151 111.803 230.897C112.235 230.391 112.464 229.742 112.446 229.077L112.451 227.886Z" fill="#004A76"/></g></g></g></g></g><style> @keyframes bounce-in-fwd {0% { transform: scale(0); animation-timing-function: ease-in; opacity: 0;}38% { transform: scale(1); animation-timing-function: ease-out; opacity: .3;}55% { transform: scale(0.7); animation-timing-function: ease-in;}72% { transform: scale(1); animation-timing-function: ease-out;}81% { transform: scale(0.84); animation-timing-function: ease-in;}89% { transform: scale(1); animation-timing-function: ease-out;}95% { transform: scale(0.95); animation-timing-function: ease-in;}100% { transform: scale(1); animation-timing-function: ease-out;}} @keyframes pulsecust { 0% { opacity: .3; transform: scale(1); } 50% { opacity: 0; transform: scale(1.4); } 100% { opacity: .3; transform: scale(1); } } @keyframes translateX { 0%, 100% { transform: translateX(0px); } 50% { transform: translateX(10px); } } @keyframes translateXR { 0%, 100% { transform: translateX(0px); } 50% { transform: translateX(-4px); } } @keyframes translateY { 0%, 100% { transform: translateY(0px) translateX(0px); } 50% { transform: translateY(-4px) translateX(-4px); } }</style></svg>