<svg xmlns="http://www.w3.org/2000/svg" width="24" height="24" viewBox="0 0 24 24">
  <g id="Group_217" data-name="Group 217" transform="translate(-397 -1)">
    <g id="document-download_bulk" data-name="document-download/bulk" transform="translate(397 1)">
      <g id="vuesax_bulk_document-download" data-name="vuesax/bulk/document-download">
        <g id="document-download">
          <path id="Vector" d="M18,8.19H15.11a4.306,4.306,0,0,1-4.3-4.3V1a1,1,0,0,0-1-1H5.57A5.277,5.277,0,0,0,0,5.57v8.86A5.277,5.277,0,0,0,5.57,20h7.86A5.277,5.277,0,0,0,19,14.43V9.19A1,1,0,0,0,18,8.19Z" transform="translate(2.5 2)" fill="#fff" opacity="0.4"/>
          <path id="Vector-2" data-name="Vector" d="M1.12.195A.654.654,0,0,0,0,.635v3.49a2.726,2.726,0,0,0,2.75,2.67c.95.01,2.27.01,3.4.01a.631.631,0,0,0,.47-1.07C5.18,4.285,2.6,1.675,1.12.195Z" transform="translate(14.68 2.015)" fill="#fff"/>
          <path id="Vector-3" data-name="Vector" d="M5.278,4.22a.754.754,0,0,0-1.06,0l-.72.72V.75A.75.75,0,0,0,2,.75V4.94l-.72-.72A.75.75,0,0,0,.218,5.28l2,2c.01.01.02.01.02.02a.855.855,0,0,0,.22.15.982.982,0,0,0,.29.05.671.671,0,0,0,.28-.06.963.963,0,0,0,.25-.16l2-2A.754.754,0,0,0,5.278,4.22Z" transform="translate(7.002 10.5)" fill="#fff"/>
          <path id="Vector-4" data-name="Vector" d="M0,0H24V24H0Z" fill="none" opacity="0"/>
        </g>
      </g>
    </g>
  </g>
</svg>
