<svg xmlns="http://www.w3.org/2000/svg" width="12.487" height="22" viewBox="0 0 12.487 22">
  <path id="facebook" d="M8.213,22H4.69a1.068,1.068,0,0,1-1.067-1.067V12.986H1.567A1.068,1.068,0,0,1,.5,11.919V8.514A1.068,1.068,0,0,1,1.567,7.446H3.623V5.741a5.806,5.806,0,0,1,1.535-4.16A5.529,5.529,0,0,1,9.235,0l2.687,0a1.069,1.069,0,0,1,1.065,1.067V4.233A1.068,1.068,0,0,1,11.92,5.3H10.111c-.552,0-.692.111-.722.145-.05.056-.108.215-.108.654V7.446h2.5a1.085,1.085,0,0,1,.528.134,1.071,1.071,0,0,1,.549.933v3.405a1.068,1.068,0,0,1-1.067,1.067H9.28v7.947A1.068,1.068,0,0,1,8.213,22Zm-3.3-1.29H7.99v-8.3A.713.713,0,0,1,8.7,11.7H11.57V8.736H8.7a.713.713,0,0,1-.712-.713V6.1a2.2,2.2,0,0,1,.432-1.508,2.186,2.186,0,0,1,1.689-.581H11.7V1.293l-2.463,0C6.569,1.289,4.912,3,4.912,5.741V8.024a.713.713,0,0,1-.712.713H1.79V11.7H4.2a.713.713,0,0,1,.712.713ZM11.919,1.294h0Zm0,0" transform="translate(-0.5 0)"/>
</svg>
