<svg xmlns="http://www.w3.org/2000/svg" width="20" height="20" viewBox="0 0 20 20">
  <g id="instagram" transform="translate(0.001 0)">
    <path id="Path_2164" data-name="Path 2164" d="M14.585,0H5.413A5.42,5.42,0,0,0,0,5.414v9.173A5.42,5.42,0,0,0,5.413,20h9.173A5.42,5.42,0,0,0,20,14.586V5.414A5.42,5.42,0,0,0,14.585,0Zm4.241,14.586a4.246,4.246,0,0,1-4.241,4.241H5.413a4.246,4.246,0,0,1-4.241-4.241V5.414A4.246,4.246,0,0,1,5.413,1.172h9.173a4.246,4.246,0,0,1,4.241,4.241Zm0,0"/>
    <path id="Path_2165" data-name="Path 2165" d="M121.257,116a5.253,5.253,0,1,0,5.253,5.253A5.259,5.259,0,0,0,121.257,116Zm0,9.379a4.126,4.126,0,1,1,4.126-4.126A4.131,4.131,0,0,1,121.257,125.383Zm0,0" transform="translate(-111.258 -111.257)"/>
    <path id="Path_2166" data-name="Path 2166" d="M359.67,66.285a1.693,1.693,0,1,0,1.693,1.693A1.695,1.695,0,0,0,359.67,66.285Zm0,2.157a.465.465,0,1,1,.465-.465A.465.465,0,0,1,359.67,68.443Zm0,0" transform="translate(-344.281 -63.573)"/>
  </g>
</svg>
