<svg xmlns="http://www.w3.org/2000/svg" width="19.372" height="20" viewBox="0 0 19.372 20">
  <g id="linkedin" transform="translate(-0.5)">
    <path id="Path_2167" data-name="Path 2167" d="M4.96,160.664H1.1a.6.6,0,0,0-.6.6V174.13a.6.6,0,0,0,.6.6H4.96a.6.6,0,0,0,.6-.6V161.265A.6.6,0,0,0,4.96,160.664Zm-.6,12.865H1.7V161.865H4.359Zm0,0" transform="translate(0 -154.73)"/>
    <path id="Path_2168" data-name="Path 2168" d="M3.03,0a2.53,2.53,0,1,0,2.53,2.53A2.533,2.533,0,0,0,3.03,0Zm0,3.859A1.329,1.329,0,1,1,4.359,2.53,1.331,1.331,0,0,1,3.03,3.859Zm0,0" transform="translate(0)"/>
    <path id="Path_2169" data-name="Path 2169" d="M168.841,158.543a5.766,5.766,0,0,0-2.618.632.6.6,0,0,0-.6-.547h-3.86a.6.6,0,0,0-.6.6v12.865a.6.6,0,0,0,.6.6h3.86a.6.6,0,0,0,.6-.6v-7.076a1.651,1.651,0,1,1,3.3,0v7.076a.6.6,0,0,0,.6.6h3.86a.6.6,0,0,0,.6-.6v-7.8a5.753,5.753,0,0,0-5.746-5.746Zm4.545,12.95h-2.658v-6.475a2.852,2.852,0,0,0-5.7,0v6.475h-2.658V159.829h2.658v.444a.6.6,0,0,0,.976.469,4.494,4.494,0,0,1,2.841-1,4.55,4.55,0,0,1,4.545,4.545Zm0,0" transform="translate(-154.715 -152.694)"/>
  </g>
</svg>
