<svg xmlns="http://www.w3.org/2000/svg" width="23.639" height="20" viewBox="0 0 23.639 20">
  <path id="telegram" d="M23.274.548A1.535,1.535,0,0,0,22.056,0a2.389,2.389,0,0,0-.85.169L1.2,7.808C.134,8.213-.009,8.821,0,9.147s.186.926,1.27,1.27l.019.006L5.44,11.611,7.685,18.03a1.938,1.938,0,0,0,1.793,1.419,2.122,2.122,0,0,0,1.435-.611l2.567-2.364,3.724,3h0l.035.028.01.008A2.15,2.15,0,0,0,18.557,20h0a1.835,1.835,0,0,0,1.749-1.626L23.585,2.185A1.934,1.934,0,0,0,23.274.547ZM6.829,11.386l8.008-4.091-4.986,5.3a.691.691,0,0,0-.168.309L8.721,16.8Zm3.146,6.433c-.033.03-.067.058-.1.083l.892-3.613L12.389,15.6ZM22.227,1.91,18.949,18.1c-.032.155-.132.515-.392.515a.807.807,0,0,1-.454-.2l-4.22-3.4h0L11.372,13l7.211-7.662a.692.692,0,0,0-.819-1.091L5.9,10.3,1.7,9.1l20-7.636a1.016,1.016,0,0,1,.356-.078c.042,0,.118.005.146.039a.661.661,0,0,1,.026.485Zm0,0" transform="translate(0)"/>
</svg>
