<svg xmlns="http://www.w3.org/2000/svg" width="24.404" height="20" viewBox="0 0 24.404 20">
  <path id="twitter" d="M24.246,2.465a.715.715,0,0,0-.826-.214l-.138.055a5.407,5.407,0,0,0,.453-1.01.715.715,0,0,0-.973-.877l-.051.025a11.917,11.917,0,0,1-2.42.981l-.084-.074A5.007,5.007,0,0,0,16.58,0a5.45,5.45,0,0,0-3.931,1.73,5.621,5.621,0,0,0-1.36,3.948,12.64,12.64,0,0,1-8.38-4.6.715.715,0,0,0-1.2.169,6.5,6.5,0,0,0-.657,2.982,5.068,5.068,0,0,0,.681,2.322.715.715,0,0,0-.75.761,5.554,5.554,0,0,0,1.959,4.14.715.715,0,0,0-.24.756A5.379,5.379,0,0,0,5.835,15.58a9.419,9.419,0,0,1-5.062.927.715.715,0,0,0-.429,1.324A14.608,14.608,0,0,0,8.005,20a13.147,13.147,0,0,0,11.018-5.322,15.427,15.427,0,0,0,3.025-8.607c0-.275-.008-.331,0-.409a8.165,8.165,0,0,0,2.23-2.345.715.715,0,0,0-.033-.852Zm-3.63,3.379c0,.05,0,.116,0,.227a13.9,13.9,0,0,1-2.742,7.753A11.765,11.765,0,0,1,8.005,18.57,13.015,13.015,0,0,1,3.6,17.808a10.2,10.2,0,0,0,4.515-1.981.715.715,0,0,0-.4-1.28,4.114,4.114,0,0,1-3.182-1.789,9.023,9.023,0,0,0,.975-.131A.715.715,0,0,0,5.6,11.24a4.031,4.031,0,0,1-3-2.892,8.7,8.7,0,0,0,1.071.181.715.715,0,0,0,.55-1.256A4.015,4.015,0,0,1,2.631,2.895,14.046,14.046,0,0,0,12,7.181a.715.715,0,0,0,.76-.785,4.624,4.624,0,0,1,.951-3.707A4.047,4.047,0,0,1,16.58,1.42a3.555,3.555,0,0,1,2.679,1,1.321,1.321,0,0,0,.882.452,3.446,3.446,0,0,0,.972-.193q-.2.168-.425.325a.715.715,0,0,0,.46,1.3q.185-.014.375-.039a1.611,1.611,0,0,0-.908,1.578Zm0,0" transform="translate(0.001 0)"/>
</svg>
