<svg xmlns="http://www.w3.org/2000/svg" width="20" height="20" viewBox="0 0 20 20">
  <g id="whatsapp" transform="translate(0)">
    <g id="Group_140" data-name="Group 140" transform="translate(4.487 4.487)">
      <g id="Group_139" data-name="Group 139">
        <path id="Path_2170" data-name="Path 2170" d="M128.071,125.06l-1.08-1.08a1.4,1.4,0,0,0-2.143.192l-.376.542a3.616,3.616,0,0,1-3.234-3.234l.542-.376a1.4,1.4,0,0,0,.192-2.143l-1.08-1.08a1.39,1.39,0,0,0-1.628-.258,3.383,3.383,0,0,0-1.75,2.587,7.212,7.212,0,0,0,2.316,5.91,7.59,7.59,0,0,0,5.159,2.373,4.91,4.91,0,0,0,.752-.057,3.382,3.382,0,0,0,2.587-1.75h0A1.39,1.39,0,0,0,128.071,125.06Zm-.841,1.058a2.181,2.181,0,0,1-1.678,1.1,6.722,6.722,0,0,1-6.814-6.814,2.181,2.181,0,0,1,1.1-1.678.143.143,0,0,1,.066-.016.168.168,0,0,1,.118.05l1.08,1.08a.164.164,0,0,1-.023.251l-.853.592a.619.619,0,0,0-.265.549A4.951,4.951,0,0,0,124.725,126a.619.619,0,0,0,.549-.265l.592-.853a.164.164,0,0,1,.251-.022l1.08,1.08A.16.16,0,0,1,127.23,126.119Z" transform="translate(-117.459 -117.469)"/>
      </g>
    </g>
    <g id="Group_142" data-name="Group 142" transform="translate(0)">
      <g id="Group_141" data-name="Group 141">
        <path id="Path_2171" data-name="Path 2171" d="M17.071,2.929A10,10,0,0,0,.059,8.912a10.051,10.051,0,0,0,1.3,6.134L.321,18.935a.607.607,0,0,0,.744.744l3.889-1.042a10,10,0,0,0,12.117-1.565,10,10,0,0,0,0-14.143Zm-.859,13.284A8.745,8.745,0,0,1,5.367,17.468a.607.607,0,0,0-.478-.071l-3.123.837L2.6,15.111a.608.608,0,0,0-.071-.478,8.787,8.787,0,1,1,13.68,1.58Z" transform="translate(0)"/>
      </g>
    </g>
  </g>
</svg>
