<svg xmlns="http://www.w3.org/2000/svg" width="36.328" height="60" viewBox="0 0 36.328 60">
  <g id="cellphone" transform="translate(-101)">
    <path id="Path_72" data-name="Path 72" d="M130.883,0H107.445A6.453,6.453,0,0,0,101,6.445V53.555A6.453,6.453,0,0,0,107.445,60h23.438a6.453,6.453,0,0,0,6.445-6.445V6.445A6.453,6.453,0,0,0,130.883,0ZM107.445,3.516h23.438a2.933,2.933,0,0,1,2.93,2.93v38.32h-29.3V6.445A2.933,2.933,0,0,1,107.445,3.516Zm23.438,52.969H107.445a2.933,2.933,0,0,1-2.93-2.93V48.281h29.3v5.273A2.933,2.933,0,0,1,130.883,56.484Z" fill="#0064ad"/>
    <path id="Path_73" data-name="Path 73" d="M227.445,432h-4.687a1.758,1.758,0,0,0,0,3.516h4.688a1.758,1.758,0,0,0,0-3.516Z" transform="translate(-105.938 -381.375)" fill="#0064ad"/>
    <path id="Path_74" data-name="Path 74" d="M162.758,84.891h1.965a7.573,7.573,0,0,0,.929,2.238l-1.391,1.391A1.758,1.758,0,1,0,166.747,91l1.391-1.391a7.573,7.573,0,0,0,2.238.929v1.965a1.758,1.758,0,0,0,3.516,0V90.543a7.573,7.573,0,0,0,2.238-.929L177.519,91A1.758,1.758,0,1,0,180,88.519l-1.391-1.391a7.573,7.573,0,0,0,.929-2.238h1.965a1.758,1.758,0,1,0,0-3.516h-1.965a7.574,7.574,0,0,0-.929-2.238L180,77.747a1.758,1.758,0,1,0-2.486-2.486l-1.391,1.391a7.573,7.573,0,0,0-2.238-.929V73.758a1.758,1.758,0,0,0-3.516,0v1.965a7.573,7.573,0,0,0-2.238.929l-1.391-1.391a1.758,1.758,0,0,0-2.486,2.486l1.391,1.391a7.573,7.573,0,0,0-.929,2.238h-1.965a1.758,1.758,0,0,0,0,3.516Zm9.375-5.859a4.1,4.1,0,1,1-4.1,4.1A4.106,4.106,0,0,1,172.133,79.031Z" transform="translate(-52.969 -63.562)" fill="#0064ad" opacity="0.4"/>
    <path id="Path_75" data-name="Path 75" d="M212.133,292h-9.375a1.758,1.758,0,0,0,0,3.516h9.375a1.758,1.758,0,0,0,0-3.516Z" transform="translate(-88.281 -257.781)" fill="#0064ad"/>
  </g>
</svg>
