<svg xmlns="http://www.w3.org/2000/svg" width="68.267" height="60" viewBox="0 0 68.267 60">
  <g id="developer" transform="translate(0 -31)">
    <path id="Path_68" data-name="Path 68" d="M68.139,80.3,64.267,69.971V37a6.007,6.007,0,0,0-6-6H10a6.007,6.007,0,0,0-6,6V69.971L.127,80.3A2,2,0,0,0,0,81v4a6.007,6.007,0,0,0,6,6H62.267a6.007,6.007,0,0,0,6-6V81A2,2,0,0,0,68.139,80.3ZM8,37a2,2,0,0,1,2-2H58.267a2,2,0,0,1,2,2V68.333H8ZM7.386,72.333H60.881L63.381,79H4.886ZM64.267,85a2,2,0,0,1-2,2H6a2,2,0,0,1-2-2V83H64.267Z" fill="#0064ad"/>
    <path id="Path_69" data-name="Path 69" d="M319.6,121.759a2.024,2.024,0,1,0-3.161,2.529l4.386,5.483-4.386,5.483a2.024,2.024,0,1,0,3.161,2.529l5.4-6.747a2.024,2.024,0,0,0,0-2.529Z" transform="translate(-273.947 -78.059)" fill="#0064ad" opacity="0.4"/>
    <path id="Path_70" data-name="Path 70" d="M134.686,121.443a2.024,2.024,0,0,0-2.845.316l-5.4,6.747a2.024,2.024,0,0,0,0,2.529l5.4,6.747A2.024,2.024,0,1,0,135,135.254l-4.386-5.483L135,124.288A2.024,2.024,0,0,0,134.686,121.443Z" transform="translate(-109.232 -78.059)" fill="#0064ad" opacity="0.4"/>
    <path id="Path_71" data-name="Path 71" d="M228.882,86.051a2.024,2.024,0,0,0-2.434,1.507l-5.4,22.941a2.024,2.024,0,0,0,3.941.927l5.4-22.941A2.024,2.024,0,0,0,228.882,86.051Z" transform="translate(-191.586 -47.575)" fill="#0064ad" opacity="0.4"/>
  </g>
</svg>
