<svg xmlns="http://www.w3.org/2000/svg" width="48.047" height="60" viewBox="0 0 48.047 60">
  <g id="security" transform="translate(-51)">
    <path id="Path_135" data-name="Path 135" d="M98.532,19.382l-4.687-4.687A1.758,1.758,0,0,0,92.6,14.18H87.328V5.273A5.279,5.279,0,0,0,82.055,0H56.273A5.279,5.279,0,0,0,51,5.273V54.727A5.279,5.279,0,0,0,56.273,60H82.055a5.279,5.279,0,0,0,5.273-5.273V45.211A20.39,20.39,0,0,0,99.047,26.754V20.625A1.758,1.758,0,0,0,98.532,19.382ZM73.756,3.516,72.585,7.031H65.743L64.572,3.516ZM83.813,54.727a1.76,1.76,0,0,1-1.758,1.758H56.273a1.76,1.76,0,0,1-1.758-1.758V5.273a1.76,1.76,0,0,1,1.758-1.758h4.592l1.943,5.829a1.758,1.758,0,0,0,1.668,1.2h9.375a1.758,1.758,0,0,0,1.668-1.2l1.943-5.829h4.592a1.76,1.76,0,0,1,1.758,1.758V14.18H78.539a1.758,1.758,0,0,0-1.243.515l-4.687,4.687a1.758,1.758,0,0,0-.515,1.243v6.129A20.39,20.39,0,0,0,83.813,45.211ZM95.531,26.754a16.8,16.8,0,0,1-9.961,15.4,16.8,16.8,0,0,1-9.961-15.4v-5.4L79.267,17.7H91.873l3.658,3.658Z" fill="#0064ad"/>
    <path id="Path_136" data-name="Path 136" d="M299.032,207.372l-5.386,5.386-2.072-2.072a1.758,1.758,0,0,0-2.486,2.486l3.315,3.315a1.757,1.757,0,0,0,2.486,0l6.629-6.629a1.758,1.758,0,1,0-2.486-2.486Z" transform="translate(-209.733 -182.616)" fill="#0064ad" opacity="0.4"/>
    <path id="Path_137" data-name="Path 137" d="M169.789,422h-7.031a1.758,1.758,0,0,0,0,3.516h7.031a1.758,1.758,0,0,0,0-3.516Z" transform="translate(-97.109 -372.547)" fill="#0064ad" opacity="0.4"/>
  </g>
</svg>
