<svg xmlns="http://www.w3.org/2000/svg" width="60" height="60" viewBox="0 0 60 60">
  <g id="teleworking" transform="translate(0 0.001)">
    <path id="Path_138" data-name="Path 138" d="M71.278,15.515a1.758,1.758,0,0,0,2.429.528l.807-.519v15.53a1.758,1.758,0,0,0,1.758,1.758h32.812a1.758,1.758,0,0,0,1.758-1.758V15.524l.807.519a1.758,1.758,0,1,0,1.9-2.957L93.629.278a1.758,1.758,0,0,0-1.9,0L71.806,13.085A1.758,1.758,0,0,0,71.278,15.515ZM100.3,29.3H85.061V27.538a2.933,2.933,0,0,1,2.93-2.93h9.375a2.933,2.933,0,0,1,2.93,2.93ZM89.748,18.163V15.82a2.93,2.93,0,0,1,5.859,0v2.344a2.93,2.93,0,0,1-5.859,0Zm-11.719-4.9L92.678,3.847l14.648,9.417V29.3h-3.516V27.538a6.455,6.455,0,0,0-5.436-6.366,6.4,6.4,0,0,0,.748-3.009V15.82a6.445,6.445,0,1,0-12.891,0v2.344a6.4,6.4,0,0,0,.748,3.009,6.455,6.455,0,0,0-5.436,6.366V29.3H78.03Z" transform="translate(-62.678)" fill="#0064ad"/>
    <path id="Path_139" data-name="Path 139" d="M338.83,323.8a6.4,6.4,0,0,0,.748-3.009v-2.344a6.445,6.445,0,1,0-12.891,0v2.344a6.4,6.4,0,0,0,.748,3.009A6.455,6.455,0,0,0,322,330.164v3.516a1.758,1.758,0,0,0,1.758,1.758h18.75a1.758,1.758,0,0,0,1.758-1.758v-3.516A6.455,6.455,0,0,0,338.83,323.8Zm-8.627-5.353a2.93,2.93,0,1,1,5.859,0v2.344a2.93,2.93,0,0,1-5.859,0Zm10.547,13.477H325.516v-1.758a2.933,2.933,0,0,1,2.93-2.93h9.375a2.933,2.933,0,0,1,2.93,2.93Z" transform="translate(-284.266 -275.438)" fill="#0064ad"/>
    <path id="Path_140" data-name="Path 140" d="M16.83,323.8a6.4,6.4,0,0,0,.748-3.009v-2.344a6.445,6.445,0,1,0-12.891,0v2.344a6.4,6.4,0,0,0,.748,3.009A6.455,6.455,0,0,0,0,330.164v3.516a1.758,1.758,0,0,0,1.758,1.758h18.75a1.758,1.758,0,0,0,1.758-1.758v-3.516A6.455,6.455,0,0,0,16.83,323.8ZM8.2,318.445a2.93,2.93,0,1,1,5.859,0v2.344a2.93,2.93,0,1,1-5.859,0ZM18.75,331.922H3.516v-1.758a2.933,2.933,0,0,1,2.93-2.93H15.82a2.933,2.933,0,0,1,2.93,2.93Z" transform="translate(0 -275.438)" fill="#0064ad"/>
    <path id="Path_141" data-name="Path 141" d="M209.2,316.889v-5.131a1.758,1.758,0,1,0-3.516,0v5.131l-4.173,4.173A1.758,1.758,0,1,0,204,323.548l3.445-3.444,3.444,3.444a1.758,1.758,0,1,0,2.486-2.486Z" transform="translate(-177.445 -273.673)" fill="#0064ad" opacity="0.4"/>
  </g>
</svg>
