<svg xmlns="http://www.w3.org/2000/svg" width="50" height="50" viewBox="0 0 50 50">
  <g id="Group_158" data-name="Group 158" transform="translate(-960 -4628)">
    <g id="cup_twotone" data-name="cup/twotone" transform="translate(960 4628)">
      <g id="vuesax_twotone_cup" data-name="vuesax/twotone/cup">
        <g id="cup">
          <path id="Vector" d="M0,0V4.461" transform="translate(25.312 34.31)" fill="none" stroke="#fff" stroke-linecap="round" stroke-linejoin="round" stroke-width="3" opacity="0.34"/>
          <path id="Vector-2" data-name="Vector" d="M0,6.373H21.242V4.248A4.261,4.261,0,0,0,16.993,0H4.248A4.261,4.261,0,0,0,0,4.248V6.373Z" transform="translate(14.687 39.379)" fill="none" stroke="#fff" stroke-width="3"/>
          <path id="Vector-3" data-name="Vector" d="M0,0H25.49" transform="translate(12.561 45.751)" fill="none" stroke="#fff" stroke-linecap="round" stroke-linejoin="round" stroke-width="3"/>
          <path id="Vector-4" data-name="Vector" d="M14.379,29.738A14.62,14.62,0,0,1,0,14.869V8.5A8.358,8.358,0,0,1,8.217,0H20.541a8.358,8.358,0,0,1,8.217,8.5v6.373A14.62,14.62,0,0,1,14.379,29.738Z" transform="translate(10.621 4.248)" fill="none" stroke="#fff" stroke-linecap="round" stroke-linejoin="round" stroke-width="3"/>
          <path id="Vector-5" data-name="Vector" d="M7.286,15.506a10.321,10.321,0,0,1-4.1-2.549A11.33,11.33,0,0,1,0,5.31,5.259,5.259,0,0,1,5.31,0H6.691a7.978,7.978,0,0,0-.637,3.186V9.559A14.97,14.97,0,0,0,7.286,15.506Z" transform="translate(4.333 8.985)" fill="none" stroke="#fff" stroke-linecap="round" stroke-linejoin="round" stroke-width="3" opacity="0.34"/>
          <path id="Vector-6" data-name="Vector" d="M0,15.506a10.321,10.321,0,0,0,4.1-2.549A11.33,11.33,0,0,0,7.286,5.31,5.259,5.259,0,0,0,1.975,0H.595a7.978,7.978,0,0,1,.637,3.186V9.559A14.97,14.97,0,0,1,0,15.506Z" transform="translate(38.381 8.985)" fill="none" stroke="#fff" stroke-linecap="round" stroke-linejoin="round" stroke-width="3" opacity="0.34"/>
          <path id="Vector-7" data-name="Vector" d="M0,0H50V50H0Z" fill="none" opacity="0"/>
        </g>
      </g>
    </g>
  </g>
</svg>
