<svg xmlns="http://www.w3.org/2000/svg" width="49.839" height="49.839" viewBox="0 0 49.839 49.839">
  <g id="Group_159" data-name="Group 159" transform="translate(-671 -4645)">
    <g id="verify_twotone" data-name="verify/twotone" transform="translate(671 4645)">
      <g id="vuesax_twotone_verify" data-name="vuesax/twotone/verify">
        <g id="verify">
          <path id="Vector" d="M0,5.025l5,5.025L15.035,0" transform="translate(17.402 19.894)" fill="none" stroke="#fff" stroke-linecap="round" stroke-linejoin="round" stroke-width="3" opacity="0.34"/>
          <path id="Vector-2" data-name="Vector" d="M18.16.919a4.185,4.185,0,0,1,5.233,0l3.281,2.824a4.6,4.6,0,0,0,2.617.976h3.53a4.024,4.024,0,0,1,4.008,4.008v3.53a4.658,4.658,0,0,0,.976,2.617l2.824,3.281a4.185,4.185,0,0,1,0,5.233L37.8,26.669a4.6,4.6,0,0,0-.976,2.617v3.53a4.024,4.024,0,0,1-4.008,4.008h-3.53a4.658,4.658,0,0,0-2.617.976l-3.281,2.824a4.185,4.185,0,0,1-5.233,0L14.879,37.8a4.6,4.6,0,0,0-2.617-.976H8.67a4.024,4.024,0,0,1-4.008-4.008V29.265a4.725,4.725,0,0,0-.955-2.6l-2.8-3.3a4.181,4.181,0,0,1,0-5.192l2.8-3.3a4.725,4.725,0,0,0,.955-2.6V8.706A4.024,4.024,0,0,1,8.67,4.7h3.593a4.658,4.658,0,0,0,2.617-.976Z" transform="translate(4.164 4.169)" fill="none" stroke="#fff" stroke-linecap="round" stroke-linejoin="round" stroke-width="3"/>
          <path id="Vector-3" data-name="Vector" d="M0,0H49.839V49.839H0Z" fill="none" opacity="0"/>
        </g>
      </g>
    </g>
  </g>
</svg>
