<svg width="117" height="121" viewBox="0 0 117 121" fill="none" xmlns="http://www.w3.org/2000/svg"><g id="logo 1" clip-path="url(#clip0_6_2)"><g id="logo"><g id="translate_3" style="transform-origin: center; transform-box: fill-box; animation: translateYR 2s linear infinite alternate;"><path id="translate_2" style="transform-origin: center; transform-box: fill-box; animation: translateXR 2s linear infinite alternate;" d="M8.832 72.55L1.515 79.867C0.544729 80.8373 -0.000366211 82.1533 -0.000366211 83.5255C-0.000366211 84.8977 0.544729 86.2137 1.515 87.184V87.184C2.48531 88.1543 3.8013 88.6994 5.17349 88.6994C6.54569 88.6994 7.86169 88.1543 8.832 87.184L23.466 72.55C24.4363 71.5797 24.9814 70.2637 24.9814 68.8915C24.9814 67.5193 24.4363 66.2033 23.466 65.233L8.832 50.599C7.86169 49.6287 6.54569 49.0836 5.17349 49.0836C3.8013 49.0836 2.48531 49.6287 1.515 50.599C0.544729 51.5693 -0.000366211 52.8853 -0.000366211 54.2575C-0.000366211 55.6297 0.544729 56.9457 1.515 57.916L8.832 65.233C9.80227 66.2033 10.3474 67.5193 10.3474 68.8915C10.3474 70.2637 9.80227 71.5797 8.832 72.55V72.55Z" fill="white"/><path id="Path 2174" d="M28.655 78.516L9.40599 97.765C8.14207 99.0289 7.13947 100.529 6.45544 102.181C5.77142 103.832 5.41936 105.602 5.41936 107.39C5.41936 109.177 5.77142 110.947 6.45544 112.598C7.13947 114.25 8.14207 115.75 9.40599 117.014C10.6699 118.278 12.1704 119.281 13.8217 119.965C15.4731 120.649 17.2431 121.001 19.0305 121.001C20.8179 121.001 22.5879 120.649 24.2392 119.965C25.8906 119.281 27.3911 118.278 28.655 117.014L67.155 78.514C68.4189 77.2501 69.4215 75.7496 70.1055 74.0983C70.7896 72.4469 71.1416 70.6769 71.1416 68.8895C71.1416 67.1021 70.7896 65.3321 70.1055 63.6807C69.4215 62.0294 68.4189 60.5289 67.155 59.265L28.655 20.765C27.3911 19.5011 25.8906 18.4985 24.2392 17.8145C22.5879 17.1304 20.8179 16.7784 19.0305 16.7784C17.2431 16.7784 15.4731 17.1304 13.8217 17.8145C12.1704 18.4985 10.6699 19.5011 9.40599 20.765V20.765C8.14207 22.0289 7.13947 23.5294 6.45544 25.1807C5.77142 26.8321 5.41936 28.6021 5.41936 30.3895C5.41936 32.1769 5.77142 33.9469 6.45544 35.5983C7.13947 37.2496 8.14207 38.7501 9.40599 40.014L28.655 59.267C29.9189 60.5309 30.9215 62.0314 31.6055 63.6828C32.2896 65.3341 32.6416 67.1041 32.6416 68.8915C32.6416 70.6789 32.2896 72.4489 31.6055 74.1002C30.9215 75.7516 29.9189 77.2521 28.655 78.516V78.516Z" fill="white"/></g><g id="translate_4" style="transform-origin: center; transform-box: fill-box; animation: translateY 2s linear infinite alternate;"><path id="translate_1" style="transform-origin: center; transform-box: fill-box; animation: translateX 2s linear infinite alternate;" d="M107.804 48.451L115.121 41.134C116.091 40.1637 116.636 38.8477 116.636 37.4755C116.636 36.1033 116.091 34.7873 115.121 33.817V33.817C114.151 32.8467 112.835 32.3016 111.463 32.3016C110.09 32.3016 108.774 32.8467 107.804 33.817L93.169 48.451C92.1987 49.4213 91.6536 50.7373 91.6536 52.1095C91.6536 53.4817 92.1987 54.7977 93.169 55.768L107.803 70.402C108.773 71.3723 110.089 71.9174 111.461 71.9174C112.834 71.9174 114.15 71.3723 115.12 70.402C116.09 69.4317 116.635 68.1157 116.635 66.7435C116.635 65.3713 116.09 64.0553 115.12 63.085L107.804 55.771C107.323 55.2905 106.942 54.7199 106.681 54.0919C106.421 53.4639 106.287 52.7908 106.287 52.111C106.287 51.4312 106.421 50.7581 106.681 50.1301C106.942 49.5021 107.323 48.9315 107.804 48.451V48.451Z" fill="#1D89D6"/><path id="Path 2177" d="M84.078 42.488L103.327 23.239C104.591 21.9751 105.594 20.4746 106.278 18.8232C106.962 17.1719 107.314 15.4019 107.314 13.6145C107.314 11.8271 106.962 10.0571 106.278 8.40575C105.594 6.75437 104.591 5.25389 103.327 3.98999V3.98999C102.063 2.72607 100.563 1.72347 98.9113 1.03944C97.2599 0.355415 95.49 0.00335693 93.7025 0.00335693C91.9151 0.00335693 90.1451 0.355415 88.4938 1.03944C86.8424 1.72347 85.3419 2.72607 84.078 3.98999L45.578 42.49C44.3141 43.7539 43.3115 45.2544 42.6275 46.9057C41.9434 48.5571 41.5914 50.3271 41.5914 52.1145C41.5914 53.9019 41.9434 55.6719 42.6275 57.3232C43.3115 58.9746 44.3141 60.4751 45.578 61.739L84.078 100.239C85.3419 101.503 86.8424 102.506 88.4938 103.19C90.1451 103.874 91.9151 104.226 93.7025 104.226C95.49 104.226 97.2599 103.874 98.9113 103.19C100.563 102.506 102.063 101.503 103.327 100.239V100.239C104.591 98.9751 105.594 97.4746 106.278 95.8232C106.962 94.1719 107.314 92.4019 107.314 90.6145C107.314 88.8271 106.962 87.0571 106.278 85.4057C105.594 83.7544 104.591 82.2539 103.327 80.99L84.078 61.741C82.8135 60.477 81.8104 58.9763 81.126 57.3246C80.4416 55.6728 80.0894 53.9024 80.0894 52.1145C80.0894 50.3266 80.4416 48.5562 81.126 46.9044C81.8104 45.2527 82.8135 43.752 84.078 42.488V42.488Z" fill="#1D89D6"/></g></g></g><defs><clipPath id="clip0_6_2"><rect width="116.636" height="121" fill="white"/></clipPath></defs><style> @keyframes translateX { 0%, 100% { transform: translateX(0px); } 50% { transform: translateX(-3px); } } @keyframes translateXR { 0%, 100% { transform: translateX(0px); } 50% { transform: translateX(3px); } } @keyframes translateY { 0%, 100% { transform: translateY(0px); } 50% { transform: translateY(5px); } } @keyframes translateYR { 0%, 100% { transform: translateY(0px); } 50% { transform: translateY(-5px); } }</style></svg>