<svg width="81" height="57" viewBox="0 0 81 57" fill="none" xmlns="http://www.w3.org/2000/svg"><g id="translate_4" style="transform-origin: center; transform-box: fill-box; animation: translateX 2s linear infinite;"><path id="translate_2" style="transform-origin: center; transform-box: fill-box; animation: translateY 2s linear infinite;" fill-rule="evenodd" clip-rule="evenodd" d="M18.216 40.77C18.223 41.206 17.928 41.298 17.78 41.504C16.98 42.609 17.147 43.496 18.304 44.11C20.133 45.079 22.125 45.175 24.082 45.449C32.3455 46.6308 40.7572 46.2542 48.882 44.339C49.6267 44.0929 50.4198 44.0298 51.194 44.1552C51.9683 44.2805 52.701 44.5905 53.33 45.059C55.0907 46.2112 56.9348 47.2307 58.847 48.109C57.3813 48.9557 55.8265 49.6378 54.211 50.143C47.5737 52.5211 40.5605 53.6775 33.511 53.556C28.1508 53.5987 22.8268 52.6739 17.795 50.826C16.1173 50.2593 14.5821 49.3362 13.295 48.12C11.616 46.407 11.652 44.752 13.46 43.201C14.8653 42.0784 16.483 41.2515 18.216 40.77V40.77Z" fill="#fff"/><path id="translate_1" style="transform-origin: center; transform-box: fill-box; animation: translateYR 2s linear infinite;" fill-rule="evenodd" clip-rule="evenodd" d="M71.383 15.771C69.392 17.171 67.574 18.816 65.628 20.087C64.2429 20.8443 62.743 21.3693 61.188 21.641C53.465 23.5909 45.5704 24.7832 37.616 25.201C30.0878 25.6953 22.5309 25.537 15.03 24.728C10.822 24.248 6.603 23.694 2.574 21.8C2.09092 21.5782 1.63354 21.3042 1.21 20.983C-0.335998 19.788 -0.402002 18.37 1.022 16.945C2.05954 15.9822 3.2232 15.1651 4.481 14.516C9.74235 11.3645 15.6114 9.36297 21.702 8.643C22.582 8.553 23.472 8.631 24.686 8.631C22.331 9.56 20.262 10.322 18.219 11.196C15.8169 12.0941 13.566 13.3536 11.544 14.931C11.1838 15.1496 10.8853 15.4564 10.6765 15.8225C10.4678 16.1885 10.3558 16.6017 10.351 17.023C10.426 18.076 11.24 18.402 11.877 18.684C15.051 20.084 18.365 20.264 21.663 20.46C29.3538 20.811 37.0596 20.6333 44.726 19.928C53.5055 19.1798 62.2216 17.8158 70.81 15.846C70.999 15.801 71.193 15.795 71.383 15.771Z" fill="#fff"/><g id="translate_3" style="transform-origin: center; transform-box: fill-box; animation: translateXR 2s linear infinite;"><path id="Path 3" fill-rule="evenodd" clip-rule="evenodd" d="M13.246 25.012C12.835 25.668 12.537 26.112 12.264 26.583C10.964 28.822 11.403 30.627 13.474 31.558C14.6742 32.0922 15.9448 32.4519 17.247 32.626C28.537 34.2954 40.0253 34.0863 51.247 32.007C53.802 31.514 56.347 30.899 58.881 30.27C59.3194 30.1252 59.7922 30.1214 60.2329 30.2591C60.6736 30.3969 61.0601 30.6693 61.338 31.038C62.8255 32.7439 64.6687 34.1031 66.738 35.02C64.8312 36.0157 62.8038 36.7609 60.706 37.237C53.1382 39.4845 45.3294 40.8212 37.445 41.219C29.158 41.638 20.902 41.284 12.798 38.707C10.5722 38.0953 8.50571 37.0079 6.74099 35.52C4.59099 33.6 4.51899 31.135 6.60699 29.057C8.49011 27.2297 10.7587 25.8476 13.246 25.012V25.012Z" fill="#fff"/><path id="Path 4" d="M79.448 52.236C78.7723 51.4457 78.201 50.5719 77.748 49.636C77.204 48.5633 76.6397 47.3487 76.055 45.992C75.4385 44.574 74.7179 43.2036 73.899 41.892C72.9754 40.4184 71.9491 39.0116 70.828 37.682C69.7664 36.413 68.572 35.2614 67.265 34.247C66.0753 33.3197 64.7729 32.5469 63.389 31.947C62.4757 31.5529 61.5093 31.2955 60.521 31.183L54.905 31.231L54.936 34.847C56.2173 34.8762 57.4808 35.1529 58.657 35.662C60.041 36.2618 61.3434 37.0346 62.533 37.962C63.8403 38.9764 65.0351 40.128 66.097 41.397C67.2179 42.7267 68.2441 44.1335 69.168 45.607C69.9866 46.9186 70.7069 48.289 71.323 49.707C71.9083 51.063 72.4727 52.2773 73.016 53.35C73.4689 54.286 74.0402 55.1598 74.716 55.95C74.9899 56.2694 75.3318 56.5234 75.7166 56.6935C76.1014 56.8636 76.5194 56.9454 76.94 56.933C77.5121 56.931 78.0749 56.7874 78.578 56.515C79.0796 56.2454 79.5244 55.8814 79.888 55.443C80.2539 55.003 80.5461 54.5066 80.753 53.973C80.858 53.7053 80.938 53.4284 80.992 53.146C80.3917 53.0196 79.8493 52.7 79.448 52.236Z" fill="#fff"/><path id="Path 5" fill-rule="evenodd" clip-rule="evenodd" d="M56.199 34.073C56.966 32.637 58.378 32.073 59.533 31.212C63.765 28.059 67.775 24.692 70.69 20.212C72.4431 17.7844 73.3878 14.8665 73.39 11.872C73.162 5.52099 66.546 1.023 60.205 2.841C59.173 3.141 58.169 3.516 57.093 3.875C57.1194 3.52551 57.2458 3.19097 57.4569 2.91121C57.6681 2.63145 57.9551 2.41826 58.284 2.297C63.018 -0.430003 69.984 -1.084 75.1 2.297C80.671 5.97 81.876 12.75 78.1 18.936C75.4 23.352 71.425 26.402 67.089 29.019C64.1295 30.7963 61.0171 32.3056 57.789 33.529C57.261 33.727 56.726 33.892 56.199 34.073Z" fill="#fff"/></g></g><style> @keyframes translateX { 0%, 100% { transform: translateX(0px); } 50% { transform: translateX(-4px); } } @keyframes translateXR { 0%, 100% { transform: translateX(0px); } 50% { transform: translateX(4px); } } @keyframes translateY { 0%, 100% { transform: translateY(0px); } 50% { transform: translateY(4px); } } @keyframes translateYR { 0%, 100% { transform: translateY(0px); } 50% { transform: translateY(-4px); } } @keyframes rotation { 0% { transform: rotate(0deg); } 50% { transform: rotate(10deg); } 100% { transform: rotate(0deg); } }</style></svg>