<svg xmlns="http://www.w3.org/2000/svg" width="30" height="30" viewBox="0 0 30 30">
  <g id="Group_205" data-name="Group 205" transform="translate(-1126 -955)">
    <g id="message-text_bulk" data-name="message-text/bulk" transform="translate(1126 955)">
      <g id="vuesax_bulk_message-text" data-name="vuesax/bulk/message-text">
        <g id="message-text">
          <path id="Vector" d="M0,0H30V30H0Z" fill="none" opacity="0"/>
          <path id="Vector-2" data-name="Vector" d="M17.5,0H7.5Q0,0,0,7.5V23.75A1.254,1.254,0,0,0,1.25,25H17.5Q25,25,25,17.5V7.5Q25,0,17.5,0Z" transform="translate(2.5 2.5)" opacity="0.4"/>
          <g id="Group" transform="translate(7.813 10.938)">
            <path id="Vector-3" data-name="Vector" d="M13.438,0H.938A.944.944,0,0,0,0,.938a.944.944,0,0,0,.938.938h12.5a.944.944,0,0,0,.938-.937A.944.944,0,0,0,13.438,0Z"/>
            <path id="Vector-4" data-name="Vector" d="M9.688,0H.938A.944.944,0,0,0,0,.938a.944.944,0,0,0,.938.938h8.75a.944.944,0,0,0,.938-.937A.944.944,0,0,0,9.688,0Z" transform="translate(0 6.25)"/>
          </g>
        </g>
      </g>
    </g>
  </g>
</svg>
