<svg xmlns="http://www.w3.org/2000/svg" width="30.046" height="30.046" viewBox="0 0 30.046 30.046">
  <g id="Group_206" data-name="Group 206" transform="translate(-1092 -992)">
    <g id="gps_bulk" data-name="gps/bulk" transform="translate(1092 992)">
      <g id="vuesax_bulk_gps" data-name="vuesax/bulk/gps">
        <g id="gps">
          <path id="Vector" d="M20.031,10.015A10.015,10.015,0,1,1,10.015,0,10.015,10.015,0,0,1,20.031,10.015Z" transform="translate(5.008 5.008)" opacity="0.4"/>
          <path id="Vector-2" data-name="Vector" d="M7.812,3.906A3.906,3.906,0,1,1,3.906,0,3.906,3.906,0,0,1,7.812,3.906Z" transform="translate(11.117 11.117)"/>
          <path id="Vector-3" data-name="Vector" d="M1.878.939V3.493H1.865a7.522,7.522,0,0,0-.926-.05,7.522,7.522,0,0,0-.926.05H0V.939A.946.946,0,0,1,.939,0,.946.946,0,0,1,1.878.939Z" transform="translate(14.084 1.565)"/>
          <path id="Vector-4" data-name="Vector" d="M3.443.939a7.727,7.727,0,0,0,.05.939H.939A.946.946,0,0,1,0,.939.946.946,0,0,1,.939,0H3.493A7.727,7.727,0,0,0,3.443.939Z" transform="translate(1.565 14.084)"/>
          <path id="Vector-5" data-name="Vector" d="M1.878,0V2.554a.946.946,0,0,1-.939.939A.946.946,0,0,1,0,2.554V0H.013A7.522,7.522,0,0,0,.939.05,7.522,7.522,0,0,0,1.865,0Z" transform="translate(14.084 24.988)"/>
          <path id="Vector-6" data-name="Vector" d="M3.493.939a.946.946,0,0,1-.939.939H0A7.727,7.727,0,0,0,.05.939,7.727,7.727,0,0,0,0,0H2.554A.946.946,0,0,1,3.493.939Z" transform="translate(24.988 14.084)"/>
          <path id="Vector-7" data-name="Vector" d="M0,0H30.046V30.046H0Z" fill="none" opacity="0"/>
        </g>
      </g>
    </g>
  </g>
</svg>
